<svg xmlns="http://www.w3.org/2000/svg" xmlns:xlink="http://www.w3.org/1999/xlink" version="1.1" id="v-2"><rect id="svg-background" width="100%" height="100%" fill="#F5F6F6"></rect><g id="v-3" class="viewport" transform="translate(-33, 9) scale(1)"><g id="j_1090" model-id="cfaa6a3c-824f-4b22-b31d-a14fc2853ed5" class="link joint-theme-default"><path class="connection" stroke="#d2d2dc" d="M 54 80 47 80 S 40 80 40 90 L 40 430 S 40 440 50 439 L 81 437" id="v-14568" stroke-width="1" fill="none"></path><path class="marker-source" fill="white" stroke="#d2d2dc" d="M -5 0 L 5 5 M -5 5 L 5 5 M -5 10 L 5 5 M 5 5" id="v-14569" stroke-width="1" transform="translate(59,85) scale(1,1) rotate(-180)"></path><path class="marker-target" fill="white" stroke="#d2d2dc" d="M 6 0 L 6 10 M 6 5 L 0 5 z" id="v-14570" stroke-width="1" transform="translate(87.42399597167969,440.98199462890625) scale(1,1) rotate(-184.86451705320542)"></path><g class="labels" id="v-14572"></g></g><g id="j_1091" model-id="d3b35745-3608-436c-a1a9-cd32770c0f36" class="link joint-theme-default"><path class="connection" stroke="#d2d2dc" d="M 408 260 340 260 S 330 260 330 250 L 330 110 S 330 100 338 100 L 346 100" id="v-14582" stroke-width="1" fill="none"></path><path class="marker-source" fill="white" stroke="#d2d2dc" d="M -5 0 L 5 5 M -5 5 L 5 5 M -5 10 L 5 5 M 5 5" id="v-14583" stroke-width="1" transform="translate(413,265) scale(1,1) rotate(-180)"></path><path class="marker-target" fill="white" stroke="#d2d2dc" d="M 6 0 L 6 10 M 6 5 L 0 5 z" id="v-14584" stroke-width="1" transform="translate(352,105) scale(1,1) rotate(-180)"></path><g class="labels" id="v-14586"></g></g><g id="j_1092" model-id="b8183f95-91a6-4483-bd38-ad46fcf1c90a" class="link joint-theme-default"><path class="connection" stroke="#d2d2dc" d="M 610 283 749 283" id="v-14596" stroke-width="1" fill="none"></path><path class="marker-source" fill="white" stroke="#d2d2dc" d="M -5 0 L 5 5 M -5 5 L 5 5 M -5 10 L 5 5 M 5 5" id="v-14597" stroke-width="1" transform="translate(605,278) scale(1,1) rotate(0)"></path><path class="marker-target" fill="white" stroke="#d2d2dc" d="M 6 0 L 6 10 M 6 5 L 0 5 z" id="v-14598" stroke-width="1" transform="translate(755,288) scale(1,1) rotate(-180)"></path><g class="labels" id="v-14600"></g></g><g id="j_1093" model-id="7d6705ce-ce63-4f03-baaf-c9674a05eaa3" class="link joint-theme-default"><path class="connection" stroke="#d2d2dc" d="M 408 311 273 311" id="v-14610" stroke-width="1" fill="none"></path><path class="marker-source" fill="white" stroke="#d2d2dc" d="M -5 0 L 5 5 M -5 5 L 5 5 M -5 10 L 5 5 M 5 5" id="v-14611" stroke-width="1" transform="translate(413,316) scale(1,1) rotate(-180)"></path><path class="marker-target" fill="white" stroke="#d2d2dc" d="M 6 0 L 6 10 M 6 5 L 0 5 z" id="v-14612" stroke-width="1" transform="translate(267,306) scale(1,1) rotate(0)"></path><g class="labels" id="v-14614"></g></g><g id="j_1085" model-id="973bfa8d-4a53-41d5-b5df-e632438a1802" class="element basic newt joint-theme-default" magnet="false" fill="#ffffff" stroke="none" transform="translate(87,255)" font-family="Roboto,'Helvetica Neue', sans-serif"><g class="joint-table" onmousedown="QdbdJS.onTableMouseDown(this)" onmouseup="QdbdJS.onTableMouseUp(this)" id="v-14502">
          <rect x="0" y="0" width="180" height="38" class="joint-table-title" onmousedown="QdbdJS.onRowMouseDown()" onmousemove="QdbdJS.onRowMouseMove()" onmouseup="QdbdJS.onRowMouseUp(1)" fill="#005aa0" stroke="#005aa0"></rect>
          <text x="14" y="24" text-anchor="start" class="joint-table-title-text" id="v-14515" pointer-events="none" font-size="14px">Users</text>
          <g class="joint-table-rows">
            
        <g class="joint-table-row-group" onmousedown="QdbdJS.onRowMouseDown()" onmousemove="QdbdJS.onRowMouseMove()" onmouseup="QdbdJS.onRowMouseUp(3)">
          <rect x="0" y="38" class="joint-table-row" width="180" height="25" stroke="none"></rect>
          
          
          <text x="0" y="60" class="joint-field-text" id="v-14516" pointer-events="none" fill="#333" font-size="12px">
            <tspan x="14" y="60" text-anchor="start" class="joint-field-name pk" fill="#005aa0" font-weight="bold">
              id
            </tspan>
            <tspan x="166" y="60" text-anchor="end" class="joint-field-type" fill="#adb1b5">
              int
            </tspan>
          </text>
          <path class="pk-key" transform="matrix(0.7, 0, 0, 0.7, 129, 47)" d="M22.208,2.205l0.167,0.006l0.167,0.011l0.166,0.015l0.165,0.019l0.164,0.023l0.163,0.028l0.161,0.031l0.16,0.035l0.158,0.039l0.157,0.043l0.156,0.047l0.153,0.051l0.152,0.054l0.151,0.058l0.148,0.061l0.146,0.065l0.145,0.068l0.142,0.072l0.141,0.075l0.138,0.078l0.136,0.082l0.134,0.085l0.132,0.087l0.129,0.091l0.127,0.094l0.125,0.097l0.122,0.099l0.12,0.103l0.117,0.105l0.114,0.108l0.112,0.11l0.11,0.114l0.106,0.116l0.104,0.118l0.101,0.121l0.098,0.123l0.096,0.126l0.092,0.128l0.089,0.13l0.087,0.133l0.083,0.135l0.08,0.137l0.077,0.139l0.074,0.141l0.07,0.144l0.067,0.145l0.064,0.147l0.06,0.149l0.056,0.151l0.053,0.152l0.05,0.154l0.046,0.156l0.042,0.157l0.038,0.159l0.035,0.16l0.03,0.162l0.027,0.162l0.023,0.164l0.018,0.165l0.015,0.167l0.01,0.167l0.007,0.168l0.002,0.168l-0.002,0.169l-0.007,0.168l-0.01,0.167l-0.015,0.166l-0.018,0.166l-0.023,0.163l-0.027,0.163l-0.03,0.162l-0.035,0.16l-0.038,0.159l-0.042,0.157l-0.046,0.156l-0.05,0.154l-0.053,0.152l-0.056,0.151l-0.06,0.149l-0.064,0.147l-0.067,0.145l-0.07,0.143l-0.074,0.142l-0.077,0.139l-0.08,0.137l-0.083,0.135l-0.087,0.132l-0.089,0.131l-0.092,0.128l-0.096,0.125l-0.098,0.124l-0.101,0.121l-0.104,0.118l-0.106,0.116l-0.11,0.113l-0.112,0.111l-0.114,0.108l-0.117,0.105l-0.12,0.103l-0.122,0.099l-0.125,0.097l-0.127,0.094l-0.129,0.09l-0.132,0.088l-0.134,0.085l-0.136,0.081l-0.138,0.078l-0.141,0.076l-0.142,0.071l-0.145,0.069l-0.146,0.064l-0.148,0.062l-0.151,0.058l-0.152,0.054l-0.153,0.05l-0.156,0.047l-0.157,0.043l-0.158,0.039l-0.16,0.036l-0.161,0.031l-0.163,0.027l-0.164,0.024l-0.165,0.019l-0.166,0.015l-0.167,0.01l-0.167,0.007l-0.169,0.002l-0.168,-0.002l-0.168,-0.007l-0.167,-0.01l-0.166,-0.015l-0.165,-0.019l-0.164,-0.024l-0.163,-0.027l-0.161,-0.031l-0.16,-0.036l-0.158,-0.039l-0.157,-0.043l-0.156,-0.047l-0.153,-0.05l-0.152,-0.054l-0.15,-0.058l-0.149,-0.062l-0.146,-0.064l-0.145,-0.069l-0.142,-0.071l-0.141,-0.076l-0.138,-0.078l-0.136,-0.081l-0.134,-0.085l-0.132,-0.088l-0.129,-0.09l-0.127,-0.094l-0.125,-0.097l-0.122,-0.099l-0.12,-0.103l-0.117,-0.105l-0.114,-0.108l-0.112,-0.111l-0.11,-0.113l-0.106,-0.116l-0.104,-0.118l-0.101,-0.121l-0.098,-0.123l-0.096,-0.126l-0.092,-0.128l-0.089,-0.131l-0.087,-0.132l-0.083,-0.135l-0.08,-0.137l-0.077,-0.139l-0.073,-0.142l-0.071,-0.143l-0.067,-0.145l-0.063,-0.147l-0.061,-0.149l-0.056,-0.151l-0.053,-0.152l-0.05,-0.154l-0.046,-0.156l-0.042,-0.157l-0.038,-0.159l-0.035,-0.16l-0.03,-0.162l-0.027,-0.163l-0.023,-0.164l-0.018,-0.165l-0.015,-0.166l-0.01,-0.167l-0.007,-0.168l-0.002,-0.169l0.002,-0.168l0.007,-0.168l0.01,-0.167l0.015,-0.167l0.018,-0.165l0.023,-0.164l0.027,-0.162l0.03,-0.162l0.035,-0.16l0.038,-0.159l0.042,-0.157l0.046,-0.156l0.05,-0.154l0.053,-0.152l0.056,-0.151l0.061,-0.149l0.063,-0.147l0.067,-0.145l0.071,-0.144l0.073,-0.141l0.077,-0.139l0.08,-0.137l0.083,-0.135l0.087,-0.133l0.089,-0.13l0.092,-0.128l0.096,-0.126l0.098,-0.123l0.101,-0.121l0.104,-0.118l0.106,-0.116l0.11,-0.114l0.112,-0.11l0.114,-0.108l0.117,-0.105l0.12,-0.103l0.122,-0.099l0.125,-0.097l0.127,-0.094l0.129,-0.091l0.132,-0.087l0.134,-0.085l0.136,-0.081l0.138,-0.079l0.141,-0.075l0.142,-0.072l0.145,-0.068l0.146,-0.065l0.149,-0.061l0.15,-0.058l0.152,-0.054l0.153,-0.051l0.156,-0.047l0.157,-0.043l0.158,-0.039l0.16,-0.035l0.161,-0.031l0.163,-0.028l0.164,-0.023l0.165,-0.019l0.166,-0.015l0.167,-0.011l0.167,-0.006l0.169,-0.002l0.169,0.002Zm-0.232,4.128l-0.062,0.002l-0.061,0.004l-0.061,0.006l-0.06,0.007l-0.059,0.008l-0.059,0.01l-0.059,0.011l-0.058,0.013l-0.057,0.014l-0.057,0.016l-0.056,0.017l-0.055,0.018l-0.056,0.02l-0.054,0.021l-0.054,0.022l-0.053,0.024l-0.053,0.025l-0.052,0.026l-0.052,0.027l-0.05,0.029l-0.051,0.03l-0.049,0.031l-0.049,0.033l-0.048,0.033l-0.047,0.035l-0.046,0.036l-0.046,0.037l-0.044,0.039l-0.044,0.039l-0.043,0.04l-0.042,0.042l-0.041,0.042l-0.04,0.044l-0.039,0.044l-0.038,0.046l-0.037,0.046l-0.036,0.048l-0.035,0.048l-0.033,0.049l-0.033,0.05l-0.031,0.05l-0.03,0.052l-0.029,0.052l-0.028,0.053l-0.026,0.054l-0.025,0.054l-0.024,0.055l-0.023,0.056l-0.021,0.056l-0.02,0.057l-0.018,0.058l-0.017,0.059l-0.016,0.059l-0.014,0.059l-0.013,0.06l-0.012,0.061l-0.01,0.062l-0.009,0.062l-0.007,0.062l-0.005,0.064l-0.004,0.063l-0.003,0.065l0,0.065l0,0.066l0.003,0.064l0.004,0.064l0.005,0.063l0.007,0.063l0.009,0.062l0.01,0.062l0.012,0.06l0.013,0.061l0.014,0.059l0.016,0.059l0.017,0.058l0.018,0.058l0.02,0.057l0.021,0.057l0.023,0.055l0.024,0.056l0.025,0.054l0.026,0.054l0.028,0.053l0.029,0.052l0.03,0.051l0.031,0.051l0.033,0.05l0.033,0.049l0.035,0.048l0.036,0.047l0.037,0.047l0.038,0.045l0.039,0.045l0.04,0.043l0.041,0.043l0.042,0.041l0.043,0.041l0.044,0.039l0.044,0.038l0.046,0.037l0.046,0.036l0.047,0.035l0.048,0.034l0.049,0.032l0.049,0.032l0.051,0.03l0.05,0.028l0.052,0.028l0.052,0.026l0.053,0.025l0.053,0.024l0.054,0.022l0.054,0.021l0.056,0.02l0.055,0.018l0.056,0.017l0.057,0.015l0.057,0.015l0.058,0.012l0.059,0.012l0.059,0.01l0.059,0.008l0.06,0.007l0.061,0.005l0.061,0.004l0.062,0.003l0.063,0.001l0.063,-0.001l0.062,-0.003l0.061,-0.004l0.061,-0.005l0.06,-0.007l0.059,-0.008l0.059,-0.01l0.059,-0.012l0.058,-0.012l0.057,-0.015l0.057,-0.015l0.056,-0.017l0.056,-0.018l0.055,-0.02l0.054,-0.021l0.054,-0.022l0.053,-0.024l0.053,-0.025l0.052,-0.026l0.052,-0.028l0.051,-0.028l0.05,-0.031l0.049,-0.031l0.049,-0.032l0.048,-0.034l0.047,-0.035l0.046,-0.036l0.046,-0.037l0.045,-0.038l0.043,-0.039l0.043,-0.041l0.042,-0.041l0.041,-0.043l0.04,-0.043l0.039,-0.045l0.038,-0.045l0.037,-0.046l0.036,-0.048l0.035,-0.048l0.033,-0.049l0.033,-0.05l0.031,-0.05l0.03,-0.052l0.029,-0.052l0.028,-0.053l0.026,-0.054l0.025,-0.054l0.024,-0.055l0.023,-0.056l0.021,-0.057l0.02,-0.057l0.018,-0.058l0.017,-0.058l0.016,-0.059l0.014,-0.059l0.013,-0.061l0.012,-0.06l0.01,-0.062l0.009,-0.062l0.007,-0.063l0.005,-0.063l0.004,-0.064l0.003,-0.064l0.001,-0.066l-0.001,-0.065l-0.003,-0.064l-0.004,-0.064l-0.005,-0.064l-0.007,-0.062l-0.009,-0.062l-0.01,-0.062l-0.012,-0.061l-0.013,-0.06l-0.014,-0.059l-0.016,-0.059l-0.017,-0.059l-0.018,-0.058l-0.02,-0.057l-0.021,-0.056l-0.023,-0.056l-0.024,-0.055l-0.025,-0.054l-0.026,-0.054l-0.028,-0.053l-0.029,-0.052l-0.03,-0.052l-0.031,-0.05l-0.033,-0.05l-0.033,-0.049l-0.035,-0.048l-0.036,-0.048l-0.037,-0.046l-0.038,-0.046l-0.039,-0.044l-0.04,-0.044l-0.041,-0.042l-0.042,-0.042l-0.043,-0.04l-0.043,-0.039l-0.045,-0.039l-0.046,-0.037l-0.046,-0.036l-0.047,-0.035l-0.048,-0.033l-0.049,-0.033l-0.049,-0.031l-0.05,-0.03l-0.051,-0.029l-0.052,-0.027l-0.052,-0.026l-0.053,-0.025l-0.053,-0.024l-0.054,-0.022l-0.054,-0.021l-0.055,-0.02l-0.056,-0.018l-0.056,-0.017l-0.057,-0.016l-0.057,-0.014l-0.058,-0.013l-0.059,-0.011l-0.059,-0.01l-0.059,-0.008l-0.06,-0.007l-0.061,-0.006l-0.061,-0.004l-0.062,-0.002l-0.063,-0.001l-0.063,0.001Z" fill="rgba(173,177,181,0.7)"></path>
                <rect class="pk-key" x="130" y="51.5" width="10.2" height="3" fill="rgba(173,177,181,0.7)"></rect>
                <rect class="pk-key" x="131.2" y="54.5" width="2" height="3" fill="rgba(173,177,181,0.7)"></rect>
                <rect class="pk-key" x="135" y="54.5" width="2" height="3" fill="rgba(173,177,181,0.7)"></rect>
          
        </g>
        <g class="joint-table-row-group" onmousedown="QdbdJS.onRowMouseDown()" onmousemove="QdbdJS.onRowMouseMove()" onmouseup="QdbdJS.onRowMouseUp(4)">
          <rect x="0" y="63" class="joint-table-row" width="180" height="25" stroke="none"></rect>
          
          
          <text x="0" y="85" class="joint-field-text" id="v-14517" pointer-events="none" fill="#333" font-size="12px">
            <tspan x="14" y="85" text-anchor="start" class="joint-field-name ">
              name
            </tspan>
            <tspan x="166" y="85" text-anchor="end" class="joint-field-type" fill="#adb1b5">
              string
            </tspan>
          </text>
          
          
        </g>
        <g class="joint-table-row-group" onmousedown="QdbdJS.onRowMouseDown()" onmousemove="QdbdJS.onRowMouseMove()" onmouseup="QdbdJS.onRowMouseUp(5)">
          <rect x="0" y="88" class="joint-table-row" width="180" height="25" stroke="none"></rect>
          
          
          <text x="0" y="110" class="joint-field-text" id="v-14518" pointer-events="none" fill="#333" font-size="12px">
            <tspan x="14" y="110" text-anchor="start" class="joint-field-name ">
              email
            </tspan>
            <tspan x="166" y="110" text-anchor="end" class="joint-field-type" fill="#adb1b5">
              string
            </tspan>
          </text>
          
          
        </g>
        <g class="joint-table-row-group" onmousedown="QdbdJS.onRowMouseDown()" onmousemove="QdbdJS.onRowMouseMove()" onmouseup="QdbdJS.onRowMouseUp(6)">
          <rect x="0" y="113" class="joint-table-row" width="180" height="25" stroke="none"></rect>
          
          
          <text x="0" y="135" class="joint-field-text" id="v-14519" pointer-events="none" fill="#333" font-size="12px">
            <tspan x="14" y="135" text-anchor="start" class="joint-field-name ">
              username
            </tspan>
            <tspan x="166" y="135" text-anchor="end" class="joint-field-type" fill="#adb1b5">
              string
            </tspan>
          </text>
          <path class="uniq-key" transform="matrix(0.39999999999999997, 0, 0, 0.39999999999999997, 102, 122)" d="M9.176,16.069l0.177,0.006l0.176,0.01l0.175,0.014l0.175,0.018l0.172,0.021l0.173,0.026l0.17,0.029l0.169,0.033l0.168,0.036l0.166,0.041l0.165,0.043l0.164,0.048l0.162,0.051l0.16,0.054l0.159,0.058l0.157,0.061l0.155,0.065l0.153,0.067l0.151,0.072l0.149,0.074l0.147,0.078l0.145,0.08l0.144,0.084l0.141,0.088l0.138,0.09l0.136,0.093l0.134,0.096l0.132,0.099l0.129,0.103l0.127,0.105l0.124,0.108l0.121,0.11l0.12,0.115l0.116,0.116l0.113,0.119l0.11,0.123l0.107,0.124l0.105,0.128l0.101,0.13l0.098,0.133l0.095,0.135l0.092,0.138l0.088,0.141l0.084,0.142l0.081,0.146l0.078,0.148l0.073,0.149l0.067,0.146l0.036,0.083l0.033,0.078l0.031,0.078l0.031,0.078l0.029,0.079l0.029,0.08l0.027,0.08l0.026,0.08l0.025,0.081l0.024,0.082l0.023,0.081l0.022,0.082l0.021,0.084l0.02,0.083l0.018,0.083l0.018,0.084l0.016,0.084l0.015,0.085l0.014,0.085l0.013,0.086l0.012,0.085l0.01,0.086l0.009,0.087l0.008,0.086l0.007,0.087l0.006,0.087l0.004,0.087l0.003,0.088l0.002,0.088l0.001,0.088l-0.001,0.087l-0.002,0.088l-0.003,0.088l-0.004,0.088l-0.006,0.087l-0.007,0.086l-0.008,0.086l-0.009,0.087l-0.01,0.086l-0.012,0.086l-0.013,0.085l-0.014,0.085l-0.015,0.085l-0.016,0.085l-0.018,0.083l-0.018,0.083l-0.02,0.084l-0.021,0.083l-0.022,0.082l-0.023,0.081l-0.024,0.082l-0.025,0.081l-0.026,0.08l-0.027,0.08l-0.029,0.08l-0.029,0.079l-0.031,0.078l-0.031,0.078l-0.033,0.078l-0.036,0.083l-0.067,0.146l-0.073,0.15l-0.078,0.147l-0.081,0.146l-0.084,0.143l-0.088,0.14l-0.092,0.138l-0.095,0.135l-0.098,0.133l-0.101,0.13l-0.105,0.128l-0.107,0.125l-0.11,0.122l-0.113,0.119l-0.116,0.117l-0.12,0.114l-0.121,0.111l-0.124,0.108l-0.127,0.105l-0.129,0.102l-0.132,0.099l-0.134,0.096l-0.136,0.094l-0.138,0.089l-0.141,0.088l-0.144,0.084l-0.145,0.081l-0.147,0.077l-0.149,0.075l-0.151,0.071l-0.153,0.068l-0.155,0.064l-0.157,0.061l-0.159,0.058l-0.16,0.055l-0.162,0.051l-0.164,0.047l-0.164,0.044l-0.167,0.04l-0.168,0.037l-0.169,0.032l-0.17,0.029l-0.173,0.026l-0.172,0.021l-0.175,0.018l-0.175,0.014l-0.176,0.01l-0.177,0.006l-0.178,0.002l-0.177,-0.002l-0.178,-0.006l-0.176,-0.01l-0.175,-0.014l-0.174,-0.018l-0.173,-0.021l-0.172,-0.026l-0.171,-0.029l-0.168,-0.032l-0.169,-0.037l-0.166,-0.04l-0.165,-0.044l-0.164,-0.047l-0.162,-0.051l-0.16,-0.055l-0.158,-0.058l-0.157,-0.061l-0.155,-0.064l-0.153,-0.068l-0.151,-0.071l-0.15,-0.075l-0.147,-0.077l-0.145,-0.081l-0.143,-0.084l-0.141,-0.087l-0.139,-0.09l-0.136,-0.094l-0.134,-0.096l-0.132,-0.099l-0.129,-0.102l-0.127,-0.105l-0.124,-0.108l-0.121,-0.111l-0.119,-0.114l-0.116,-0.117l-0.113,-0.119l-0.111,-0.122l-0.107,-0.125l-0.104,-0.127l-0.102,-0.131l-0.098,-0.133l-0.095,-0.135l-0.091,-0.138l-0.088,-0.14l-0.085,-0.143l-0.081,-0.146l-0.077,-0.147l-0.074,-0.15l-0.067,-0.146l-0.036,-0.083l-0.032,-0.077l-0.032,-0.079l-0.03,-0.078l-0.03,-0.079l-0.028,-0.079l-0.027,-0.08l-0.027,-0.081l-0.025,-0.081l-0.024,-0.082l-0.023,-0.081l-0.022,-0.082l-0.021,-0.083l-0.02,-0.083l-0.018,-0.084l-0.018,-0.084l-0.016,-0.084l-0.015,-0.085l-0.014,-0.085l-0.013,-0.085l-0.011,-0.086l-0.011,-0.086l-0.009,-0.086l-0.008,-0.086l-0.007,-0.088l-0.006,-0.087l-0.004,-0.087l-0.003,-0.087l-0.002,-0.088l-0.001,-0.088l0.001,-0.089l0.002,-0.087l0.003,-0.088l0.004,-0.087l0.006,-0.087l0.007,-0.087l0.008,-0.087l0.009,-0.086l0.011,-0.086l0.011,-0.085l0.013,-0.086l0.014,-0.085l0.015,-0.085l0.016,-0.084l0.018,-0.084l0.018,-0.083l0.02,-0.083l0.021,-0.083l0.022,-0.083l0.023,-0.081l0.024,-0.082l0.025,-0.081l0.027,-0.081l0.027,-0.079l0.028,-0.08l0.03,-0.079l0.03,-0.078l0.032,-0.078l0.032,-0.078l0.036,-0.083l0.067,-0.146l0.074,-0.15l0.077,-0.147l0.081,-0.146l0.085,-0.142l0.088,-0.141l0.091,-0.138l0.095,-0.135l0.098,-0.133l0.102,-0.13l0.104,-0.128l0.107,-0.124l0.111,-0.123l0.113,-0.119l0.116,-0.116l0.119,-0.114l0.121,-0.111l0.124,-0.108l0.127,-0.105l0.129,-0.103l0.132,-0.099l0.134,-0.096l0.136,-0.093l0.139,-0.09l0.141,-0.088l0.143,-0.084l0.145,-0.08l0.147,-0.078l0.15,-0.074l0.151,-0.072l0.153,-0.067l0.155,-0.065l0.157,-0.061l0.158,-0.058l0.16,-0.054l0.162,-0.051l0.164,-0.048l0.165,-0.044l0.166,-0.04l0.168,-0.036l0.169,-0.033l0.171,-0.029l0.172,-0.026l0.173,-0.021l0.174,-0.018l0.175,-0.014l0.176,-0.01l0.177,-0.006l0.178,-0.002l0.178,0.002Zm-0.262,4.128l-0.084,0.003l-0.084,0.005l-0.082,0.006l-0.081,0.009l-0.08,0.01l-0.08,0.012l-0.079,0.013l-0.078,0.015l-0.077,0.017l-0.076,0.018l-0.075,0.02l-0.074,0.022l-0.073,0.023l-0.072,0.024l-0.072,0.026l-0.07,0.027l-0.069,0.029l-0.067,0.03l-0.067,0.032l-0.065,0.032l-0.065,0.034l-0.063,0.035l-0.061,0.036l-0.06,0.038l-0.06,0.038l-0.058,0.04l-0.056,0.04l-0.055,0.042l-0.053,0.042l-0.052,0.043l-0.051,0.044l-0.049,0.045l-0.048,0.045l-0.046,0.047l-0.045,0.047l-0.042,0.047l-0.042,0.049l-0.04,0.049l-0.038,0.049l-0.037,0.049l-0.035,0.051l-0.034,0.05l-0.032,0.051l-0.03,0.052l-0.029,0.051l-0.027,0.052l-0.026,0.052l-0.027,0.059l-0.008,0.02l-0.012,0.027l-0.01,0.026l-0.01,0.027l-0.01,0.026l-0.01,0.027l-0.009,0.027l-0.009,0.027l-0.008,0.027l-0.008,0.026l-0.008,0.028l-0.007,0.027l-0.007,0.027l-0.006,0.027l-0.006,0.028l-0.006,0.027l-0.006,0.028l-0.004,0.027l-0.005,0.028l-0.004,0.028l-0.004,0.028l-0.003,0.028l-0.003,0.029l-0.003,0.028l-0.002,0.028l-0.002,0.028l-0.002,0.029l-0.001,0.03l0,0.029l0,0.029l0,0.028l0,0.03l0.001,0.029l0.002,0.029l0.002,0.028l0.002,0.028l0.003,0.029l0.003,0.028l0.003,0.028l0.004,0.028l0.004,0.028l0.005,0.028l0.005,0.028l0.005,0.027l0.006,0.027l0.006,0.028l0.006,0.027l0.007,0.027l0.007,0.028l0.008,0.027l0.008,0.027l0.008,0.026l0.009,0.027l0.009,0.027l0.01,0.027l0.01,0.027l0.01,0.026l0.01,0.026l0.012,0.027l0.008,0.02l0.027,0.059l0.026,0.052l0.027,0.052l0.029,0.052l0.03,0.051l0.032,0.051l0.034,0.051l0.035,0.05l0.037,0.05l0.038,0.049l0.04,0.049l0.042,0.048l0.042,0.047l0.045,0.047l0.046,0.047l0.048,0.045l0.049,0.045l0.051,0.044l0.052,0.044l0.053,0.042l0.055,0.041l0.056,0.041l0.058,0.039l0.06,0.039l0.06,0.037l0.061,0.036l0.063,0.035l0.065,0.034l0.065,0.033l0.067,0.031l0.067,0.03l0.069,0.029l0.07,0.027l0.072,0.026l0.072,0.025l0.073,0.023l0.074,0.021l0.075,0.02l0.076,0.018l0.077,0.017l0.078,0.015l0.079,0.014l0.08,0.011l0.08,0.011l0.081,0.008l0.083,0.006l0.083,0.005l0.083,0.003l0.085,0.001l0.085,-0.001l0.083,-0.003l0.083,-0.005l0.083,-0.006l0.081,-0.008l0.081,-0.011l0.079,-0.011l0.079,-0.014l0.079,-0.015l0.076,-0.017l0.076,-0.018l0.076,-0.02l0.074,-0.022l0.072,-0.022l0.073,-0.025l0.071,-0.026l0.07,-0.027l0.069,-0.029l0.068,-0.03l0.066,-0.031l0.066,-0.033l0.064,-0.034l0.063,-0.035l0.062,-0.036l0.06,-0.037l0.059,-0.039l0.058,-0.039l0.056,-0.041l0.055,-0.041l0.054,-0.043l0.052,-0.043l0.05,-0.044l0.05,-0.045l0.047,-0.045l0.046,-0.047l0.045,-0.046l0.043,-0.048l0.041,-0.048l0.04,-0.049l0.038,-0.049l0.037,-0.05l0.035,-0.05l0.034,-0.051l0.032,-0.051l0.03,-0.052l0.029,-0.051l0.027,-0.051l0.026,-0.053l0.027,-0.059l0.009,-0.02l0.011,-0.026l0.01,-0.027l0.011,-0.027l0.01,-0.026l0.009,-0.026l0.009,-0.027l0.009,-0.028l0.008,-0.026l0.008,-0.027l0.008,-0.027l0.007,-0.028l0.007,-0.027l0.006,-0.026l0.007,-0.029l0.006,-0.027l0.005,-0.027l0.005,-0.028l0.004,-0.028l0.004,-0.028l0.004,-0.028l0.004,-0.028l0.003,-0.028l0.002,-0.028l0.003,-0.029l0.001,-0.029l0.002,-0.028l0.001,-0.029l0,-0.029l0.001,-0.029l-0.001,-0.03l0,-0.029l-0.001,-0.029l-0.002,-0.028l-0.001,-0.029l-0.003,-0.029l-0.002,-0.028l-0.003,-0.028l-0.004,-0.028l-0.004,-0.028l-0.004,-0.028l-0.004,-0.028l-0.005,-0.027l-0.005,-0.027l-0.006,-0.028l-0.007,-0.028l-0.006,-0.027l-0.007,-0.026l-0.007,-0.028l-0.008,-0.028l-0.008,-0.026l-0.008,-0.027l-0.009,-0.027l-0.009,-0.027l-0.009,-0.027l-0.01,-0.026l-0.011,-0.027l-0.01,-0.027l-0.011,-0.026l-0.009,-0.02l-0.027,-0.059l-0.026,-0.052l-0.027,-0.052l-0.029,-0.051l-0.03,-0.052l-0.032,-0.051l-0.034,-0.051l-0.035,-0.05l-0.037,-0.049l-0.038,-0.05l-0.04,-0.048l-0.041,-0.049l-0.043,-0.047l-0.045,-0.047l-0.046,-0.047l-0.047,-0.045l-0.05,-0.045l-0.05,-0.044l-0.052,-0.043l-0.054,-0.043l-0.055,-0.041l-0.056,-0.04l-0.058,-0.04l-0.059,-0.039l-0.06,-0.037l-0.062,-0.036l-0.063,-0.035l-0.064,-0.034l-0.066,-0.032l-0.066,-0.032l-0.068,-0.03l-0.069,-0.029l-0.07,-0.027l-0.071,-0.026l-0.073,-0.024l-0.072,-0.023l-0.074,-0.022l-0.075,-0.02l-0.077,-0.018l-0.077,-0.017l-0.078,-0.015l-0.079,-0.013l-0.079,-0.012l-0.081,-0.01l-0.081,-0.009l-0.082,-0.006l-0.084,-0.005l-0.083,-0.003l-0.085,-0.001l-0.084,0.001Z" fill="rgba(173,177,181,0.7)" stroke="rgba(173, 177, 181, 0.7)" stroke-width="2px"></path>
                <path class="uniq-key" transform="matrix(0.39999999999999997, 0, 0, 0.39999999999999997, 102, 122)" d="M9.025,5.185c0,3.699 0,7.398 0,11.097" fill="rgba(173,177,181,0.7)" stroke="rgba(173, 177, 181, 0.7)" stroke-width="2px"></path>
                <path class="uniq-key" transform="matrix(0.39999999999999997, 0, 0, 0.39999999999999997, 102, 122)" d="M7.263,16.899c0,-4.345 0,-8.69 0,-13.035" fill="rgba(173,177,181,0.7)" stroke="rgba(173, 177, 181, 0.7)" stroke-width="2px"></path>
                <path class="uniq-key" transform="matrix(0.39999999999999997, 0, 0, 0.39999999999999997, 102, 122)" d="M10.962,3.864c0,3.948 0,8.116 0,12.154" fill="rgba(173,177,181,0.7)" stroke="rgba(173, 177, 181, 0.7)" stroke-width="2px"></path>
                <path class="uniq-key" transform="matrix(0.39999999999999997, 0, 0, 0.39999999999999997, 102, 122)" d="M13.252,6.066c-0.117,0 -0.235,0 -0.352,0" fill="rgba(173,177,181,0.7)" stroke="rgba(173, 177, 181, 0.7)" stroke-width="2px"></path>
                <path class="uniq-key" transform="matrix(0.39999999999999997, 0, 0, 0.39999999999999997, 102, 122)" d="M13.428,9.853c-0.293,0 -0.587,0 -0.88,0" fill="rgba(173,177,181,0.7)" stroke="rgba(173, 177, 181, 0.7)" stroke-width="2px"></path>
                <path class="uniq-key" transform="matrix(0.39999999999999997, 0, 0, 0.39999999999999997, 102, 122)" d="M13.605,14.08c-0.5,0 -0.999,0 -1.498,0" fill="rgba(173,177,181,0.7)" stroke="rgba(173, 177, 181, 0.7)" stroke-width="2px"></path>
                <path class="uniq-key" transform="matrix(0.39999999999999997, 0, 0, 0.39999999999999997, 102, 122)" d="M8.937,1.926c0,0.44 0,0.881 0,1.321" fill="rgba(173,177,181,0.7)" stroke="rgba(173, 177, 181, 0.7)" stroke-width="2px"></path>
          
        </g>
        <g class="joint-table-row-group" onmousedown="QdbdJS.onRowMouseDown()" onmousemove="QdbdJS.onRowMouseMove()" onmouseup="QdbdJS.onRowMouseUp(7)">
          <rect x="0" y="138" class="joint-table-row" width="180" height="25" stroke="none"></rect>
          
          
          <text x="0" y="160" class="joint-field-text" id="v-14520" pointer-events="none" fill="#333" font-size="12px">
            <tspan x="14" y="160" text-anchor="start" class="joint-field-name ">
              password
            </tspan>
            <tspan x="166" y="160" text-anchor="end" class="joint-field-type" fill="#adb1b5">
              string
            </tspan>
          </text>
          
          
        </g>
        <g class="joint-table-row-group" onmousedown="QdbdJS.onRowMouseDown()" onmousemove="QdbdJS.onRowMouseMove()" onmouseup="QdbdJS.onRowMouseUp(8)">
          <rect x="0" y="163" class="joint-table-row" width="180" height="31" stroke="none"></rect>
          
          
          <text x="0" y="185" class="joint-field-text" id="v-14521" pointer-events="none" fill="#333" font-size="12px">
            <tspan x="14" y="185" text-anchor="start" class="joint-field-name fk" fill="#222" font-weight="bold">
              user_type_id
            </tspan>
            <tspan x="166" y="185" text-anchor="end" class="joint-field-type" fill="#adb1b5">
              int
            </tspan>
          </text>
          
          
        <rect x="0" y="194" class="joint-table-row" width="180" height="6" stroke="none"></rect>
        
        </g>
          </g>
        </g></g><g id="j_1086" model-id="f4a90035-b85a-4fc6-be62-9df3f57b78d8" class="element basic newt joint-theme-default" magnet="false" fill="#ffffff" stroke="none" transform="translate(64,21)" font-family="Roboto,'Helvetica Neue', sans-serif"><g class="joint-table" onmousedown="QdbdJS.onTableMouseDown(this)" onmouseup="QdbdJS.onTableMouseUp(this)" id="v-14523">
          <rect x="0" y="0" width="130" height="38" class="joint-table-title" onmousedown="QdbdJS.onRowMouseDown()" onmousemove="QdbdJS.onRowMouseMove()" onmouseup="QdbdJS.onRowMouseUp(11)" fill="#005aa0" stroke="#005aa0"></rect>
          <text x="14" y="24" text-anchor="start" class="joint-table-title-text" id="v-14528" pointer-events="none" font-size="14px">User_types</text>
          <g class="joint-table-rows">
            
        <g class="joint-table-row-group" onmousedown="QdbdJS.onRowMouseDown()" onmousemove="QdbdJS.onRowMouseMove()" onmouseup="QdbdJS.onRowMouseUp(13)">
          <rect x="0" y="38" class="joint-table-row" width="130" height="25" stroke="none"></rect>
          
          
          <text x="0" y="60" class="joint-field-text" id="v-14529" pointer-events="none" fill="#333" font-size="12px">
            <tspan x="14" y="60" text-anchor="start" class="joint-field-name pk" fill="#005aa0" font-weight="bold">
              id
            </tspan>
            <tspan x="116" y="60" text-anchor="end" class="joint-field-type" fill="#adb1b5">
              int
            </tspan>
          </text>
          <path class="pk-key" transform="matrix(0.7, 0, 0, 0.7, 79, 47)" d="M22.208,2.205l0.167,0.006l0.167,0.011l0.166,0.015l0.165,0.019l0.164,0.023l0.163,0.028l0.161,0.031l0.16,0.035l0.158,0.039l0.157,0.043l0.156,0.047l0.153,0.051l0.152,0.054l0.151,0.058l0.148,0.061l0.146,0.065l0.145,0.068l0.142,0.072l0.141,0.075l0.138,0.078l0.136,0.082l0.134,0.085l0.132,0.087l0.129,0.091l0.127,0.094l0.125,0.097l0.122,0.099l0.12,0.103l0.117,0.105l0.114,0.108l0.112,0.11l0.11,0.114l0.106,0.116l0.104,0.118l0.101,0.121l0.098,0.123l0.096,0.126l0.092,0.128l0.089,0.13l0.087,0.133l0.083,0.135l0.08,0.137l0.077,0.139l0.074,0.141l0.07,0.144l0.067,0.145l0.064,0.147l0.06,0.149l0.056,0.151l0.053,0.152l0.05,0.154l0.046,0.156l0.042,0.157l0.038,0.159l0.035,0.16l0.03,0.162l0.027,0.162l0.023,0.164l0.018,0.165l0.015,0.167l0.01,0.167l0.007,0.168l0.002,0.168l-0.002,0.169l-0.007,0.168l-0.01,0.167l-0.015,0.166l-0.018,0.166l-0.023,0.163l-0.027,0.163l-0.03,0.162l-0.035,0.16l-0.038,0.159l-0.042,0.157l-0.046,0.156l-0.05,0.154l-0.053,0.152l-0.056,0.151l-0.06,0.149l-0.064,0.147l-0.067,0.145l-0.07,0.143l-0.074,0.142l-0.077,0.139l-0.08,0.137l-0.083,0.135l-0.087,0.132l-0.089,0.131l-0.092,0.128l-0.096,0.125l-0.098,0.124l-0.101,0.121l-0.104,0.118l-0.106,0.116l-0.11,0.113l-0.112,0.111l-0.114,0.108l-0.117,0.105l-0.12,0.103l-0.122,0.099l-0.125,0.097l-0.127,0.094l-0.129,0.09l-0.132,0.088l-0.134,0.085l-0.136,0.081l-0.138,0.078l-0.141,0.076l-0.142,0.071l-0.145,0.069l-0.146,0.064l-0.148,0.062l-0.151,0.058l-0.152,0.054l-0.153,0.05l-0.156,0.047l-0.157,0.043l-0.158,0.039l-0.16,0.036l-0.161,0.031l-0.163,0.027l-0.164,0.024l-0.165,0.019l-0.166,0.015l-0.167,0.01l-0.167,0.007l-0.169,0.002l-0.168,-0.002l-0.168,-0.007l-0.167,-0.01l-0.166,-0.015l-0.165,-0.019l-0.164,-0.024l-0.163,-0.027l-0.161,-0.031l-0.16,-0.036l-0.158,-0.039l-0.157,-0.043l-0.156,-0.047l-0.153,-0.05l-0.152,-0.054l-0.15,-0.058l-0.149,-0.062l-0.146,-0.064l-0.145,-0.069l-0.142,-0.071l-0.141,-0.076l-0.138,-0.078l-0.136,-0.081l-0.134,-0.085l-0.132,-0.088l-0.129,-0.09l-0.127,-0.094l-0.125,-0.097l-0.122,-0.099l-0.12,-0.103l-0.117,-0.105l-0.114,-0.108l-0.112,-0.111l-0.11,-0.113l-0.106,-0.116l-0.104,-0.118l-0.101,-0.121l-0.098,-0.123l-0.096,-0.126l-0.092,-0.128l-0.089,-0.131l-0.087,-0.132l-0.083,-0.135l-0.08,-0.137l-0.077,-0.139l-0.073,-0.142l-0.071,-0.143l-0.067,-0.145l-0.063,-0.147l-0.061,-0.149l-0.056,-0.151l-0.053,-0.152l-0.05,-0.154l-0.046,-0.156l-0.042,-0.157l-0.038,-0.159l-0.035,-0.16l-0.03,-0.162l-0.027,-0.163l-0.023,-0.164l-0.018,-0.165l-0.015,-0.166l-0.01,-0.167l-0.007,-0.168l-0.002,-0.169l0.002,-0.168l0.007,-0.168l0.01,-0.167l0.015,-0.167l0.018,-0.165l0.023,-0.164l0.027,-0.162l0.03,-0.162l0.035,-0.16l0.038,-0.159l0.042,-0.157l0.046,-0.156l0.05,-0.154l0.053,-0.152l0.056,-0.151l0.061,-0.149l0.063,-0.147l0.067,-0.145l0.071,-0.144l0.073,-0.141l0.077,-0.139l0.08,-0.137l0.083,-0.135l0.087,-0.133l0.089,-0.13l0.092,-0.128l0.096,-0.126l0.098,-0.123l0.101,-0.121l0.104,-0.118l0.106,-0.116l0.11,-0.114l0.112,-0.11l0.114,-0.108l0.117,-0.105l0.12,-0.103l0.122,-0.099l0.125,-0.097l0.127,-0.094l0.129,-0.091l0.132,-0.087l0.134,-0.085l0.136,-0.081l0.138,-0.079l0.141,-0.075l0.142,-0.072l0.145,-0.068l0.146,-0.065l0.149,-0.061l0.15,-0.058l0.152,-0.054l0.153,-0.051l0.156,-0.047l0.157,-0.043l0.158,-0.039l0.16,-0.035l0.161,-0.031l0.163,-0.028l0.164,-0.023l0.165,-0.019l0.166,-0.015l0.167,-0.011l0.167,-0.006l0.169,-0.002l0.169,0.002Zm-0.232,4.128l-0.062,0.002l-0.061,0.004l-0.061,0.006l-0.06,0.007l-0.059,0.008l-0.059,0.01l-0.059,0.011l-0.058,0.013l-0.057,0.014l-0.057,0.016l-0.056,0.017l-0.055,0.018l-0.056,0.02l-0.054,0.021l-0.054,0.022l-0.053,0.024l-0.053,0.025l-0.052,0.026l-0.052,0.027l-0.05,0.029l-0.051,0.03l-0.049,0.031l-0.049,0.033l-0.048,0.033l-0.047,0.035l-0.046,0.036l-0.046,0.037l-0.044,0.039l-0.044,0.039l-0.043,0.04l-0.042,0.042l-0.041,0.042l-0.04,0.044l-0.039,0.044l-0.038,0.046l-0.037,0.046l-0.036,0.048l-0.035,0.048l-0.033,0.049l-0.033,0.05l-0.031,0.05l-0.03,0.052l-0.029,0.052l-0.028,0.053l-0.026,0.054l-0.025,0.054l-0.024,0.055l-0.023,0.056l-0.021,0.056l-0.02,0.057l-0.018,0.058l-0.017,0.059l-0.016,0.059l-0.014,0.059l-0.013,0.06l-0.012,0.061l-0.01,0.062l-0.009,0.062l-0.007,0.062l-0.005,0.064l-0.004,0.063l-0.003,0.065l0,0.065l0,0.066l0.003,0.064l0.004,0.064l0.005,0.063l0.007,0.063l0.009,0.062l0.01,0.062l0.012,0.06l0.013,0.061l0.014,0.059l0.016,0.059l0.017,0.058l0.018,0.058l0.02,0.057l0.021,0.057l0.023,0.055l0.024,0.056l0.025,0.054l0.026,0.054l0.028,0.053l0.029,0.052l0.03,0.051l0.031,0.051l0.033,0.05l0.033,0.049l0.035,0.048l0.036,0.047l0.037,0.047l0.038,0.045l0.039,0.045l0.04,0.043l0.041,0.043l0.042,0.041l0.043,0.041l0.044,0.039l0.044,0.038l0.046,0.037l0.046,0.036l0.047,0.035l0.048,0.034l0.049,0.032l0.049,0.032l0.051,0.03l0.05,0.028l0.052,0.028l0.052,0.026l0.053,0.025l0.053,0.024l0.054,0.022l0.054,0.021l0.056,0.02l0.055,0.018l0.056,0.017l0.057,0.015l0.057,0.015l0.058,0.012l0.059,0.012l0.059,0.01l0.059,0.008l0.06,0.007l0.061,0.005l0.061,0.004l0.062,0.003l0.063,0.001l0.063,-0.001l0.062,-0.003l0.061,-0.004l0.061,-0.005l0.06,-0.007l0.059,-0.008l0.059,-0.01l0.059,-0.012l0.058,-0.012l0.057,-0.015l0.057,-0.015l0.056,-0.017l0.056,-0.018l0.055,-0.02l0.054,-0.021l0.054,-0.022l0.053,-0.024l0.053,-0.025l0.052,-0.026l0.052,-0.028l0.051,-0.028l0.05,-0.031l0.049,-0.031l0.049,-0.032l0.048,-0.034l0.047,-0.035l0.046,-0.036l0.046,-0.037l0.045,-0.038l0.043,-0.039l0.043,-0.041l0.042,-0.041l0.041,-0.043l0.04,-0.043l0.039,-0.045l0.038,-0.045l0.037,-0.046l0.036,-0.048l0.035,-0.048l0.033,-0.049l0.033,-0.05l0.031,-0.05l0.03,-0.052l0.029,-0.052l0.028,-0.053l0.026,-0.054l0.025,-0.054l0.024,-0.055l0.023,-0.056l0.021,-0.057l0.02,-0.057l0.018,-0.058l0.017,-0.058l0.016,-0.059l0.014,-0.059l0.013,-0.061l0.012,-0.06l0.01,-0.062l0.009,-0.062l0.007,-0.063l0.005,-0.063l0.004,-0.064l0.003,-0.064l0.001,-0.066l-0.001,-0.065l-0.003,-0.064l-0.004,-0.064l-0.005,-0.064l-0.007,-0.062l-0.009,-0.062l-0.01,-0.062l-0.012,-0.061l-0.013,-0.06l-0.014,-0.059l-0.016,-0.059l-0.017,-0.059l-0.018,-0.058l-0.02,-0.057l-0.021,-0.056l-0.023,-0.056l-0.024,-0.055l-0.025,-0.054l-0.026,-0.054l-0.028,-0.053l-0.029,-0.052l-0.03,-0.052l-0.031,-0.05l-0.033,-0.05l-0.033,-0.049l-0.035,-0.048l-0.036,-0.048l-0.037,-0.046l-0.038,-0.046l-0.039,-0.044l-0.04,-0.044l-0.041,-0.042l-0.042,-0.042l-0.043,-0.04l-0.043,-0.039l-0.045,-0.039l-0.046,-0.037l-0.046,-0.036l-0.047,-0.035l-0.048,-0.033l-0.049,-0.033l-0.049,-0.031l-0.05,-0.03l-0.051,-0.029l-0.052,-0.027l-0.052,-0.026l-0.053,-0.025l-0.053,-0.024l-0.054,-0.022l-0.054,-0.021l-0.055,-0.02l-0.056,-0.018l-0.056,-0.017l-0.057,-0.016l-0.057,-0.014l-0.058,-0.013l-0.059,-0.011l-0.059,-0.01l-0.059,-0.008l-0.06,-0.007l-0.061,-0.006l-0.061,-0.004l-0.062,-0.002l-0.063,-0.001l-0.063,0.001Z" fill="rgba(173,177,181,0.7)"></path>
                <rect class="pk-key" x="80" y="51.5" width="10.2" height="3" fill="rgba(173,177,181,0.7)"></rect>
                <rect class="pk-key" x="81.2" y="54.5" width="2" height="3" fill="rgba(173,177,181,0.7)"></rect>
                <rect class="pk-key" x="85" y="54.5" width="2" height="3" fill="rgba(173,177,181,0.7)"></rect>
          
        </g>
        <g class="joint-table-row-group" onmousedown="QdbdJS.onRowMouseDown()" onmousemove="QdbdJS.onRowMouseMove()" onmouseup="QdbdJS.onRowMouseUp(14)">
          <rect x="0" y="63" class="joint-table-row" width="130" height="31" stroke="none"></rect>
          
          
          <text x="0" y="85" class="joint-field-text" id="v-14530" pointer-events="none" fill="#333" font-size="12px">
            <tspan x="14" y="85" text-anchor="start" class="joint-field-name ">
              name
            </tspan>
            <tspan x="116" y="85" text-anchor="end" class="joint-field-type" fill="#adb1b5">
              string
            </tspan>
          </text>
          
          
        <rect x="0" y="94" class="joint-table-row" width="130" height="6" stroke="none"></rect>
        
        </g>
          </g>
        </g></g><g id="j_1087" model-id="4d030217-00de-4622-bd43-103acefa4ee4" class="element basic newt joint-theme-default" magnet="false" fill="#ffffff" stroke="none" transform="translate(352,43)" font-family="Roboto,'Helvetica Neue', sans-serif"><g class="joint-table" onmousedown="QdbdJS.onTableMouseDown(this)" onmouseup="QdbdJS.onTableMouseUp(this)" id="v-14532">
          <rect x="0" y="0" width="99" height="38" class="joint-table-title" onmousedown="QdbdJS.onRowMouseDown()" onmousemove="QdbdJS.onRowMouseMove()" onmouseup="QdbdJS.onRowMouseUp(17)" fill="#005aa0" stroke="#005aa0"></rect>
          <text x="14" y="24" text-anchor="start" class="joint-table-title-text" id="v-14537" pointer-events="none" font-size="14px">Roles</text>
          <g class="joint-table-rows">
            
        <g class="joint-table-row-group" onmousedown="QdbdJS.onRowMouseDown()" onmousemove="QdbdJS.onRowMouseMove()" onmouseup="QdbdJS.onRowMouseUp(19)">
          <rect x="0" y="38" class="joint-table-row" width="99" height="25" stroke="none"></rect>
          
          
          <text x="0" y="60" class="joint-field-text" id="v-14538" pointer-events="none" fill="#333" font-size="12px">
            <tspan x="14" y="60" text-anchor="start" class="joint-field-name pk" fill="#005aa0" font-weight="bold">
              id
            </tspan>
            <tspan x="85" y="60" text-anchor="end" class="joint-field-type" fill="#adb1b5">
              int
            </tspan>
          </text>
          <path class="pk-key" transform="matrix(0.7, 0, 0, 0.7, 48, 47)" d="M22.208,2.205l0.167,0.006l0.167,0.011l0.166,0.015l0.165,0.019l0.164,0.023l0.163,0.028l0.161,0.031l0.16,0.035l0.158,0.039l0.157,0.043l0.156,0.047l0.153,0.051l0.152,0.054l0.151,0.058l0.148,0.061l0.146,0.065l0.145,0.068l0.142,0.072l0.141,0.075l0.138,0.078l0.136,0.082l0.134,0.085l0.132,0.087l0.129,0.091l0.127,0.094l0.125,0.097l0.122,0.099l0.12,0.103l0.117,0.105l0.114,0.108l0.112,0.11l0.11,0.114l0.106,0.116l0.104,0.118l0.101,0.121l0.098,0.123l0.096,0.126l0.092,0.128l0.089,0.13l0.087,0.133l0.083,0.135l0.08,0.137l0.077,0.139l0.074,0.141l0.07,0.144l0.067,0.145l0.064,0.147l0.06,0.149l0.056,0.151l0.053,0.152l0.05,0.154l0.046,0.156l0.042,0.157l0.038,0.159l0.035,0.16l0.03,0.162l0.027,0.162l0.023,0.164l0.018,0.165l0.015,0.167l0.01,0.167l0.007,0.168l0.002,0.168l-0.002,0.169l-0.007,0.168l-0.01,0.167l-0.015,0.166l-0.018,0.166l-0.023,0.163l-0.027,0.163l-0.03,0.162l-0.035,0.16l-0.038,0.159l-0.042,0.157l-0.046,0.156l-0.05,0.154l-0.053,0.152l-0.056,0.151l-0.06,0.149l-0.064,0.147l-0.067,0.145l-0.07,0.143l-0.074,0.142l-0.077,0.139l-0.08,0.137l-0.083,0.135l-0.087,0.132l-0.089,0.131l-0.092,0.128l-0.096,0.125l-0.098,0.124l-0.101,0.121l-0.104,0.118l-0.106,0.116l-0.11,0.113l-0.112,0.111l-0.114,0.108l-0.117,0.105l-0.12,0.103l-0.122,0.099l-0.125,0.097l-0.127,0.094l-0.129,0.09l-0.132,0.088l-0.134,0.085l-0.136,0.081l-0.138,0.078l-0.141,0.076l-0.142,0.071l-0.145,0.069l-0.146,0.064l-0.148,0.062l-0.151,0.058l-0.152,0.054l-0.153,0.05l-0.156,0.047l-0.157,0.043l-0.158,0.039l-0.16,0.036l-0.161,0.031l-0.163,0.027l-0.164,0.024l-0.165,0.019l-0.166,0.015l-0.167,0.01l-0.167,0.007l-0.169,0.002l-0.168,-0.002l-0.168,-0.007l-0.167,-0.01l-0.166,-0.015l-0.165,-0.019l-0.164,-0.024l-0.163,-0.027l-0.161,-0.031l-0.16,-0.036l-0.158,-0.039l-0.157,-0.043l-0.156,-0.047l-0.153,-0.05l-0.152,-0.054l-0.15,-0.058l-0.149,-0.062l-0.146,-0.064l-0.145,-0.069l-0.142,-0.071l-0.141,-0.076l-0.138,-0.078l-0.136,-0.081l-0.134,-0.085l-0.132,-0.088l-0.129,-0.09l-0.127,-0.094l-0.125,-0.097l-0.122,-0.099l-0.12,-0.103l-0.117,-0.105l-0.114,-0.108l-0.112,-0.111l-0.11,-0.113l-0.106,-0.116l-0.104,-0.118l-0.101,-0.121l-0.098,-0.123l-0.096,-0.126l-0.092,-0.128l-0.089,-0.131l-0.087,-0.132l-0.083,-0.135l-0.08,-0.137l-0.077,-0.139l-0.073,-0.142l-0.071,-0.143l-0.067,-0.145l-0.063,-0.147l-0.061,-0.149l-0.056,-0.151l-0.053,-0.152l-0.05,-0.154l-0.046,-0.156l-0.042,-0.157l-0.038,-0.159l-0.035,-0.16l-0.03,-0.162l-0.027,-0.163l-0.023,-0.164l-0.018,-0.165l-0.015,-0.166l-0.01,-0.167l-0.007,-0.168l-0.002,-0.169l0.002,-0.168l0.007,-0.168l0.01,-0.167l0.015,-0.167l0.018,-0.165l0.023,-0.164l0.027,-0.162l0.03,-0.162l0.035,-0.16l0.038,-0.159l0.042,-0.157l0.046,-0.156l0.05,-0.154l0.053,-0.152l0.056,-0.151l0.061,-0.149l0.063,-0.147l0.067,-0.145l0.071,-0.144l0.073,-0.141l0.077,-0.139l0.08,-0.137l0.083,-0.135l0.087,-0.133l0.089,-0.13l0.092,-0.128l0.096,-0.126l0.098,-0.123l0.101,-0.121l0.104,-0.118l0.106,-0.116l0.11,-0.114l0.112,-0.11l0.114,-0.108l0.117,-0.105l0.12,-0.103l0.122,-0.099l0.125,-0.097l0.127,-0.094l0.129,-0.091l0.132,-0.087l0.134,-0.085l0.136,-0.081l0.138,-0.079l0.141,-0.075l0.142,-0.072l0.145,-0.068l0.146,-0.065l0.149,-0.061l0.15,-0.058l0.152,-0.054l0.153,-0.051l0.156,-0.047l0.157,-0.043l0.158,-0.039l0.16,-0.035l0.161,-0.031l0.163,-0.028l0.164,-0.023l0.165,-0.019l0.166,-0.015l0.167,-0.011l0.167,-0.006l0.169,-0.002l0.169,0.002Zm-0.232,4.128l-0.062,0.002l-0.061,0.004l-0.061,0.006l-0.06,0.007l-0.059,0.008l-0.059,0.01l-0.059,0.011l-0.058,0.013l-0.057,0.014l-0.057,0.016l-0.056,0.017l-0.055,0.018l-0.056,0.02l-0.054,0.021l-0.054,0.022l-0.053,0.024l-0.053,0.025l-0.052,0.026l-0.052,0.027l-0.05,0.029l-0.051,0.03l-0.049,0.031l-0.049,0.033l-0.048,0.033l-0.047,0.035l-0.046,0.036l-0.046,0.037l-0.044,0.039l-0.044,0.039l-0.043,0.04l-0.042,0.042l-0.041,0.042l-0.04,0.044l-0.039,0.044l-0.038,0.046l-0.037,0.046l-0.036,0.048l-0.035,0.048l-0.033,0.049l-0.033,0.05l-0.031,0.05l-0.03,0.052l-0.029,0.052l-0.028,0.053l-0.026,0.054l-0.025,0.054l-0.024,0.055l-0.023,0.056l-0.021,0.056l-0.02,0.057l-0.018,0.058l-0.017,0.059l-0.016,0.059l-0.014,0.059l-0.013,0.06l-0.012,0.061l-0.01,0.062l-0.009,0.062l-0.007,0.062l-0.005,0.064l-0.004,0.063l-0.003,0.065l0,0.065l0,0.066l0.003,0.064l0.004,0.064l0.005,0.063l0.007,0.063l0.009,0.062l0.01,0.062l0.012,0.06l0.013,0.061l0.014,0.059l0.016,0.059l0.017,0.058l0.018,0.058l0.02,0.057l0.021,0.057l0.023,0.055l0.024,0.056l0.025,0.054l0.026,0.054l0.028,0.053l0.029,0.052l0.03,0.051l0.031,0.051l0.033,0.05l0.033,0.049l0.035,0.048l0.036,0.047l0.037,0.047l0.038,0.045l0.039,0.045l0.04,0.043l0.041,0.043l0.042,0.041l0.043,0.041l0.044,0.039l0.044,0.038l0.046,0.037l0.046,0.036l0.047,0.035l0.048,0.034l0.049,0.032l0.049,0.032l0.051,0.03l0.05,0.028l0.052,0.028l0.052,0.026l0.053,0.025l0.053,0.024l0.054,0.022l0.054,0.021l0.056,0.02l0.055,0.018l0.056,0.017l0.057,0.015l0.057,0.015l0.058,0.012l0.059,0.012l0.059,0.01l0.059,0.008l0.06,0.007l0.061,0.005l0.061,0.004l0.062,0.003l0.063,0.001l0.063,-0.001l0.062,-0.003l0.061,-0.004l0.061,-0.005l0.06,-0.007l0.059,-0.008l0.059,-0.01l0.059,-0.012l0.058,-0.012l0.057,-0.015l0.057,-0.015l0.056,-0.017l0.056,-0.018l0.055,-0.02l0.054,-0.021l0.054,-0.022l0.053,-0.024l0.053,-0.025l0.052,-0.026l0.052,-0.028l0.051,-0.028l0.05,-0.031l0.049,-0.031l0.049,-0.032l0.048,-0.034l0.047,-0.035l0.046,-0.036l0.046,-0.037l0.045,-0.038l0.043,-0.039l0.043,-0.041l0.042,-0.041l0.041,-0.043l0.04,-0.043l0.039,-0.045l0.038,-0.045l0.037,-0.046l0.036,-0.048l0.035,-0.048l0.033,-0.049l0.033,-0.05l0.031,-0.05l0.03,-0.052l0.029,-0.052l0.028,-0.053l0.026,-0.054l0.025,-0.054l0.024,-0.055l0.023,-0.056l0.021,-0.057l0.02,-0.057l0.018,-0.058l0.017,-0.058l0.016,-0.059l0.014,-0.059l0.013,-0.061l0.012,-0.06l0.01,-0.062l0.009,-0.062l0.007,-0.063l0.005,-0.063l0.004,-0.064l0.003,-0.064l0.001,-0.066l-0.001,-0.065l-0.003,-0.064l-0.004,-0.064l-0.005,-0.064l-0.007,-0.062l-0.009,-0.062l-0.01,-0.062l-0.012,-0.061l-0.013,-0.06l-0.014,-0.059l-0.016,-0.059l-0.017,-0.059l-0.018,-0.058l-0.02,-0.057l-0.021,-0.056l-0.023,-0.056l-0.024,-0.055l-0.025,-0.054l-0.026,-0.054l-0.028,-0.053l-0.029,-0.052l-0.03,-0.052l-0.031,-0.05l-0.033,-0.05l-0.033,-0.049l-0.035,-0.048l-0.036,-0.048l-0.037,-0.046l-0.038,-0.046l-0.039,-0.044l-0.04,-0.044l-0.041,-0.042l-0.042,-0.042l-0.043,-0.04l-0.043,-0.039l-0.045,-0.039l-0.046,-0.037l-0.046,-0.036l-0.047,-0.035l-0.048,-0.033l-0.049,-0.033l-0.049,-0.031l-0.05,-0.03l-0.051,-0.029l-0.052,-0.027l-0.052,-0.026l-0.053,-0.025l-0.053,-0.024l-0.054,-0.022l-0.054,-0.021l-0.055,-0.02l-0.056,-0.018l-0.056,-0.017l-0.057,-0.016l-0.057,-0.014l-0.058,-0.013l-0.059,-0.011l-0.059,-0.01l-0.059,-0.008l-0.06,-0.007l-0.061,-0.006l-0.061,-0.004l-0.062,-0.002l-0.063,-0.001l-0.063,0.001Z" fill="rgba(173,177,181,0.7)"></path>
                <rect class="pk-key" x="49" y="51.5" width="10.2" height="3" fill="rgba(173,177,181,0.7)"></rect>
                <rect class="pk-key" x="50.2" y="54.5" width="2" height="3" fill="rgba(173,177,181,0.7)"></rect>
                <rect class="pk-key" x="54" y="54.5" width="2" height="3" fill="rgba(173,177,181,0.7)"></rect>
          
        </g>
        <g class="joint-table-row-group" onmousedown="QdbdJS.onRowMouseDown()" onmousemove="QdbdJS.onRowMouseMove()" onmouseup="QdbdJS.onRowMouseUp(20)">
          <rect x="0" y="63" class="joint-table-row" width="99" height="31" stroke="none"></rect>
          
          
          <text x="0" y="85" class="joint-field-text" id="v-14539" pointer-events="none" fill="#333" font-size="12px">
            <tspan x="14" y="85" text-anchor="start" class="joint-field-name ">
              name
            </tspan>
            <tspan x="85" y="85" text-anchor="end" class="joint-field-type" fill="#adb1b5">
              string
            </tspan>
          </text>
          
          
        <rect x="0" y="94" class="joint-table-row" width="99" height="6" stroke="none"></rect>
        
        </g>
          </g>
        </g></g><g id="j_1088" model-id="1c09b686-9a69-4b81-b798-be9bb87f8083" class="element basic newt joint-theme-default" magnet="false" fill="#ffffff" stroke="none" transform="translate(755,227)" font-family="Roboto,'Helvetica Neue', sans-serif"><g class="joint-table" onmousedown="QdbdJS.onTableMouseDown(this)" onmouseup="QdbdJS.onTableMouseUp(this)" id="v-14541">
          <rect x="0" y="0" width="104" height="38" class="joint-table-title" onmousedown="QdbdJS.onRowMouseDown()" onmousemove="QdbdJS.onRowMouseMove()" onmouseup="QdbdJS.onRowMouseUp(22)" fill="#005aa0" stroke="#005aa0"></rect>
          <text x="14" y="24" text-anchor="start" class="joint-table-title-text" id="v-14548" pointer-events="none" font-size="14px">Projects</text>
          <g class="joint-table-rows">
            
        <g class="joint-table-row-group" onmousedown="QdbdJS.onRowMouseDown()" onmousemove="QdbdJS.onRowMouseMove()" onmouseup="QdbdJS.onRowMouseUp(24)">
          <rect x="0" y="38" class="joint-table-row" width="104" height="25" stroke="none"></rect>
          
          
          <text x="0" y="60" class="joint-field-text" id="v-14549" pointer-events="none" fill="#333" font-size="12px">
            <tspan x="14" y="60" text-anchor="start" class="joint-field-name pk" fill="#005aa0" font-weight="bold">
              id
            </tspan>
            <tspan x="90" y="60" text-anchor="end" class="joint-field-type" fill="#adb1b5">
              int
            </tspan>
          </text>
          <path class="pk-key" transform="matrix(0.7, 0, 0, 0.7, 53, 47)" d="M22.208,2.205l0.167,0.006l0.167,0.011l0.166,0.015l0.165,0.019l0.164,0.023l0.163,0.028l0.161,0.031l0.16,0.035l0.158,0.039l0.157,0.043l0.156,0.047l0.153,0.051l0.152,0.054l0.151,0.058l0.148,0.061l0.146,0.065l0.145,0.068l0.142,0.072l0.141,0.075l0.138,0.078l0.136,0.082l0.134,0.085l0.132,0.087l0.129,0.091l0.127,0.094l0.125,0.097l0.122,0.099l0.12,0.103l0.117,0.105l0.114,0.108l0.112,0.11l0.11,0.114l0.106,0.116l0.104,0.118l0.101,0.121l0.098,0.123l0.096,0.126l0.092,0.128l0.089,0.13l0.087,0.133l0.083,0.135l0.08,0.137l0.077,0.139l0.074,0.141l0.07,0.144l0.067,0.145l0.064,0.147l0.06,0.149l0.056,0.151l0.053,0.152l0.05,0.154l0.046,0.156l0.042,0.157l0.038,0.159l0.035,0.16l0.03,0.162l0.027,0.162l0.023,0.164l0.018,0.165l0.015,0.167l0.01,0.167l0.007,0.168l0.002,0.168l-0.002,0.169l-0.007,0.168l-0.01,0.167l-0.015,0.166l-0.018,0.166l-0.023,0.163l-0.027,0.163l-0.03,0.162l-0.035,0.16l-0.038,0.159l-0.042,0.157l-0.046,0.156l-0.05,0.154l-0.053,0.152l-0.056,0.151l-0.06,0.149l-0.064,0.147l-0.067,0.145l-0.07,0.143l-0.074,0.142l-0.077,0.139l-0.08,0.137l-0.083,0.135l-0.087,0.132l-0.089,0.131l-0.092,0.128l-0.096,0.125l-0.098,0.124l-0.101,0.121l-0.104,0.118l-0.106,0.116l-0.11,0.113l-0.112,0.111l-0.114,0.108l-0.117,0.105l-0.12,0.103l-0.122,0.099l-0.125,0.097l-0.127,0.094l-0.129,0.09l-0.132,0.088l-0.134,0.085l-0.136,0.081l-0.138,0.078l-0.141,0.076l-0.142,0.071l-0.145,0.069l-0.146,0.064l-0.148,0.062l-0.151,0.058l-0.152,0.054l-0.153,0.05l-0.156,0.047l-0.157,0.043l-0.158,0.039l-0.16,0.036l-0.161,0.031l-0.163,0.027l-0.164,0.024l-0.165,0.019l-0.166,0.015l-0.167,0.01l-0.167,0.007l-0.169,0.002l-0.168,-0.002l-0.168,-0.007l-0.167,-0.01l-0.166,-0.015l-0.165,-0.019l-0.164,-0.024l-0.163,-0.027l-0.161,-0.031l-0.16,-0.036l-0.158,-0.039l-0.157,-0.043l-0.156,-0.047l-0.153,-0.05l-0.152,-0.054l-0.15,-0.058l-0.149,-0.062l-0.146,-0.064l-0.145,-0.069l-0.142,-0.071l-0.141,-0.076l-0.138,-0.078l-0.136,-0.081l-0.134,-0.085l-0.132,-0.088l-0.129,-0.09l-0.127,-0.094l-0.125,-0.097l-0.122,-0.099l-0.12,-0.103l-0.117,-0.105l-0.114,-0.108l-0.112,-0.111l-0.11,-0.113l-0.106,-0.116l-0.104,-0.118l-0.101,-0.121l-0.098,-0.123l-0.096,-0.126l-0.092,-0.128l-0.089,-0.131l-0.087,-0.132l-0.083,-0.135l-0.08,-0.137l-0.077,-0.139l-0.073,-0.142l-0.071,-0.143l-0.067,-0.145l-0.063,-0.147l-0.061,-0.149l-0.056,-0.151l-0.053,-0.152l-0.05,-0.154l-0.046,-0.156l-0.042,-0.157l-0.038,-0.159l-0.035,-0.16l-0.03,-0.162l-0.027,-0.163l-0.023,-0.164l-0.018,-0.165l-0.015,-0.166l-0.01,-0.167l-0.007,-0.168l-0.002,-0.169l0.002,-0.168l0.007,-0.168l0.01,-0.167l0.015,-0.167l0.018,-0.165l0.023,-0.164l0.027,-0.162l0.03,-0.162l0.035,-0.16l0.038,-0.159l0.042,-0.157l0.046,-0.156l0.05,-0.154l0.053,-0.152l0.056,-0.151l0.061,-0.149l0.063,-0.147l0.067,-0.145l0.071,-0.144l0.073,-0.141l0.077,-0.139l0.08,-0.137l0.083,-0.135l0.087,-0.133l0.089,-0.13l0.092,-0.128l0.096,-0.126l0.098,-0.123l0.101,-0.121l0.104,-0.118l0.106,-0.116l0.11,-0.114l0.112,-0.11l0.114,-0.108l0.117,-0.105l0.12,-0.103l0.122,-0.099l0.125,-0.097l0.127,-0.094l0.129,-0.091l0.132,-0.087l0.134,-0.085l0.136,-0.081l0.138,-0.079l0.141,-0.075l0.142,-0.072l0.145,-0.068l0.146,-0.065l0.149,-0.061l0.15,-0.058l0.152,-0.054l0.153,-0.051l0.156,-0.047l0.157,-0.043l0.158,-0.039l0.16,-0.035l0.161,-0.031l0.163,-0.028l0.164,-0.023l0.165,-0.019l0.166,-0.015l0.167,-0.011l0.167,-0.006l0.169,-0.002l0.169,0.002Zm-0.232,4.128l-0.062,0.002l-0.061,0.004l-0.061,0.006l-0.06,0.007l-0.059,0.008l-0.059,0.01l-0.059,0.011l-0.058,0.013l-0.057,0.014l-0.057,0.016l-0.056,0.017l-0.055,0.018l-0.056,0.02l-0.054,0.021l-0.054,0.022l-0.053,0.024l-0.053,0.025l-0.052,0.026l-0.052,0.027l-0.05,0.029l-0.051,0.03l-0.049,0.031l-0.049,0.033l-0.048,0.033l-0.047,0.035l-0.046,0.036l-0.046,0.037l-0.044,0.039l-0.044,0.039l-0.043,0.04l-0.042,0.042l-0.041,0.042l-0.04,0.044l-0.039,0.044l-0.038,0.046l-0.037,0.046l-0.036,0.048l-0.035,0.048l-0.033,0.049l-0.033,0.05l-0.031,0.05l-0.03,0.052l-0.029,0.052l-0.028,0.053l-0.026,0.054l-0.025,0.054l-0.024,0.055l-0.023,0.056l-0.021,0.056l-0.02,0.057l-0.018,0.058l-0.017,0.059l-0.016,0.059l-0.014,0.059l-0.013,0.06l-0.012,0.061l-0.01,0.062l-0.009,0.062l-0.007,0.062l-0.005,0.064l-0.004,0.063l-0.003,0.065l0,0.065l0,0.066l0.003,0.064l0.004,0.064l0.005,0.063l0.007,0.063l0.009,0.062l0.01,0.062l0.012,0.06l0.013,0.061l0.014,0.059l0.016,0.059l0.017,0.058l0.018,0.058l0.02,0.057l0.021,0.057l0.023,0.055l0.024,0.056l0.025,0.054l0.026,0.054l0.028,0.053l0.029,0.052l0.03,0.051l0.031,0.051l0.033,0.05l0.033,0.049l0.035,0.048l0.036,0.047l0.037,0.047l0.038,0.045l0.039,0.045l0.04,0.043l0.041,0.043l0.042,0.041l0.043,0.041l0.044,0.039l0.044,0.038l0.046,0.037l0.046,0.036l0.047,0.035l0.048,0.034l0.049,0.032l0.049,0.032l0.051,0.03l0.05,0.028l0.052,0.028l0.052,0.026l0.053,0.025l0.053,0.024l0.054,0.022l0.054,0.021l0.056,0.02l0.055,0.018l0.056,0.017l0.057,0.015l0.057,0.015l0.058,0.012l0.059,0.012l0.059,0.01l0.059,0.008l0.06,0.007l0.061,0.005l0.061,0.004l0.062,0.003l0.063,0.001l0.063,-0.001l0.062,-0.003l0.061,-0.004l0.061,-0.005l0.06,-0.007l0.059,-0.008l0.059,-0.01l0.059,-0.012l0.058,-0.012l0.057,-0.015l0.057,-0.015l0.056,-0.017l0.056,-0.018l0.055,-0.02l0.054,-0.021l0.054,-0.022l0.053,-0.024l0.053,-0.025l0.052,-0.026l0.052,-0.028l0.051,-0.028l0.05,-0.031l0.049,-0.031l0.049,-0.032l0.048,-0.034l0.047,-0.035l0.046,-0.036l0.046,-0.037l0.045,-0.038l0.043,-0.039l0.043,-0.041l0.042,-0.041l0.041,-0.043l0.04,-0.043l0.039,-0.045l0.038,-0.045l0.037,-0.046l0.036,-0.048l0.035,-0.048l0.033,-0.049l0.033,-0.05l0.031,-0.05l0.03,-0.052l0.029,-0.052l0.028,-0.053l0.026,-0.054l0.025,-0.054l0.024,-0.055l0.023,-0.056l0.021,-0.057l0.02,-0.057l0.018,-0.058l0.017,-0.058l0.016,-0.059l0.014,-0.059l0.013,-0.061l0.012,-0.06l0.01,-0.062l0.009,-0.062l0.007,-0.063l0.005,-0.063l0.004,-0.064l0.003,-0.064l0.001,-0.066l-0.001,-0.065l-0.003,-0.064l-0.004,-0.064l-0.005,-0.064l-0.007,-0.062l-0.009,-0.062l-0.01,-0.062l-0.012,-0.061l-0.013,-0.06l-0.014,-0.059l-0.016,-0.059l-0.017,-0.059l-0.018,-0.058l-0.02,-0.057l-0.021,-0.056l-0.023,-0.056l-0.024,-0.055l-0.025,-0.054l-0.026,-0.054l-0.028,-0.053l-0.029,-0.052l-0.03,-0.052l-0.031,-0.05l-0.033,-0.05l-0.033,-0.049l-0.035,-0.048l-0.036,-0.048l-0.037,-0.046l-0.038,-0.046l-0.039,-0.044l-0.04,-0.044l-0.041,-0.042l-0.042,-0.042l-0.043,-0.04l-0.043,-0.039l-0.045,-0.039l-0.046,-0.037l-0.046,-0.036l-0.047,-0.035l-0.048,-0.033l-0.049,-0.033l-0.049,-0.031l-0.05,-0.03l-0.051,-0.029l-0.052,-0.027l-0.052,-0.026l-0.053,-0.025l-0.053,-0.024l-0.054,-0.022l-0.054,-0.021l-0.055,-0.02l-0.056,-0.018l-0.056,-0.017l-0.057,-0.016l-0.057,-0.014l-0.058,-0.013l-0.059,-0.011l-0.059,-0.01l-0.059,-0.008l-0.06,-0.007l-0.061,-0.006l-0.061,-0.004l-0.062,-0.002l-0.063,-0.001l-0.063,0.001Z" fill="rgba(173,177,181,0.7)"></path>
                <rect class="pk-key" x="54" y="51.5" width="10.2" height="3" fill="rgba(173,177,181,0.7)"></rect>
                <rect class="pk-key" x="55.2" y="54.5" width="2" height="3" fill="rgba(173,177,181,0.7)"></rect>
                <rect class="pk-key" x="59" y="54.5" width="2" height="3" fill="rgba(173,177,181,0.7)"></rect>
          
        </g>
        <g class="joint-table-row-group" onmousedown="QdbdJS.onRowMouseDown()" onmousemove="QdbdJS.onRowMouseMove()" onmouseup="QdbdJS.onRowMouseUp(25)">
          <rect x="0" y="63" class="joint-table-row" width="104" height="25" stroke="none"></rect>
          
          
          <text x="0" y="85" class="joint-field-text" id="v-14550" pointer-events="none" fill="#333" font-size="12px">
            <tspan x="14" y="85" text-anchor="start" class="joint-field-name ">
              name
            </tspan>
            <tspan x="90" y="85" text-anchor="end" class="joint-field-type" fill="#adb1b5">
              string
            </tspan>
          </text>
          
          
        </g>
        <g class="joint-table-row-group" onmousedown="QdbdJS.onRowMouseDown()" onmousemove="QdbdJS.onRowMouseMove()" onmouseup="QdbdJS.onRowMouseUp(26)">
          <rect x="0" y="88" class="joint-table-row" width="104" height="31" stroke="none"></rect>
          
          
          <text x="0" y="110" class="joint-field-text" id="v-14551" pointer-events="none" fill="#333" font-size="12px">
            <tspan x="14" y="110" text-anchor="start" class="joint-field-name ">
              desc
            </tspan>
            <tspan x="90" y="110" text-anchor="end" class="joint-field-type" fill="#adb1b5">
              string
            </tspan>
          </text>
          
          
        <rect x="0" y="119" class="joint-table-row" width="104" height="6" stroke="none"></rect>
        
        </g>
          </g>
        </g></g><g id="j_1089" model-id="d106b752-298c-401c-945d-baa75ae32db2" class="element basic newt joint-theme-default" magnet="false" fill="#ffffff" stroke="none" transform="translate(418,176)" font-family="Roboto,'Helvetica Neue', sans-serif"><g class="joint-table" onmousedown="QdbdJS.onTableMouseDown(this)" onmouseup="QdbdJS.onTableMouseUp(this)" id="v-14553">
          <rect x="0" y="0" width="182" height="38" class="joint-table-title" onmousedown="QdbdJS.onRowMouseDown()" onmousemove="QdbdJS.onRowMouseMove()" onmouseup="QdbdJS.onRowMouseUp(29)" fill="#005aa0" stroke="#005aa0"></rect>
          <text x="14" y="24" text-anchor="start" class="joint-table-title-text" id="v-14562" pointer-events="none" font-size="14px">Project_member</text>
          <g class="joint-table-rows">
            
        <g class="joint-table-row-group" onmousedown="QdbdJS.onRowMouseDown()" onmousemove="QdbdJS.onRowMouseMove()" onmouseup="QdbdJS.onRowMouseUp(31)">
          <rect x="0" y="38" class="joint-table-row" width="182" height="25" stroke="none"></rect>
          
          
          <text x="0" y="60" class="joint-field-text" id="v-14563" pointer-events="none" fill="#333" font-size="12px">
            <tspan x="14" y="60" text-anchor="start" class="joint-field-name pk" fill="#005aa0" font-weight="bold">
              id
            </tspan>
            <tspan x="168" y="60" text-anchor="end" class="joint-field-type" fill="#adb1b5">
              int
            </tspan>
          </text>
          <path class="pk-key" transform="matrix(0.7, 0, 0, 0.7, 131, 47)" d="M22.208,2.205l0.167,0.006l0.167,0.011l0.166,0.015l0.165,0.019l0.164,0.023l0.163,0.028l0.161,0.031l0.16,0.035l0.158,0.039l0.157,0.043l0.156,0.047l0.153,0.051l0.152,0.054l0.151,0.058l0.148,0.061l0.146,0.065l0.145,0.068l0.142,0.072l0.141,0.075l0.138,0.078l0.136,0.082l0.134,0.085l0.132,0.087l0.129,0.091l0.127,0.094l0.125,0.097l0.122,0.099l0.12,0.103l0.117,0.105l0.114,0.108l0.112,0.11l0.11,0.114l0.106,0.116l0.104,0.118l0.101,0.121l0.098,0.123l0.096,0.126l0.092,0.128l0.089,0.13l0.087,0.133l0.083,0.135l0.08,0.137l0.077,0.139l0.074,0.141l0.07,0.144l0.067,0.145l0.064,0.147l0.06,0.149l0.056,0.151l0.053,0.152l0.05,0.154l0.046,0.156l0.042,0.157l0.038,0.159l0.035,0.16l0.03,0.162l0.027,0.162l0.023,0.164l0.018,0.165l0.015,0.167l0.01,0.167l0.007,0.168l0.002,0.168l-0.002,0.169l-0.007,0.168l-0.01,0.167l-0.015,0.166l-0.018,0.166l-0.023,0.163l-0.027,0.163l-0.03,0.162l-0.035,0.16l-0.038,0.159l-0.042,0.157l-0.046,0.156l-0.05,0.154l-0.053,0.152l-0.056,0.151l-0.06,0.149l-0.064,0.147l-0.067,0.145l-0.07,0.143l-0.074,0.142l-0.077,0.139l-0.08,0.137l-0.083,0.135l-0.087,0.132l-0.089,0.131l-0.092,0.128l-0.096,0.125l-0.098,0.124l-0.101,0.121l-0.104,0.118l-0.106,0.116l-0.11,0.113l-0.112,0.111l-0.114,0.108l-0.117,0.105l-0.12,0.103l-0.122,0.099l-0.125,0.097l-0.127,0.094l-0.129,0.09l-0.132,0.088l-0.134,0.085l-0.136,0.081l-0.138,0.078l-0.141,0.076l-0.142,0.071l-0.145,0.069l-0.146,0.064l-0.148,0.062l-0.151,0.058l-0.152,0.054l-0.153,0.05l-0.156,0.047l-0.157,0.043l-0.158,0.039l-0.16,0.036l-0.161,0.031l-0.163,0.027l-0.164,0.024l-0.165,0.019l-0.166,0.015l-0.167,0.01l-0.167,0.007l-0.169,0.002l-0.168,-0.002l-0.168,-0.007l-0.167,-0.01l-0.166,-0.015l-0.165,-0.019l-0.164,-0.024l-0.163,-0.027l-0.161,-0.031l-0.16,-0.036l-0.158,-0.039l-0.157,-0.043l-0.156,-0.047l-0.153,-0.05l-0.152,-0.054l-0.15,-0.058l-0.149,-0.062l-0.146,-0.064l-0.145,-0.069l-0.142,-0.071l-0.141,-0.076l-0.138,-0.078l-0.136,-0.081l-0.134,-0.085l-0.132,-0.088l-0.129,-0.09l-0.127,-0.094l-0.125,-0.097l-0.122,-0.099l-0.12,-0.103l-0.117,-0.105l-0.114,-0.108l-0.112,-0.111l-0.11,-0.113l-0.106,-0.116l-0.104,-0.118l-0.101,-0.121l-0.098,-0.123l-0.096,-0.126l-0.092,-0.128l-0.089,-0.131l-0.087,-0.132l-0.083,-0.135l-0.08,-0.137l-0.077,-0.139l-0.073,-0.142l-0.071,-0.143l-0.067,-0.145l-0.063,-0.147l-0.061,-0.149l-0.056,-0.151l-0.053,-0.152l-0.05,-0.154l-0.046,-0.156l-0.042,-0.157l-0.038,-0.159l-0.035,-0.16l-0.03,-0.162l-0.027,-0.163l-0.023,-0.164l-0.018,-0.165l-0.015,-0.166l-0.01,-0.167l-0.007,-0.168l-0.002,-0.169l0.002,-0.168l0.007,-0.168l0.01,-0.167l0.015,-0.167l0.018,-0.165l0.023,-0.164l0.027,-0.162l0.03,-0.162l0.035,-0.16l0.038,-0.159l0.042,-0.157l0.046,-0.156l0.05,-0.154l0.053,-0.152l0.056,-0.151l0.061,-0.149l0.063,-0.147l0.067,-0.145l0.071,-0.144l0.073,-0.141l0.077,-0.139l0.08,-0.137l0.083,-0.135l0.087,-0.133l0.089,-0.13l0.092,-0.128l0.096,-0.126l0.098,-0.123l0.101,-0.121l0.104,-0.118l0.106,-0.116l0.11,-0.114l0.112,-0.11l0.114,-0.108l0.117,-0.105l0.12,-0.103l0.122,-0.099l0.125,-0.097l0.127,-0.094l0.129,-0.091l0.132,-0.087l0.134,-0.085l0.136,-0.081l0.138,-0.079l0.141,-0.075l0.142,-0.072l0.145,-0.068l0.146,-0.065l0.149,-0.061l0.15,-0.058l0.152,-0.054l0.153,-0.051l0.156,-0.047l0.157,-0.043l0.158,-0.039l0.16,-0.035l0.161,-0.031l0.163,-0.028l0.164,-0.023l0.165,-0.019l0.166,-0.015l0.167,-0.011l0.167,-0.006l0.169,-0.002l0.169,0.002Zm-0.232,4.128l-0.062,0.002l-0.061,0.004l-0.061,0.006l-0.06,0.007l-0.059,0.008l-0.059,0.01l-0.059,0.011l-0.058,0.013l-0.057,0.014l-0.057,0.016l-0.056,0.017l-0.055,0.018l-0.056,0.02l-0.054,0.021l-0.054,0.022l-0.053,0.024l-0.053,0.025l-0.052,0.026l-0.052,0.027l-0.05,0.029l-0.051,0.03l-0.049,0.031l-0.049,0.033l-0.048,0.033l-0.047,0.035l-0.046,0.036l-0.046,0.037l-0.044,0.039l-0.044,0.039l-0.043,0.04l-0.042,0.042l-0.041,0.042l-0.04,0.044l-0.039,0.044l-0.038,0.046l-0.037,0.046l-0.036,0.048l-0.035,0.048l-0.033,0.049l-0.033,0.05l-0.031,0.05l-0.03,0.052l-0.029,0.052l-0.028,0.053l-0.026,0.054l-0.025,0.054l-0.024,0.055l-0.023,0.056l-0.021,0.056l-0.02,0.057l-0.018,0.058l-0.017,0.059l-0.016,0.059l-0.014,0.059l-0.013,0.06l-0.012,0.061l-0.01,0.062l-0.009,0.062l-0.007,0.062l-0.005,0.064l-0.004,0.063l-0.003,0.065l0,0.065l0,0.066l0.003,0.064l0.004,0.064l0.005,0.063l0.007,0.063l0.009,0.062l0.01,0.062l0.012,0.06l0.013,0.061l0.014,0.059l0.016,0.059l0.017,0.058l0.018,0.058l0.02,0.057l0.021,0.057l0.023,0.055l0.024,0.056l0.025,0.054l0.026,0.054l0.028,0.053l0.029,0.052l0.03,0.051l0.031,0.051l0.033,0.05l0.033,0.049l0.035,0.048l0.036,0.047l0.037,0.047l0.038,0.045l0.039,0.045l0.04,0.043l0.041,0.043l0.042,0.041l0.043,0.041l0.044,0.039l0.044,0.038l0.046,0.037l0.046,0.036l0.047,0.035l0.048,0.034l0.049,0.032l0.049,0.032l0.051,0.03l0.05,0.028l0.052,0.028l0.052,0.026l0.053,0.025l0.053,0.024l0.054,0.022l0.054,0.021l0.056,0.02l0.055,0.018l0.056,0.017l0.057,0.015l0.057,0.015l0.058,0.012l0.059,0.012l0.059,0.01l0.059,0.008l0.06,0.007l0.061,0.005l0.061,0.004l0.062,0.003l0.063,0.001l0.063,-0.001l0.062,-0.003l0.061,-0.004l0.061,-0.005l0.06,-0.007l0.059,-0.008l0.059,-0.01l0.059,-0.012l0.058,-0.012l0.057,-0.015l0.057,-0.015l0.056,-0.017l0.056,-0.018l0.055,-0.02l0.054,-0.021l0.054,-0.022l0.053,-0.024l0.053,-0.025l0.052,-0.026l0.052,-0.028l0.051,-0.028l0.05,-0.031l0.049,-0.031l0.049,-0.032l0.048,-0.034l0.047,-0.035l0.046,-0.036l0.046,-0.037l0.045,-0.038l0.043,-0.039l0.043,-0.041l0.042,-0.041l0.041,-0.043l0.04,-0.043l0.039,-0.045l0.038,-0.045l0.037,-0.046l0.036,-0.048l0.035,-0.048l0.033,-0.049l0.033,-0.05l0.031,-0.05l0.03,-0.052l0.029,-0.052l0.028,-0.053l0.026,-0.054l0.025,-0.054l0.024,-0.055l0.023,-0.056l0.021,-0.057l0.02,-0.057l0.018,-0.058l0.017,-0.058l0.016,-0.059l0.014,-0.059l0.013,-0.061l0.012,-0.06l0.01,-0.062l0.009,-0.062l0.007,-0.063l0.005,-0.063l0.004,-0.064l0.003,-0.064l0.001,-0.066l-0.001,-0.065l-0.003,-0.064l-0.004,-0.064l-0.005,-0.064l-0.007,-0.062l-0.009,-0.062l-0.01,-0.062l-0.012,-0.061l-0.013,-0.06l-0.014,-0.059l-0.016,-0.059l-0.017,-0.059l-0.018,-0.058l-0.02,-0.057l-0.021,-0.056l-0.023,-0.056l-0.024,-0.055l-0.025,-0.054l-0.026,-0.054l-0.028,-0.053l-0.029,-0.052l-0.03,-0.052l-0.031,-0.05l-0.033,-0.05l-0.033,-0.049l-0.035,-0.048l-0.036,-0.048l-0.037,-0.046l-0.038,-0.046l-0.039,-0.044l-0.04,-0.044l-0.041,-0.042l-0.042,-0.042l-0.043,-0.04l-0.043,-0.039l-0.045,-0.039l-0.046,-0.037l-0.046,-0.036l-0.047,-0.035l-0.048,-0.033l-0.049,-0.033l-0.049,-0.031l-0.05,-0.03l-0.051,-0.029l-0.052,-0.027l-0.052,-0.026l-0.053,-0.025l-0.053,-0.024l-0.054,-0.022l-0.054,-0.021l-0.055,-0.02l-0.056,-0.018l-0.056,-0.017l-0.057,-0.016l-0.057,-0.014l-0.058,-0.013l-0.059,-0.011l-0.059,-0.01l-0.059,-0.008l-0.06,-0.007l-0.061,-0.006l-0.061,-0.004l-0.062,-0.002l-0.063,-0.001l-0.063,0.001Z" fill="rgba(173,177,181,0.7)"></path>
                <rect class="pk-key" x="132" y="51.5" width="10.2" height="3" fill="rgba(173,177,181,0.7)"></rect>
                <rect class="pk-key" x="133.2" y="54.5" width="2" height="3" fill="rgba(173,177,181,0.7)"></rect>
                <rect class="pk-key" x="137" y="54.5" width="2" height="3" fill="rgba(173,177,181,0.7)"></rect>
          
        </g>
        <g class="joint-table-row-group" onmousedown="QdbdJS.onRowMouseDown()" onmousemove="QdbdJS.onRowMouseMove()" onmouseup="QdbdJS.onRowMouseUp(32)">
          <rect x="0" y="63" class="joint-table-row" width="182" height="25" stroke="none"></rect>
          
          
          <text x="0" y="85" class="joint-field-text" id="v-14564" pointer-events="none" fill="#333" font-size="12px">
            <tspan x="14" y="85" text-anchor="start" class="joint-field-name fk" fill="#222" font-weight="bold">
              role_id
            </tspan>
            <tspan x="168" y="85" text-anchor="end" class="joint-field-type" fill="#adb1b5">
              int
            </tspan>
          </text>
          
          
        </g>
        <g class="joint-table-row-group" onmousedown="QdbdJS.onRowMouseDown()" onmousemove="QdbdJS.onRowMouseMove()" onmouseup="QdbdJS.onRowMouseUp(33)">
          <rect x="0" y="88" class="joint-table-row" width="182" height="25" stroke="none"></rect>
          
          
          <text x="0" y="110" class="joint-field-text" id="v-14565" pointer-events="none" fill="#333" font-size="12px">
            <tspan x="14" y="110" text-anchor="start" class="joint-field-name fk" fill="#222" font-weight="bold">
              project_id
            </tspan>
            <tspan x="168" y="110" text-anchor="end" class="joint-field-type" fill="#adb1b5">
              int
            </tspan>
          </text>
          
          
        </g>
        <g class="joint-table-row-group" onmousedown="QdbdJS.onRowMouseDown()" onmousemove="QdbdJS.onRowMouseMove()" onmouseup="QdbdJS.onRowMouseUp(34)">
          <rect x="0" y="113" class="joint-table-row" width="182" height="31" stroke="none"></rect>
          
          
          <text x="0" y="135" class="joint-field-text" id="v-14566" pointer-events="none" fill="#333" font-size="12px">
            <tspan x="14" y="135" text-anchor="start" class="joint-field-name fk" fill="#222" font-weight="bold">
              user_id
            </tspan>
            <tspan x="168" y="135" text-anchor="end" class="joint-field-type" fill="#adb1b5">
              int
            </tspan>
          </text>
          
          
        <rect x="0" y="144" class="joint-table-row" width="182" height="6" stroke="none"></rect>
        
        </g>
          </g>
        </g></g></g><defs id="v-4"></defs><text class="qdbd-link" x="10" y="20" font-family="Roboto,'Helvetica Neue', sans-serif">www.quickdatabasediagrams.com</text></svg>