<svg xmlns="http://www.w3.org/2000/svg" xmlns:xlink="http://www.w3.org/1999/xlink" version="1.1" id="v-2"><rect id="svg-background" width="100%" height="100%" fill="#F5F6F6"></rect><g id="v-3" class="viewport" transform="translate(-9, -34) scale(1)"><g id="j_729" model-id="9fccabee-a16f-4010-b9a8-5040e3405f4f" class="link joint-theme-default"><path class="connection" stroke="#d2d2dc" d="M 30 490 25 490 S 20 490 20 480 L 20 330 S 20 320 30 320 L 96 320" id="v-9386" stroke-width="1" fill="none"></path><path class="marker-source" fill="white" stroke="#d2d2dc" d="M -5 0 L 5 5 M -5 5 L 5 5 M -5 10 L 5 5 M 5 5" id="v-9387" stroke-width="1" transform="translate(35,495) scale(1,1) rotate(-180)"></path><path class="marker-target" fill="white" stroke="#d2d2dc" d="M 6 0 L 6 10 M 6 5 L 0 5 z" id="v-9388" stroke-width="1" transform="translate(102,325) scale(1,1) rotate(-180)"></path><g class="labels" id="v-9390"></g></g><g id="j_730" model-id="74c85d75-82b7-4329-97f4-2d5b759db81f" class="link joint-theme-default"><path class="connection" stroke="#d2d2dc" d="M 572 740 850 740 S 860 740 860 730 L 860 630 S 860 620 867 620 L 874 620" id="v-9400" stroke-width="1" fill="none"></path><path class="marker-source" fill="white" stroke="#d2d2dc" d="M -5 0 L 5 5 M -5 5 L 5 5 M -5 10 L 5 5 M 5 5" id="v-9401" stroke-width="1" transform="translate(567,735) scale(1,1) rotate(0)"></path><path class="marker-target" fill="white" stroke="#d2d2dc" d="M 6 0 L 6 10 M 6 5 L 0 5 z" id="v-9402" stroke-width="1" transform="translate(880,625) scale(1,1) rotate(-180)"></path><g class="labels" id="v-9404"></g></g><g id="j_731" model-id="73c85236-79a1-40bd-a715-d027205fcc60" class="link joint-theme-default"><path class="connection" stroke="#d2d2dc" d="M 572 760 1110 760 S 1120 760 1120 750 L 1120 510 S 1120 500 1125 499 L 1130 498" id="v-9414" stroke-width="1" fill="none"></path><path class="marker-source" fill="white" stroke="#d2d2dc" d="M -5 0 L 5 5 M -5 5 L 5 5 M -5 10 L 5 5 M 5 5" id="v-9415" stroke-width="1" transform="translate(567,755) scale(1,1) rotate(0)"></path><path class="marker-target" fill="white" stroke="#d2d2dc" d="M 6 0 L 6 10 M 6 5 L 0 5 z" id="v-9416" stroke-width="1" transform="translate(1136.9215087890625,501.9143371582031) scale(1,1) rotate(-190.61965926211934)"></path><g class="labels" id="v-9418"></g></g><g id="j_732" model-id="76972b81-f902-48a6-a479-b5c31f5ade6b" class="link joint-theme-default"><path class="connection" stroke="#d2d2dc" d="M 336 790 333 790 S 330 790 330 780 L 330 480 S 330 470 340 470 L 426 466" id="v-9428" stroke-width="1" fill="none"></path><path class="marker-source" fill="white" stroke="#d2d2dc" d="M -5 0 L 5 5 M -5 5 L 5 5 M -5 10 L 5 5 M 5 5" id="v-9429" stroke-width="1" transform="translate(341,795) scale(1,1) rotate(-180)"></path><path class="marker-target" fill="white" stroke="#d2d2dc" d="M 6 0 L 6 10 M 6 5 L 0 5 z" id="v-9430" stroke-width="1" transform="translate(432.1959533691406,470.99615478515625) scale(1,1) rotate(-182.24574292972477)"></path><g class="labels" id="v-9432"></g></g><g id="j_733" model-id="b482edc1-fc16-438c-bad8-ef1fd1b8b1d5" class="link joint-theme-default"><path class="connection" stroke="#d2d2dc" d="M 1126 520 1030 520 S 1020 520 1020 510 L 1020 360 S 1020 350 1015 350 L 1010 350" id="v-9442" stroke-width="1" fill="none"></path><path class="marker-source" fill="white" stroke="#d2d2dc" d="M -5 0 L 5 5 M -5 5 L 5 5 M -5 10 L 5 5 M 5 5" id="v-9443" stroke-width="1" transform="translate(1131,525) scale(1,1) rotate(-180)"></path><path class="marker-target" fill="white" stroke="#d2d2dc" d="M 6 0 L 6 10 M 6 5 L 0 5 z" id="v-9444" stroke-width="1" transform="translate(1004,345) scale(1,1) rotate(0)"></path><g class="labels" id="v-9446"></g></g><g id="j_734" model-id="c7a9326e-18ea-4d5d-987f-e7ff1af56322" class="link joint-theme-default"><path class="connection" stroke="#d2d2dc" d="M 1126 546 790 550 S 780 550 780 540 L 780 280 S 780 270 771 270 L 761 270" id="v-9456" stroke-width="1" fill="none"></path><path class="marker-source" fill="white" stroke="#d2d2dc" d="M -5 0 L 5 5 M -5 5 L 5 5 M -5 10 L 5 5 M 5 5" id="v-9457" stroke-width="1" transform="translate(1131.0565185546875,551.0558471679688) scale(1,1) rotate(-180.64375305892315)"></path><path class="marker-target" fill="white" stroke="#d2d2dc" d="M 6 0 L 6 10 M 6 5 L 0 5 z" id="v-9458" stroke-width="1" transform="translate(755,265) scale(1,1) rotate(0)"></path><g class="labels" id="v-9460"></g></g><g id="j_735" model-id="9631af17-5029-4b62-b297-87198b2e5e80" class="link joint-theme-default"><path class="connection" stroke="#d2d2dc" d="M 880 145 280 150 S 270 150 270 160 L 270 210 S 270 220 261 220 L 252 220" id="v-9470" stroke-width="1" fill="none"></path><path class="marker-source" fill="white" stroke="#d2d2dc" d="M -5 0 L 5 5 M -5 5 L 5 5 M -5 10 L 5 5 M 5 5" id="v-9471" stroke-width="1" transform="translate(885.04052734375,150.04014587402344) scale(1,1) rotate(-180.46205141671425)"></path><path class="marker-target" fill="white" stroke="#d2d2dc" d="M 6 0 L 6 10 M 6 5 L 0 5 z" id="v-9472" stroke-width="1" transform="translate(246,215) scale(1,1) rotate(0)"></path><g class="labels" id="v-9474"></g></g><g id="j_736" model-id="496197ad-0d3b-4b18-a47b-1e50241b1bb1" class="link joint-theme-default"><path class="connection" stroke="#d2d2dc" d="M 880 170 790 170 S 780 170 780 180 L 780 260 S 780 270 771 270 L 761 270" id="v-9484" stroke-width="1" fill="none"></path><path class="marker-source" fill="white" stroke="#d2d2dc" d="M -5 0 L 5 5 M -5 5 L 5 5 M -5 10 L 5 5 M 5 5" id="v-9485" stroke-width="1" transform="translate(885,175) scale(1,1) rotate(-180)"></path><path class="marker-target" fill="white" stroke="#d2d2dc" d="M 6 0 L 6 10 M 6 5 L 0 5 z" id="v-9486" stroke-width="1" transform="translate(755,265) scale(1,1) rotate(0)"></path><g class="labels" id="v-9488"></g></g><g id="j_737" model-id="8eb2e98f-0c8d-48cd-a88e-af79ae26c086" class="link joint-theme-default"><path class="connection" stroke="#d2d2dc" d="M 422 490 280 490 S 270 490 270 480 L 270 230 S 270 220 261 220 L 252 220" id="v-9497" stroke-width="1" fill="none"></path><path class="marker-source" fill="white" stroke="#d2d2dc" d="M -5 0 L 5 5 M -5 5 L 5 5 M -5 10 L 5 5 M 5 5" id="v-9498" stroke-width="1" transform="translate(427,495) scale(1,1) rotate(-180)"></path><path class="marker-target" fill="white" stroke="#d2d2dc" d="M 6 0 L 6 10 M 6 5 L 0 5 z" id="v-9499" stroke-width="1" transform="translate(246,215) scale(1,1) rotate(0)"></path><g class="labels" id="v-9501"></g></g><g id="j_738" model-id="802a7c50-fc87-48ca-b82c-7438d126bde0" class="link joint-theme-default"><path class="connection" stroke="#d2d2dc" d="M 775 518 783 519 S 790 520 790 510 L 790 280 S 790 270 780 270 L 761 270" id="v-9510" stroke-width="1" fill="none"></path><path class="marker-source" fill="white" stroke="#d2d2dc" d="M -5 0 L 5 5 M -5 5 L 5 5 M -5 10 L 5 5 M 5 5" id="v-9511" stroke-width="1" transform="translate(770.56005859375,512.63134765625) scale(1,1) rotate(6.8427735652155235)"></path><path class="marker-target" fill="white" stroke="#d2d2dc" d="M 6 0 L 6 10 M 6 5 L 0 5 z" id="v-9512" stroke-width="1" transform="translate(755,265) scale(1,1) rotate(0)"></path><g class="labels" id="v-9514"></g></g><g id="j_720" model-id="e370f0f3-edea-4393-8175-970d634ed053" class="element basic newt joint-theme-default" magnet="false" fill="#ffffff" stroke="none" transform="translate(102,167)" font-family="Roboto,'Helvetica Neue', sans-serif"><g class="joint-table" onmousedown="QdbdJS.onTableMouseDown(this)" onmouseup="QdbdJS.onTableMouseUp(this)" id="v-9272">
          <rect x="0" y="0" width="144" height="38" class="joint-table-title" onmousedown="QdbdJS.onRowMouseDown()" onmousemove="QdbdJS.onRowMouseMove()" onmouseup="QdbdJS.onRowMouseUp(1)" fill="#005aa0" stroke="#005aa0"></rect>
          <text x="14" y="24" text-anchor="start" class="joint-table-title-text" id="v-9283" pointer-events="none" font-size="14px">Users</text>
          <g class="joint-table-rows">
            
        <g class="joint-table-row-group" onmousedown="QdbdJS.onRowMouseDown()" onmousemove="QdbdJS.onRowMouseMove()" onmouseup="QdbdJS.onRowMouseUp(3)">
          <rect x="0" y="38" class="joint-table-row" width="144" height="25" stroke="none"></rect>
          
          
          <text x="0" y="60" class="joint-field-text" id="v-9284" pointer-events="none" fill="#333" font-size="12px">
            <tspan x="14" y="60" text-anchor="start" class="joint-field-name pk" fill="#005aa0" font-weight="bold">
              id
            </tspan>
            <tspan x="130" y="60" text-anchor="end" class="joint-field-type" fill="#adb1b5">
              int
            </tspan>
          </text>
          <path class="pk-key" transform="matrix(0.7, 0, 0, 0.7, 93, 47)" d="M22.208,2.205l0.167,0.006l0.167,0.011l0.166,0.015l0.165,0.019l0.164,0.023l0.163,0.028l0.161,0.031l0.16,0.035l0.158,0.039l0.157,0.043l0.156,0.047l0.153,0.051l0.152,0.054l0.151,0.058l0.148,0.061l0.146,0.065l0.145,0.068l0.142,0.072l0.141,0.075l0.138,0.078l0.136,0.082l0.134,0.085l0.132,0.087l0.129,0.091l0.127,0.094l0.125,0.097l0.122,0.099l0.12,0.103l0.117,0.105l0.114,0.108l0.112,0.11l0.11,0.114l0.106,0.116l0.104,0.118l0.101,0.121l0.098,0.123l0.096,0.126l0.092,0.128l0.089,0.13l0.087,0.133l0.083,0.135l0.08,0.137l0.077,0.139l0.074,0.141l0.07,0.144l0.067,0.145l0.064,0.147l0.06,0.149l0.056,0.151l0.053,0.152l0.05,0.154l0.046,0.156l0.042,0.157l0.038,0.159l0.035,0.16l0.03,0.162l0.027,0.162l0.023,0.164l0.018,0.165l0.015,0.167l0.01,0.167l0.007,0.168l0.002,0.168l-0.002,0.169l-0.007,0.168l-0.01,0.167l-0.015,0.166l-0.018,0.166l-0.023,0.163l-0.027,0.163l-0.03,0.162l-0.035,0.16l-0.038,0.159l-0.042,0.157l-0.046,0.156l-0.05,0.154l-0.053,0.152l-0.056,0.151l-0.06,0.149l-0.064,0.147l-0.067,0.145l-0.07,0.143l-0.074,0.142l-0.077,0.139l-0.08,0.137l-0.083,0.135l-0.087,0.132l-0.089,0.131l-0.092,0.128l-0.096,0.125l-0.098,0.124l-0.101,0.121l-0.104,0.118l-0.106,0.116l-0.11,0.113l-0.112,0.111l-0.114,0.108l-0.117,0.105l-0.12,0.103l-0.122,0.099l-0.125,0.097l-0.127,0.094l-0.129,0.09l-0.132,0.088l-0.134,0.085l-0.136,0.081l-0.138,0.078l-0.141,0.076l-0.142,0.071l-0.145,0.069l-0.146,0.064l-0.148,0.062l-0.151,0.058l-0.152,0.054l-0.153,0.05l-0.156,0.047l-0.157,0.043l-0.158,0.039l-0.16,0.036l-0.161,0.031l-0.163,0.027l-0.164,0.024l-0.165,0.019l-0.166,0.015l-0.167,0.01l-0.167,0.007l-0.169,0.002l-0.168,-0.002l-0.168,-0.007l-0.167,-0.01l-0.166,-0.015l-0.165,-0.019l-0.164,-0.024l-0.163,-0.027l-0.161,-0.031l-0.16,-0.036l-0.158,-0.039l-0.157,-0.043l-0.156,-0.047l-0.153,-0.05l-0.152,-0.054l-0.15,-0.058l-0.149,-0.062l-0.146,-0.064l-0.145,-0.069l-0.142,-0.071l-0.141,-0.076l-0.138,-0.078l-0.136,-0.081l-0.134,-0.085l-0.132,-0.088l-0.129,-0.09l-0.127,-0.094l-0.125,-0.097l-0.122,-0.099l-0.12,-0.103l-0.117,-0.105l-0.114,-0.108l-0.112,-0.111l-0.11,-0.113l-0.106,-0.116l-0.104,-0.118l-0.101,-0.121l-0.098,-0.123l-0.096,-0.126l-0.092,-0.128l-0.089,-0.131l-0.087,-0.132l-0.083,-0.135l-0.08,-0.137l-0.077,-0.139l-0.073,-0.142l-0.071,-0.143l-0.067,-0.145l-0.063,-0.147l-0.061,-0.149l-0.056,-0.151l-0.053,-0.152l-0.05,-0.154l-0.046,-0.156l-0.042,-0.157l-0.038,-0.159l-0.035,-0.16l-0.03,-0.162l-0.027,-0.163l-0.023,-0.164l-0.018,-0.165l-0.015,-0.166l-0.01,-0.167l-0.007,-0.168l-0.002,-0.169l0.002,-0.168l0.007,-0.168l0.01,-0.167l0.015,-0.167l0.018,-0.165l0.023,-0.164l0.027,-0.162l0.03,-0.162l0.035,-0.16l0.038,-0.159l0.042,-0.157l0.046,-0.156l0.05,-0.154l0.053,-0.152l0.056,-0.151l0.061,-0.149l0.063,-0.147l0.067,-0.145l0.071,-0.144l0.073,-0.141l0.077,-0.139l0.08,-0.137l0.083,-0.135l0.087,-0.133l0.089,-0.13l0.092,-0.128l0.096,-0.126l0.098,-0.123l0.101,-0.121l0.104,-0.118l0.106,-0.116l0.11,-0.114l0.112,-0.11l0.114,-0.108l0.117,-0.105l0.12,-0.103l0.122,-0.099l0.125,-0.097l0.127,-0.094l0.129,-0.091l0.132,-0.087l0.134,-0.085l0.136,-0.081l0.138,-0.079l0.141,-0.075l0.142,-0.072l0.145,-0.068l0.146,-0.065l0.149,-0.061l0.15,-0.058l0.152,-0.054l0.153,-0.051l0.156,-0.047l0.157,-0.043l0.158,-0.039l0.16,-0.035l0.161,-0.031l0.163,-0.028l0.164,-0.023l0.165,-0.019l0.166,-0.015l0.167,-0.011l0.167,-0.006l0.169,-0.002l0.169,0.002Zm-0.232,4.128l-0.062,0.002l-0.061,0.004l-0.061,0.006l-0.06,0.007l-0.059,0.008l-0.059,0.01l-0.059,0.011l-0.058,0.013l-0.057,0.014l-0.057,0.016l-0.056,0.017l-0.055,0.018l-0.056,0.02l-0.054,0.021l-0.054,0.022l-0.053,0.024l-0.053,0.025l-0.052,0.026l-0.052,0.027l-0.05,0.029l-0.051,0.03l-0.049,0.031l-0.049,0.033l-0.048,0.033l-0.047,0.035l-0.046,0.036l-0.046,0.037l-0.044,0.039l-0.044,0.039l-0.043,0.04l-0.042,0.042l-0.041,0.042l-0.04,0.044l-0.039,0.044l-0.038,0.046l-0.037,0.046l-0.036,0.048l-0.035,0.048l-0.033,0.049l-0.033,0.05l-0.031,0.05l-0.03,0.052l-0.029,0.052l-0.028,0.053l-0.026,0.054l-0.025,0.054l-0.024,0.055l-0.023,0.056l-0.021,0.056l-0.02,0.057l-0.018,0.058l-0.017,0.059l-0.016,0.059l-0.014,0.059l-0.013,0.06l-0.012,0.061l-0.01,0.062l-0.009,0.062l-0.007,0.062l-0.005,0.064l-0.004,0.063l-0.003,0.065l0,0.065l0,0.066l0.003,0.064l0.004,0.064l0.005,0.063l0.007,0.063l0.009,0.062l0.01,0.062l0.012,0.06l0.013,0.061l0.014,0.059l0.016,0.059l0.017,0.058l0.018,0.058l0.02,0.057l0.021,0.057l0.023,0.055l0.024,0.056l0.025,0.054l0.026,0.054l0.028,0.053l0.029,0.052l0.03,0.051l0.031,0.051l0.033,0.05l0.033,0.049l0.035,0.048l0.036,0.047l0.037,0.047l0.038,0.045l0.039,0.045l0.04,0.043l0.041,0.043l0.042,0.041l0.043,0.041l0.044,0.039l0.044,0.038l0.046,0.037l0.046,0.036l0.047,0.035l0.048,0.034l0.049,0.032l0.049,0.032l0.051,0.03l0.05,0.028l0.052,0.028l0.052,0.026l0.053,0.025l0.053,0.024l0.054,0.022l0.054,0.021l0.056,0.02l0.055,0.018l0.056,0.017l0.057,0.015l0.057,0.015l0.058,0.012l0.059,0.012l0.059,0.01l0.059,0.008l0.06,0.007l0.061,0.005l0.061,0.004l0.062,0.003l0.063,0.001l0.063,-0.001l0.062,-0.003l0.061,-0.004l0.061,-0.005l0.06,-0.007l0.059,-0.008l0.059,-0.01l0.059,-0.012l0.058,-0.012l0.057,-0.015l0.057,-0.015l0.056,-0.017l0.056,-0.018l0.055,-0.02l0.054,-0.021l0.054,-0.022l0.053,-0.024l0.053,-0.025l0.052,-0.026l0.052,-0.028l0.051,-0.028l0.05,-0.031l0.049,-0.031l0.049,-0.032l0.048,-0.034l0.047,-0.035l0.046,-0.036l0.046,-0.037l0.045,-0.038l0.043,-0.039l0.043,-0.041l0.042,-0.041l0.041,-0.043l0.04,-0.043l0.039,-0.045l0.038,-0.045l0.037,-0.046l0.036,-0.048l0.035,-0.048l0.033,-0.049l0.033,-0.05l0.031,-0.05l0.03,-0.052l0.029,-0.052l0.028,-0.053l0.026,-0.054l0.025,-0.054l0.024,-0.055l0.023,-0.056l0.021,-0.057l0.02,-0.057l0.018,-0.058l0.017,-0.058l0.016,-0.059l0.014,-0.059l0.013,-0.061l0.012,-0.06l0.01,-0.062l0.009,-0.062l0.007,-0.063l0.005,-0.063l0.004,-0.064l0.003,-0.064l0.001,-0.066l-0.001,-0.065l-0.003,-0.064l-0.004,-0.064l-0.005,-0.064l-0.007,-0.062l-0.009,-0.062l-0.01,-0.062l-0.012,-0.061l-0.013,-0.06l-0.014,-0.059l-0.016,-0.059l-0.017,-0.059l-0.018,-0.058l-0.02,-0.057l-0.021,-0.056l-0.023,-0.056l-0.024,-0.055l-0.025,-0.054l-0.026,-0.054l-0.028,-0.053l-0.029,-0.052l-0.03,-0.052l-0.031,-0.05l-0.033,-0.05l-0.033,-0.049l-0.035,-0.048l-0.036,-0.048l-0.037,-0.046l-0.038,-0.046l-0.039,-0.044l-0.04,-0.044l-0.041,-0.042l-0.042,-0.042l-0.043,-0.04l-0.043,-0.039l-0.045,-0.039l-0.046,-0.037l-0.046,-0.036l-0.047,-0.035l-0.048,-0.033l-0.049,-0.033l-0.049,-0.031l-0.05,-0.03l-0.051,-0.029l-0.052,-0.027l-0.052,-0.026l-0.053,-0.025l-0.053,-0.024l-0.054,-0.022l-0.054,-0.021l-0.055,-0.02l-0.056,-0.018l-0.056,-0.017l-0.057,-0.016l-0.057,-0.014l-0.058,-0.013l-0.059,-0.011l-0.059,-0.01l-0.059,-0.008l-0.06,-0.007l-0.061,-0.006l-0.061,-0.004l-0.062,-0.002l-0.063,-0.001l-0.063,0.001Z" fill="rgba(173,177,181,0.7)"></path>
                <rect class="pk-key" x="94" y="51.5" width="10.2" height="3" fill="rgba(173,177,181,0.7)"></rect>
                <rect class="pk-key" x="95.2" y="54.5" width="2" height="3" fill="rgba(173,177,181,0.7)"></rect>
                <rect class="pk-key" x="99" y="54.5" width="2" height="3" fill="rgba(173,177,181,0.7)"></rect>
          
        </g>
        <g class="joint-table-row-group" onmousedown="QdbdJS.onRowMouseDown()" onmousemove="QdbdJS.onRowMouseMove()" onmouseup="QdbdJS.onRowMouseUp(4)">
          <rect x="0" y="63" class="joint-table-row" width="144" height="25" stroke="none"></rect>
          
          
          <text x="0" y="85" class="joint-field-text" id="v-9285" pointer-events="none" fill="#333" font-size="12px">
            <tspan x="14" y="85" text-anchor="start" class="joint-field-name ">
              name
            </tspan>
            <tspan x="130" y="85" text-anchor="end" class="joint-field-type" fill="#adb1b5">
              string
            </tspan>
          </text>
          
          
        </g>
        <g class="joint-table-row-group" onmousedown="QdbdJS.onRowMouseDown()" onmousemove="QdbdJS.onRowMouseMove()" onmouseup="QdbdJS.onRowMouseUp(5)">
          <rect x="0" y="88" class="joint-table-row" width="144" height="25" stroke="none"></rect>
          
          
          <text x="0" y="110" class="joint-field-text" id="v-9286" pointer-events="none" fill="#333" font-size="12px">
            <tspan x="14" y="110" text-anchor="start" class="joint-field-name ">
              email
            </tspan>
            <tspan x="130" y="110" text-anchor="end" class="joint-field-type" fill="#adb1b5">
              string
            </tspan>
          </text>
          
          
        </g>
        <g class="joint-table-row-group" onmousedown="QdbdJS.onRowMouseDown()" onmousemove="QdbdJS.onRowMouseMove()" onmouseup="QdbdJS.onRowMouseUp(6)">
          <rect x="0" y="113" class="joint-table-row" width="144" height="25" stroke="none"></rect>
          
          
          <text x="0" y="135" class="joint-field-text" id="v-9287" pointer-events="none" fill="#333" font-size="12px">
            <tspan x="14" y="135" text-anchor="start" class="joint-field-name ">
              password
            </tspan>
            <tspan x="130" y="135" text-anchor="end" class="joint-field-type" fill="#adb1b5">
              string
            </tspan>
          </text>
          
          
        </g>
        <g class="joint-table-row-group" onmousedown="QdbdJS.onRowMouseDown()" onmousemove="QdbdJS.onRowMouseMove()" onmouseup="QdbdJS.onRowMouseUp(7)">
          <rect x="0" y="138" class="joint-table-row" width="144" height="31" stroke="none"></rect>
          
          
          <text x="0" y="160" class="joint-field-text" id="v-9288" pointer-events="none" fill="#333" font-size="12px">
            <tspan x="14" y="160" text-anchor="start" class="joint-field-name fk" fill="#222" font-weight="bold">
              user_type_id
            </tspan>
            <tspan x="130" y="160" text-anchor="end" class="joint-field-type" fill="#adb1b5">
              int
            </tspan>
          </text>
          
          
        <rect x="0" y="169" class="joint-table-row" width="144" height="6" stroke="none"></rect>
        
        </g>
          </g>
        </g></g><g id="j_721" model-id="10b58698-7e55-4d88-9abe-46c7f2069a4c" class="element basic newt joint-theme-default" magnet="false" fill="#ffffff" stroke="none" transform="translate(40,431)" font-family="Roboto,'Helvetica Neue', sans-serif"><g class="joint-table" onmousedown="QdbdJS.onTableMouseDown(this)" onmouseup="QdbdJS.onTableMouseUp(this)" id="v-9290">
          <rect x="0" y="0" width="130" height="38" class="joint-table-title" onmousedown="QdbdJS.onRowMouseDown()" onmousemove="QdbdJS.onRowMouseMove()" onmouseup="QdbdJS.onRowMouseUp(10)" fill="#005aa0" stroke="#005aa0"></rect>
          <text x="14" y="24" text-anchor="start" class="joint-table-title-text" id="v-9295" pointer-events="none" font-size="14px">User_types</text>
          <g class="joint-table-rows">
            
        <g class="joint-table-row-group" onmousedown="QdbdJS.onRowMouseDown()" onmousemove="QdbdJS.onRowMouseMove()" onmouseup="QdbdJS.onRowMouseUp(12)">
          <rect x="0" y="38" class="joint-table-row" width="130" height="25" stroke="none"></rect>
          
          
          <text x="0" y="60" class="joint-field-text" id="v-9296" pointer-events="none" fill="#333" font-size="12px">
            <tspan x="14" y="60" text-anchor="start" class="joint-field-name pk" fill="#005aa0" font-weight="bold">
              id
            </tspan>
            <tspan x="116" y="60" text-anchor="end" class="joint-field-type" fill="#adb1b5">
              int
            </tspan>
          </text>
          <path class="pk-key" transform="matrix(0.7, 0, 0, 0.7, 79, 47)" d="M22.208,2.205l0.167,0.006l0.167,0.011l0.166,0.015l0.165,0.019l0.164,0.023l0.163,0.028l0.161,0.031l0.16,0.035l0.158,0.039l0.157,0.043l0.156,0.047l0.153,0.051l0.152,0.054l0.151,0.058l0.148,0.061l0.146,0.065l0.145,0.068l0.142,0.072l0.141,0.075l0.138,0.078l0.136,0.082l0.134,0.085l0.132,0.087l0.129,0.091l0.127,0.094l0.125,0.097l0.122,0.099l0.12,0.103l0.117,0.105l0.114,0.108l0.112,0.11l0.11,0.114l0.106,0.116l0.104,0.118l0.101,0.121l0.098,0.123l0.096,0.126l0.092,0.128l0.089,0.13l0.087,0.133l0.083,0.135l0.08,0.137l0.077,0.139l0.074,0.141l0.07,0.144l0.067,0.145l0.064,0.147l0.06,0.149l0.056,0.151l0.053,0.152l0.05,0.154l0.046,0.156l0.042,0.157l0.038,0.159l0.035,0.16l0.03,0.162l0.027,0.162l0.023,0.164l0.018,0.165l0.015,0.167l0.01,0.167l0.007,0.168l0.002,0.168l-0.002,0.169l-0.007,0.168l-0.01,0.167l-0.015,0.166l-0.018,0.166l-0.023,0.163l-0.027,0.163l-0.03,0.162l-0.035,0.16l-0.038,0.159l-0.042,0.157l-0.046,0.156l-0.05,0.154l-0.053,0.152l-0.056,0.151l-0.06,0.149l-0.064,0.147l-0.067,0.145l-0.07,0.143l-0.074,0.142l-0.077,0.139l-0.08,0.137l-0.083,0.135l-0.087,0.132l-0.089,0.131l-0.092,0.128l-0.096,0.125l-0.098,0.124l-0.101,0.121l-0.104,0.118l-0.106,0.116l-0.11,0.113l-0.112,0.111l-0.114,0.108l-0.117,0.105l-0.12,0.103l-0.122,0.099l-0.125,0.097l-0.127,0.094l-0.129,0.09l-0.132,0.088l-0.134,0.085l-0.136,0.081l-0.138,0.078l-0.141,0.076l-0.142,0.071l-0.145,0.069l-0.146,0.064l-0.148,0.062l-0.151,0.058l-0.152,0.054l-0.153,0.05l-0.156,0.047l-0.157,0.043l-0.158,0.039l-0.16,0.036l-0.161,0.031l-0.163,0.027l-0.164,0.024l-0.165,0.019l-0.166,0.015l-0.167,0.01l-0.167,0.007l-0.169,0.002l-0.168,-0.002l-0.168,-0.007l-0.167,-0.01l-0.166,-0.015l-0.165,-0.019l-0.164,-0.024l-0.163,-0.027l-0.161,-0.031l-0.16,-0.036l-0.158,-0.039l-0.157,-0.043l-0.156,-0.047l-0.153,-0.05l-0.152,-0.054l-0.15,-0.058l-0.149,-0.062l-0.146,-0.064l-0.145,-0.069l-0.142,-0.071l-0.141,-0.076l-0.138,-0.078l-0.136,-0.081l-0.134,-0.085l-0.132,-0.088l-0.129,-0.09l-0.127,-0.094l-0.125,-0.097l-0.122,-0.099l-0.12,-0.103l-0.117,-0.105l-0.114,-0.108l-0.112,-0.111l-0.11,-0.113l-0.106,-0.116l-0.104,-0.118l-0.101,-0.121l-0.098,-0.123l-0.096,-0.126l-0.092,-0.128l-0.089,-0.131l-0.087,-0.132l-0.083,-0.135l-0.08,-0.137l-0.077,-0.139l-0.073,-0.142l-0.071,-0.143l-0.067,-0.145l-0.063,-0.147l-0.061,-0.149l-0.056,-0.151l-0.053,-0.152l-0.05,-0.154l-0.046,-0.156l-0.042,-0.157l-0.038,-0.159l-0.035,-0.16l-0.03,-0.162l-0.027,-0.163l-0.023,-0.164l-0.018,-0.165l-0.015,-0.166l-0.01,-0.167l-0.007,-0.168l-0.002,-0.169l0.002,-0.168l0.007,-0.168l0.01,-0.167l0.015,-0.167l0.018,-0.165l0.023,-0.164l0.027,-0.162l0.03,-0.162l0.035,-0.16l0.038,-0.159l0.042,-0.157l0.046,-0.156l0.05,-0.154l0.053,-0.152l0.056,-0.151l0.061,-0.149l0.063,-0.147l0.067,-0.145l0.071,-0.144l0.073,-0.141l0.077,-0.139l0.08,-0.137l0.083,-0.135l0.087,-0.133l0.089,-0.13l0.092,-0.128l0.096,-0.126l0.098,-0.123l0.101,-0.121l0.104,-0.118l0.106,-0.116l0.11,-0.114l0.112,-0.11l0.114,-0.108l0.117,-0.105l0.12,-0.103l0.122,-0.099l0.125,-0.097l0.127,-0.094l0.129,-0.091l0.132,-0.087l0.134,-0.085l0.136,-0.081l0.138,-0.079l0.141,-0.075l0.142,-0.072l0.145,-0.068l0.146,-0.065l0.149,-0.061l0.15,-0.058l0.152,-0.054l0.153,-0.051l0.156,-0.047l0.157,-0.043l0.158,-0.039l0.16,-0.035l0.161,-0.031l0.163,-0.028l0.164,-0.023l0.165,-0.019l0.166,-0.015l0.167,-0.011l0.167,-0.006l0.169,-0.002l0.169,0.002Zm-0.232,4.128l-0.062,0.002l-0.061,0.004l-0.061,0.006l-0.06,0.007l-0.059,0.008l-0.059,0.01l-0.059,0.011l-0.058,0.013l-0.057,0.014l-0.057,0.016l-0.056,0.017l-0.055,0.018l-0.056,0.02l-0.054,0.021l-0.054,0.022l-0.053,0.024l-0.053,0.025l-0.052,0.026l-0.052,0.027l-0.05,0.029l-0.051,0.03l-0.049,0.031l-0.049,0.033l-0.048,0.033l-0.047,0.035l-0.046,0.036l-0.046,0.037l-0.044,0.039l-0.044,0.039l-0.043,0.04l-0.042,0.042l-0.041,0.042l-0.04,0.044l-0.039,0.044l-0.038,0.046l-0.037,0.046l-0.036,0.048l-0.035,0.048l-0.033,0.049l-0.033,0.05l-0.031,0.05l-0.03,0.052l-0.029,0.052l-0.028,0.053l-0.026,0.054l-0.025,0.054l-0.024,0.055l-0.023,0.056l-0.021,0.056l-0.02,0.057l-0.018,0.058l-0.017,0.059l-0.016,0.059l-0.014,0.059l-0.013,0.06l-0.012,0.061l-0.01,0.062l-0.009,0.062l-0.007,0.062l-0.005,0.064l-0.004,0.063l-0.003,0.065l0,0.065l0,0.066l0.003,0.064l0.004,0.064l0.005,0.063l0.007,0.063l0.009,0.062l0.01,0.062l0.012,0.06l0.013,0.061l0.014,0.059l0.016,0.059l0.017,0.058l0.018,0.058l0.02,0.057l0.021,0.057l0.023,0.055l0.024,0.056l0.025,0.054l0.026,0.054l0.028,0.053l0.029,0.052l0.03,0.051l0.031,0.051l0.033,0.05l0.033,0.049l0.035,0.048l0.036,0.047l0.037,0.047l0.038,0.045l0.039,0.045l0.04,0.043l0.041,0.043l0.042,0.041l0.043,0.041l0.044,0.039l0.044,0.038l0.046,0.037l0.046,0.036l0.047,0.035l0.048,0.034l0.049,0.032l0.049,0.032l0.051,0.03l0.05,0.028l0.052,0.028l0.052,0.026l0.053,0.025l0.053,0.024l0.054,0.022l0.054,0.021l0.056,0.02l0.055,0.018l0.056,0.017l0.057,0.015l0.057,0.015l0.058,0.012l0.059,0.012l0.059,0.01l0.059,0.008l0.06,0.007l0.061,0.005l0.061,0.004l0.062,0.003l0.063,0.001l0.063,-0.001l0.062,-0.003l0.061,-0.004l0.061,-0.005l0.06,-0.007l0.059,-0.008l0.059,-0.01l0.059,-0.012l0.058,-0.012l0.057,-0.015l0.057,-0.015l0.056,-0.017l0.056,-0.018l0.055,-0.02l0.054,-0.021l0.054,-0.022l0.053,-0.024l0.053,-0.025l0.052,-0.026l0.052,-0.028l0.051,-0.028l0.05,-0.031l0.049,-0.031l0.049,-0.032l0.048,-0.034l0.047,-0.035l0.046,-0.036l0.046,-0.037l0.045,-0.038l0.043,-0.039l0.043,-0.041l0.042,-0.041l0.041,-0.043l0.04,-0.043l0.039,-0.045l0.038,-0.045l0.037,-0.046l0.036,-0.048l0.035,-0.048l0.033,-0.049l0.033,-0.05l0.031,-0.05l0.03,-0.052l0.029,-0.052l0.028,-0.053l0.026,-0.054l0.025,-0.054l0.024,-0.055l0.023,-0.056l0.021,-0.057l0.02,-0.057l0.018,-0.058l0.017,-0.058l0.016,-0.059l0.014,-0.059l0.013,-0.061l0.012,-0.06l0.01,-0.062l0.009,-0.062l0.007,-0.063l0.005,-0.063l0.004,-0.064l0.003,-0.064l0.001,-0.066l-0.001,-0.065l-0.003,-0.064l-0.004,-0.064l-0.005,-0.064l-0.007,-0.062l-0.009,-0.062l-0.01,-0.062l-0.012,-0.061l-0.013,-0.06l-0.014,-0.059l-0.016,-0.059l-0.017,-0.059l-0.018,-0.058l-0.02,-0.057l-0.021,-0.056l-0.023,-0.056l-0.024,-0.055l-0.025,-0.054l-0.026,-0.054l-0.028,-0.053l-0.029,-0.052l-0.03,-0.052l-0.031,-0.05l-0.033,-0.05l-0.033,-0.049l-0.035,-0.048l-0.036,-0.048l-0.037,-0.046l-0.038,-0.046l-0.039,-0.044l-0.04,-0.044l-0.041,-0.042l-0.042,-0.042l-0.043,-0.04l-0.043,-0.039l-0.045,-0.039l-0.046,-0.037l-0.046,-0.036l-0.047,-0.035l-0.048,-0.033l-0.049,-0.033l-0.049,-0.031l-0.05,-0.03l-0.051,-0.029l-0.052,-0.027l-0.052,-0.026l-0.053,-0.025l-0.053,-0.024l-0.054,-0.022l-0.054,-0.021l-0.055,-0.02l-0.056,-0.018l-0.056,-0.017l-0.057,-0.016l-0.057,-0.014l-0.058,-0.013l-0.059,-0.011l-0.059,-0.01l-0.059,-0.008l-0.06,-0.007l-0.061,-0.006l-0.061,-0.004l-0.062,-0.002l-0.063,-0.001l-0.063,0.001Z" fill="rgba(173,177,181,0.7)"></path>
                <rect class="pk-key" x="80" y="51.5" width="10.2" height="3" fill="rgba(173,177,181,0.7)"></rect>
                <rect class="pk-key" x="81.2" y="54.5" width="2" height="3" fill="rgba(173,177,181,0.7)"></rect>
                <rect class="pk-key" x="85" y="54.5" width="2" height="3" fill="rgba(173,177,181,0.7)"></rect>
          
        </g>
        <g class="joint-table-row-group" onmousedown="QdbdJS.onRowMouseDown()" onmousemove="QdbdJS.onRowMouseMove()" onmouseup="QdbdJS.onRowMouseUp(13)">
          <rect x="0" y="63" class="joint-table-row" width="130" height="31" stroke="none"></rect>
          
          
          <text x="0" y="85" class="joint-field-text" id="v-9297" pointer-events="none" fill="#333" font-size="12px">
            <tspan x="14" y="85" text-anchor="start" class="joint-field-name ">
              name
            </tspan>
            <tspan x="116" y="85" text-anchor="end" class="joint-field-type" fill="#adb1b5">
              string
            </tspan>
          </text>
          
          
        <rect x="0" y="94" class="joint-table-row" width="130" height="6" stroke="none"></rect>
        
        </g>
          </g>
        </g></g><g id="j_722" model-id="a3173f4f-0b60-4816-9fd9-55b503f06b39" class="element basic newt joint-theme-default" magnet="false" fill="#ffffff" stroke="none" transform="translate(880,565)" font-family="Roboto,'Helvetica Neue', sans-serif"><g class="joint-table" onmousedown="QdbdJS.onTableMouseDown(this)" onmouseup="QdbdJS.onTableMouseUp(this)" id="v-9299">
          <rect x="0" y="0" width="99" height="38" class="joint-table-title" onmousedown="QdbdJS.onRowMouseDown()" onmousemove="QdbdJS.onRowMouseMove()" onmouseup="QdbdJS.onRowMouseUp(16)" fill="#005aa0" stroke="#005aa0"></rect>
          <text x="14" y="24" text-anchor="start" class="joint-table-title-text" id="v-9304" pointer-events="none" font-size="14px">Roles</text>
          <g class="joint-table-rows">
            
        <g class="joint-table-row-group" onmousedown="QdbdJS.onRowMouseDown()" onmousemove="QdbdJS.onRowMouseMove()" onmouseup="QdbdJS.onRowMouseUp(18)">
          <rect x="0" y="38" class="joint-table-row" width="99" height="25" stroke="none"></rect>
          
          
          <text x="0" y="60" class="joint-field-text" id="v-9305" pointer-events="none" fill="#333" font-size="12px">
            <tspan x="14" y="60" text-anchor="start" class="joint-field-name pk" fill="#005aa0" font-weight="bold">
              id
            </tspan>
            <tspan x="85" y="60" text-anchor="end" class="joint-field-type" fill="#adb1b5">
              int
            </tspan>
          </text>
          <path class="pk-key" transform="matrix(0.7, 0, 0, 0.7, 48, 47)" d="M22.208,2.205l0.167,0.006l0.167,0.011l0.166,0.015l0.165,0.019l0.164,0.023l0.163,0.028l0.161,0.031l0.16,0.035l0.158,0.039l0.157,0.043l0.156,0.047l0.153,0.051l0.152,0.054l0.151,0.058l0.148,0.061l0.146,0.065l0.145,0.068l0.142,0.072l0.141,0.075l0.138,0.078l0.136,0.082l0.134,0.085l0.132,0.087l0.129,0.091l0.127,0.094l0.125,0.097l0.122,0.099l0.12,0.103l0.117,0.105l0.114,0.108l0.112,0.11l0.11,0.114l0.106,0.116l0.104,0.118l0.101,0.121l0.098,0.123l0.096,0.126l0.092,0.128l0.089,0.13l0.087,0.133l0.083,0.135l0.08,0.137l0.077,0.139l0.074,0.141l0.07,0.144l0.067,0.145l0.064,0.147l0.06,0.149l0.056,0.151l0.053,0.152l0.05,0.154l0.046,0.156l0.042,0.157l0.038,0.159l0.035,0.16l0.03,0.162l0.027,0.162l0.023,0.164l0.018,0.165l0.015,0.167l0.01,0.167l0.007,0.168l0.002,0.168l-0.002,0.169l-0.007,0.168l-0.01,0.167l-0.015,0.166l-0.018,0.166l-0.023,0.163l-0.027,0.163l-0.03,0.162l-0.035,0.16l-0.038,0.159l-0.042,0.157l-0.046,0.156l-0.05,0.154l-0.053,0.152l-0.056,0.151l-0.06,0.149l-0.064,0.147l-0.067,0.145l-0.07,0.143l-0.074,0.142l-0.077,0.139l-0.08,0.137l-0.083,0.135l-0.087,0.132l-0.089,0.131l-0.092,0.128l-0.096,0.125l-0.098,0.124l-0.101,0.121l-0.104,0.118l-0.106,0.116l-0.11,0.113l-0.112,0.111l-0.114,0.108l-0.117,0.105l-0.12,0.103l-0.122,0.099l-0.125,0.097l-0.127,0.094l-0.129,0.09l-0.132,0.088l-0.134,0.085l-0.136,0.081l-0.138,0.078l-0.141,0.076l-0.142,0.071l-0.145,0.069l-0.146,0.064l-0.148,0.062l-0.151,0.058l-0.152,0.054l-0.153,0.05l-0.156,0.047l-0.157,0.043l-0.158,0.039l-0.16,0.036l-0.161,0.031l-0.163,0.027l-0.164,0.024l-0.165,0.019l-0.166,0.015l-0.167,0.01l-0.167,0.007l-0.169,0.002l-0.168,-0.002l-0.168,-0.007l-0.167,-0.01l-0.166,-0.015l-0.165,-0.019l-0.164,-0.024l-0.163,-0.027l-0.161,-0.031l-0.16,-0.036l-0.158,-0.039l-0.157,-0.043l-0.156,-0.047l-0.153,-0.05l-0.152,-0.054l-0.15,-0.058l-0.149,-0.062l-0.146,-0.064l-0.145,-0.069l-0.142,-0.071l-0.141,-0.076l-0.138,-0.078l-0.136,-0.081l-0.134,-0.085l-0.132,-0.088l-0.129,-0.09l-0.127,-0.094l-0.125,-0.097l-0.122,-0.099l-0.12,-0.103l-0.117,-0.105l-0.114,-0.108l-0.112,-0.111l-0.11,-0.113l-0.106,-0.116l-0.104,-0.118l-0.101,-0.121l-0.098,-0.123l-0.096,-0.126l-0.092,-0.128l-0.089,-0.131l-0.087,-0.132l-0.083,-0.135l-0.08,-0.137l-0.077,-0.139l-0.073,-0.142l-0.071,-0.143l-0.067,-0.145l-0.063,-0.147l-0.061,-0.149l-0.056,-0.151l-0.053,-0.152l-0.05,-0.154l-0.046,-0.156l-0.042,-0.157l-0.038,-0.159l-0.035,-0.16l-0.03,-0.162l-0.027,-0.163l-0.023,-0.164l-0.018,-0.165l-0.015,-0.166l-0.01,-0.167l-0.007,-0.168l-0.002,-0.169l0.002,-0.168l0.007,-0.168l0.01,-0.167l0.015,-0.167l0.018,-0.165l0.023,-0.164l0.027,-0.162l0.03,-0.162l0.035,-0.16l0.038,-0.159l0.042,-0.157l0.046,-0.156l0.05,-0.154l0.053,-0.152l0.056,-0.151l0.061,-0.149l0.063,-0.147l0.067,-0.145l0.071,-0.144l0.073,-0.141l0.077,-0.139l0.08,-0.137l0.083,-0.135l0.087,-0.133l0.089,-0.13l0.092,-0.128l0.096,-0.126l0.098,-0.123l0.101,-0.121l0.104,-0.118l0.106,-0.116l0.11,-0.114l0.112,-0.11l0.114,-0.108l0.117,-0.105l0.12,-0.103l0.122,-0.099l0.125,-0.097l0.127,-0.094l0.129,-0.091l0.132,-0.087l0.134,-0.085l0.136,-0.081l0.138,-0.079l0.141,-0.075l0.142,-0.072l0.145,-0.068l0.146,-0.065l0.149,-0.061l0.15,-0.058l0.152,-0.054l0.153,-0.051l0.156,-0.047l0.157,-0.043l0.158,-0.039l0.16,-0.035l0.161,-0.031l0.163,-0.028l0.164,-0.023l0.165,-0.019l0.166,-0.015l0.167,-0.011l0.167,-0.006l0.169,-0.002l0.169,0.002Zm-0.232,4.128l-0.062,0.002l-0.061,0.004l-0.061,0.006l-0.06,0.007l-0.059,0.008l-0.059,0.01l-0.059,0.011l-0.058,0.013l-0.057,0.014l-0.057,0.016l-0.056,0.017l-0.055,0.018l-0.056,0.02l-0.054,0.021l-0.054,0.022l-0.053,0.024l-0.053,0.025l-0.052,0.026l-0.052,0.027l-0.05,0.029l-0.051,0.03l-0.049,0.031l-0.049,0.033l-0.048,0.033l-0.047,0.035l-0.046,0.036l-0.046,0.037l-0.044,0.039l-0.044,0.039l-0.043,0.04l-0.042,0.042l-0.041,0.042l-0.04,0.044l-0.039,0.044l-0.038,0.046l-0.037,0.046l-0.036,0.048l-0.035,0.048l-0.033,0.049l-0.033,0.05l-0.031,0.05l-0.03,0.052l-0.029,0.052l-0.028,0.053l-0.026,0.054l-0.025,0.054l-0.024,0.055l-0.023,0.056l-0.021,0.056l-0.02,0.057l-0.018,0.058l-0.017,0.059l-0.016,0.059l-0.014,0.059l-0.013,0.06l-0.012,0.061l-0.01,0.062l-0.009,0.062l-0.007,0.062l-0.005,0.064l-0.004,0.063l-0.003,0.065l0,0.065l0,0.066l0.003,0.064l0.004,0.064l0.005,0.063l0.007,0.063l0.009,0.062l0.01,0.062l0.012,0.06l0.013,0.061l0.014,0.059l0.016,0.059l0.017,0.058l0.018,0.058l0.02,0.057l0.021,0.057l0.023,0.055l0.024,0.056l0.025,0.054l0.026,0.054l0.028,0.053l0.029,0.052l0.03,0.051l0.031,0.051l0.033,0.05l0.033,0.049l0.035,0.048l0.036,0.047l0.037,0.047l0.038,0.045l0.039,0.045l0.04,0.043l0.041,0.043l0.042,0.041l0.043,0.041l0.044,0.039l0.044,0.038l0.046,0.037l0.046,0.036l0.047,0.035l0.048,0.034l0.049,0.032l0.049,0.032l0.051,0.03l0.05,0.028l0.052,0.028l0.052,0.026l0.053,0.025l0.053,0.024l0.054,0.022l0.054,0.021l0.056,0.02l0.055,0.018l0.056,0.017l0.057,0.015l0.057,0.015l0.058,0.012l0.059,0.012l0.059,0.01l0.059,0.008l0.06,0.007l0.061,0.005l0.061,0.004l0.062,0.003l0.063,0.001l0.063,-0.001l0.062,-0.003l0.061,-0.004l0.061,-0.005l0.06,-0.007l0.059,-0.008l0.059,-0.01l0.059,-0.012l0.058,-0.012l0.057,-0.015l0.057,-0.015l0.056,-0.017l0.056,-0.018l0.055,-0.02l0.054,-0.021l0.054,-0.022l0.053,-0.024l0.053,-0.025l0.052,-0.026l0.052,-0.028l0.051,-0.028l0.05,-0.031l0.049,-0.031l0.049,-0.032l0.048,-0.034l0.047,-0.035l0.046,-0.036l0.046,-0.037l0.045,-0.038l0.043,-0.039l0.043,-0.041l0.042,-0.041l0.041,-0.043l0.04,-0.043l0.039,-0.045l0.038,-0.045l0.037,-0.046l0.036,-0.048l0.035,-0.048l0.033,-0.049l0.033,-0.05l0.031,-0.05l0.03,-0.052l0.029,-0.052l0.028,-0.053l0.026,-0.054l0.025,-0.054l0.024,-0.055l0.023,-0.056l0.021,-0.057l0.02,-0.057l0.018,-0.058l0.017,-0.058l0.016,-0.059l0.014,-0.059l0.013,-0.061l0.012,-0.06l0.01,-0.062l0.009,-0.062l0.007,-0.063l0.005,-0.063l0.004,-0.064l0.003,-0.064l0.001,-0.066l-0.001,-0.065l-0.003,-0.064l-0.004,-0.064l-0.005,-0.064l-0.007,-0.062l-0.009,-0.062l-0.01,-0.062l-0.012,-0.061l-0.013,-0.06l-0.014,-0.059l-0.016,-0.059l-0.017,-0.059l-0.018,-0.058l-0.02,-0.057l-0.021,-0.056l-0.023,-0.056l-0.024,-0.055l-0.025,-0.054l-0.026,-0.054l-0.028,-0.053l-0.029,-0.052l-0.03,-0.052l-0.031,-0.05l-0.033,-0.05l-0.033,-0.049l-0.035,-0.048l-0.036,-0.048l-0.037,-0.046l-0.038,-0.046l-0.039,-0.044l-0.04,-0.044l-0.041,-0.042l-0.042,-0.042l-0.043,-0.04l-0.043,-0.039l-0.045,-0.039l-0.046,-0.037l-0.046,-0.036l-0.047,-0.035l-0.048,-0.033l-0.049,-0.033l-0.049,-0.031l-0.05,-0.03l-0.051,-0.029l-0.052,-0.027l-0.052,-0.026l-0.053,-0.025l-0.053,-0.024l-0.054,-0.022l-0.054,-0.021l-0.055,-0.02l-0.056,-0.018l-0.056,-0.017l-0.057,-0.016l-0.057,-0.014l-0.058,-0.013l-0.059,-0.011l-0.059,-0.01l-0.059,-0.008l-0.06,-0.007l-0.061,-0.006l-0.061,-0.004l-0.062,-0.002l-0.063,-0.001l-0.063,0.001Z" fill="rgba(173,177,181,0.7)"></path>
                <rect class="pk-key" x="49" y="51.5" width="10.2" height="3" fill="rgba(173,177,181,0.7)"></rect>
                <rect class="pk-key" x="50.2" y="54.5" width="2" height="3" fill="rgba(173,177,181,0.7)"></rect>
                <rect class="pk-key" x="54" y="54.5" width="2" height="3" fill="rgba(173,177,181,0.7)"></rect>
          
        </g>
        <g class="joint-table-row-group" onmousedown="QdbdJS.onRowMouseDown()" onmousemove="QdbdJS.onRowMouseMove()" onmouseup="QdbdJS.onRowMouseUp(19)">
          <rect x="0" y="63" class="joint-table-row" width="99" height="31" stroke="none"></rect>
          
          
          <text x="0" y="85" class="joint-field-text" id="v-9306" pointer-events="none" fill="#333" font-size="12px">
            <tspan x="14" y="85" text-anchor="start" class="joint-field-name ">
              name
            </tspan>
            <tspan x="85" y="85" text-anchor="end" class="joint-field-type" fill="#adb1b5">
              string
            </tspan>
          </text>
          
          
        <rect x="0" y="94" class="joint-table-row" width="99" height="6" stroke="none"></rect>
        
        </g>
          </g>
        </g></g><g id="j_723" model-id="1765c5b1-9db6-455b-82c7-c1a2a3eb64c9" class="element basic newt joint-theme-default" magnet="false" fill="#ffffff" stroke="none" transform="translate(900,294)" font-family="Roboto,'Helvetica Neue', sans-serif"><g class="joint-table" onmousedown="QdbdJS.onTableMouseDown(this)" onmouseup="QdbdJS.onTableMouseUp(this)" id="v-9308">
          <rect x="0" y="0" width="104" height="38" class="joint-table-title" onmousedown="QdbdJS.onRowMouseDown()" onmousemove="QdbdJS.onRowMouseMove()" onmouseup="QdbdJS.onRowMouseUp(21)" fill="#005aa0" stroke="#005aa0"></rect>
          <text x="14" y="24" text-anchor="start" class="joint-table-title-text" id="v-9315" pointer-events="none" font-size="14px">Projects</text>
          <g class="joint-table-rows">
            
        <g class="joint-table-row-group" onmousedown="QdbdJS.onRowMouseDown()" onmousemove="QdbdJS.onRowMouseMove()" onmouseup="QdbdJS.onRowMouseUp(23)">
          <rect x="0" y="38" class="joint-table-row" width="104" height="25" stroke="none"></rect>
          
          
          <text x="0" y="60" class="joint-field-text" id="v-9316" pointer-events="none" fill="#333" font-size="12px">
            <tspan x="14" y="60" text-anchor="start" class="joint-field-name pk" fill="#005aa0" font-weight="bold">
              id
            </tspan>
            <tspan x="90" y="60" text-anchor="end" class="joint-field-type" fill="#adb1b5">
              int
            </tspan>
          </text>
          <path class="pk-key" transform="matrix(0.7, 0, 0, 0.7, 53, 47)" d="M22.208,2.205l0.167,0.006l0.167,0.011l0.166,0.015l0.165,0.019l0.164,0.023l0.163,0.028l0.161,0.031l0.16,0.035l0.158,0.039l0.157,0.043l0.156,0.047l0.153,0.051l0.152,0.054l0.151,0.058l0.148,0.061l0.146,0.065l0.145,0.068l0.142,0.072l0.141,0.075l0.138,0.078l0.136,0.082l0.134,0.085l0.132,0.087l0.129,0.091l0.127,0.094l0.125,0.097l0.122,0.099l0.12,0.103l0.117,0.105l0.114,0.108l0.112,0.11l0.11,0.114l0.106,0.116l0.104,0.118l0.101,0.121l0.098,0.123l0.096,0.126l0.092,0.128l0.089,0.13l0.087,0.133l0.083,0.135l0.08,0.137l0.077,0.139l0.074,0.141l0.07,0.144l0.067,0.145l0.064,0.147l0.06,0.149l0.056,0.151l0.053,0.152l0.05,0.154l0.046,0.156l0.042,0.157l0.038,0.159l0.035,0.16l0.03,0.162l0.027,0.162l0.023,0.164l0.018,0.165l0.015,0.167l0.01,0.167l0.007,0.168l0.002,0.168l-0.002,0.169l-0.007,0.168l-0.01,0.167l-0.015,0.166l-0.018,0.166l-0.023,0.163l-0.027,0.163l-0.03,0.162l-0.035,0.16l-0.038,0.159l-0.042,0.157l-0.046,0.156l-0.05,0.154l-0.053,0.152l-0.056,0.151l-0.06,0.149l-0.064,0.147l-0.067,0.145l-0.07,0.143l-0.074,0.142l-0.077,0.139l-0.08,0.137l-0.083,0.135l-0.087,0.132l-0.089,0.131l-0.092,0.128l-0.096,0.125l-0.098,0.124l-0.101,0.121l-0.104,0.118l-0.106,0.116l-0.11,0.113l-0.112,0.111l-0.114,0.108l-0.117,0.105l-0.12,0.103l-0.122,0.099l-0.125,0.097l-0.127,0.094l-0.129,0.09l-0.132,0.088l-0.134,0.085l-0.136,0.081l-0.138,0.078l-0.141,0.076l-0.142,0.071l-0.145,0.069l-0.146,0.064l-0.148,0.062l-0.151,0.058l-0.152,0.054l-0.153,0.05l-0.156,0.047l-0.157,0.043l-0.158,0.039l-0.16,0.036l-0.161,0.031l-0.163,0.027l-0.164,0.024l-0.165,0.019l-0.166,0.015l-0.167,0.01l-0.167,0.007l-0.169,0.002l-0.168,-0.002l-0.168,-0.007l-0.167,-0.01l-0.166,-0.015l-0.165,-0.019l-0.164,-0.024l-0.163,-0.027l-0.161,-0.031l-0.16,-0.036l-0.158,-0.039l-0.157,-0.043l-0.156,-0.047l-0.153,-0.05l-0.152,-0.054l-0.15,-0.058l-0.149,-0.062l-0.146,-0.064l-0.145,-0.069l-0.142,-0.071l-0.141,-0.076l-0.138,-0.078l-0.136,-0.081l-0.134,-0.085l-0.132,-0.088l-0.129,-0.09l-0.127,-0.094l-0.125,-0.097l-0.122,-0.099l-0.12,-0.103l-0.117,-0.105l-0.114,-0.108l-0.112,-0.111l-0.11,-0.113l-0.106,-0.116l-0.104,-0.118l-0.101,-0.121l-0.098,-0.123l-0.096,-0.126l-0.092,-0.128l-0.089,-0.131l-0.087,-0.132l-0.083,-0.135l-0.08,-0.137l-0.077,-0.139l-0.073,-0.142l-0.071,-0.143l-0.067,-0.145l-0.063,-0.147l-0.061,-0.149l-0.056,-0.151l-0.053,-0.152l-0.05,-0.154l-0.046,-0.156l-0.042,-0.157l-0.038,-0.159l-0.035,-0.16l-0.03,-0.162l-0.027,-0.163l-0.023,-0.164l-0.018,-0.165l-0.015,-0.166l-0.01,-0.167l-0.007,-0.168l-0.002,-0.169l0.002,-0.168l0.007,-0.168l0.01,-0.167l0.015,-0.167l0.018,-0.165l0.023,-0.164l0.027,-0.162l0.03,-0.162l0.035,-0.16l0.038,-0.159l0.042,-0.157l0.046,-0.156l0.05,-0.154l0.053,-0.152l0.056,-0.151l0.061,-0.149l0.063,-0.147l0.067,-0.145l0.071,-0.144l0.073,-0.141l0.077,-0.139l0.08,-0.137l0.083,-0.135l0.087,-0.133l0.089,-0.13l0.092,-0.128l0.096,-0.126l0.098,-0.123l0.101,-0.121l0.104,-0.118l0.106,-0.116l0.11,-0.114l0.112,-0.11l0.114,-0.108l0.117,-0.105l0.12,-0.103l0.122,-0.099l0.125,-0.097l0.127,-0.094l0.129,-0.091l0.132,-0.087l0.134,-0.085l0.136,-0.081l0.138,-0.079l0.141,-0.075l0.142,-0.072l0.145,-0.068l0.146,-0.065l0.149,-0.061l0.15,-0.058l0.152,-0.054l0.153,-0.051l0.156,-0.047l0.157,-0.043l0.158,-0.039l0.16,-0.035l0.161,-0.031l0.163,-0.028l0.164,-0.023l0.165,-0.019l0.166,-0.015l0.167,-0.011l0.167,-0.006l0.169,-0.002l0.169,0.002Zm-0.232,4.128l-0.062,0.002l-0.061,0.004l-0.061,0.006l-0.06,0.007l-0.059,0.008l-0.059,0.01l-0.059,0.011l-0.058,0.013l-0.057,0.014l-0.057,0.016l-0.056,0.017l-0.055,0.018l-0.056,0.02l-0.054,0.021l-0.054,0.022l-0.053,0.024l-0.053,0.025l-0.052,0.026l-0.052,0.027l-0.05,0.029l-0.051,0.03l-0.049,0.031l-0.049,0.033l-0.048,0.033l-0.047,0.035l-0.046,0.036l-0.046,0.037l-0.044,0.039l-0.044,0.039l-0.043,0.04l-0.042,0.042l-0.041,0.042l-0.04,0.044l-0.039,0.044l-0.038,0.046l-0.037,0.046l-0.036,0.048l-0.035,0.048l-0.033,0.049l-0.033,0.05l-0.031,0.05l-0.03,0.052l-0.029,0.052l-0.028,0.053l-0.026,0.054l-0.025,0.054l-0.024,0.055l-0.023,0.056l-0.021,0.056l-0.02,0.057l-0.018,0.058l-0.017,0.059l-0.016,0.059l-0.014,0.059l-0.013,0.06l-0.012,0.061l-0.01,0.062l-0.009,0.062l-0.007,0.062l-0.005,0.064l-0.004,0.063l-0.003,0.065l0,0.065l0,0.066l0.003,0.064l0.004,0.064l0.005,0.063l0.007,0.063l0.009,0.062l0.01,0.062l0.012,0.06l0.013,0.061l0.014,0.059l0.016,0.059l0.017,0.058l0.018,0.058l0.02,0.057l0.021,0.057l0.023,0.055l0.024,0.056l0.025,0.054l0.026,0.054l0.028,0.053l0.029,0.052l0.03,0.051l0.031,0.051l0.033,0.05l0.033,0.049l0.035,0.048l0.036,0.047l0.037,0.047l0.038,0.045l0.039,0.045l0.04,0.043l0.041,0.043l0.042,0.041l0.043,0.041l0.044,0.039l0.044,0.038l0.046,0.037l0.046,0.036l0.047,0.035l0.048,0.034l0.049,0.032l0.049,0.032l0.051,0.03l0.05,0.028l0.052,0.028l0.052,0.026l0.053,0.025l0.053,0.024l0.054,0.022l0.054,0.021l0.056,0.02l0.055,0.018l0.056,0.017l0.057,0.015l0.057,0.015l0.058,0.012l0.059,0.012l0.059,0.01l0.059,0.008l0.06,0.007l0.061,0.005l0.061,0.004l0.062,0.003l0.063,0.001l0.063,-0.001l0.062,-0.003l0.061,-0.004l0.061,-0.005l0.06,-0.007l0.059,-0.008l0.059,-0.01l0.059,-0.012l0.058,-0.012l0.057,-0.015l0.057,-0.015l0.056,-0.017l0.056,-0.018l0.055,-0.02l0.054,-0.021l0.054,-0.022l0.053,-0.024l0.053,-0.025l0.052,-0.026l0.052,-0.028l0.051,-0.028l0.05,-0.031l0.049,-0.031l0.049,-0.032l0.048,-0.034l0.047,-0.035l0.046,-0.036l0.046,-0.037l0.045,-0.038l0.043,-0.039l0.043,-0.041l0.042,-0.041l0.041,-0.043l0.04,-0.043l0.039,-0.045l0.038,-0.045l0.037,-0.046l0.036,-0.048l0.035,-0.048l0.033,-0.049l0.033,-0.05l0.031,-0.05l0.03,-0.052l0.029,-0.052l0.028,-0.053l0.026,-0.054l0.025,-0.054l0.024,-0.055l0.023,-0.056l0.021,-0.057l0.02,-0.057l0.018,-0.058l0.017,-0.058l0.016,-0.059l0.014,-0.059l0.013,-0.061l0.012,-0.06l0.01,-0.062l0.009,-0.062l0.007,-0.063l0.005,-0.063l0.004,-0.064l0.003,-0.064l0.001,-0.066l-0.001,-0.065l-0.003,-0.064l-0.004,-0.064l-0.005,-0.064l-0.007,-0.062l-0.009,-0.062l-0.01,-0.062l-0.012,-0.061l-0.013,-0.06l-0.014,-0.059l-0.016,-0.059l-0.017,-0.059l-0.018,-0.058l-0.02,-0.057l-0.021,-0.056l-0.023,-0.056l-0.024,-0.055l-0.025,-0.054l-0.026,-0.054l-0.028,-0.053l-0.029,-0.052l-0.03,-0.052l-0.031,-0.05l-0.033,-0.05l-0.033,-0.049l-0.035,-0.048l-0.036,-0.048l-0.037,-0.046l-0.038,-0.046l-0.039,-0.044l-0.04,-0.044l-0.041,-0.042l-0.042,-0.042l-0.043,-0.04l-0.043,-0.039l-0.045,-0.039l-0.046,-0.037l-0.046,-0.036l-0.047,-0.035l-0.048,-0.033l-0.049,-0.033l-0.049,-0.031l-0.05,-0.03l-0.051,-0.029l-0.052,-0.027l-0.052,-0.026l-0.053,-0.025l-0.053,-0.024l-0.054,-0.022l-0.054,-0.021l-0.055,-0.02l-0.056,-0.018l-0.056,-0.017l-0.057,-0.016l-0.057,-0.014l-0.058,-0.013l-0.059,-0.011l-0.059,-0.01l-0.059,-0.008l-0.06,-0.007l-0.061,-0.006l-0.061,-0.004l-0.062,-0.002l-0.063,-0.001l-0.063,0.001Z" fill="rgba(173,177,181,0.7)"></path>
                <rect class="pk-key" x="54" y="51.5" width="10.2" height="3" fill="rgba(173,177,181,0.7)"></rect>
                <rect class="pk-key" x="55.2" y="54.5" width="2" height="3" fill="rgba(173,177,181,0.7)"></rect>
                <rect class="pk-key" x="59" y="54.5" width="2" height="3" fill="rgba(173,177,181,0.7)"></rect>
          
        </g>
        <g class="joint-table-row-group" onmousedown="QdbdJS.onRowMouseDown()" onmousemove="QdbdJS.onRowMouseMove()" onmouseup="QdbdJS.onRowMouseUp(24)">
          <rect x="0" y="63" class="joint-table-row" width="104" height="25" stroke="none"></rect>
          
          
          <text x="0" y="85" class="joint-field-text" id="v-9317" pointer-events="none" fill="#333" font-size="12px">
            <tspan x="14" y="85" text-anchor="start" class="joint-field-name ">
              name
            </tspan>
            <tspan x="90" y="85" text-anchor="end" class="joint-field-type" fill="#adb1b5">
              string
            </tspan>
          </text>
          
          
        </g>
        <g class="joint-table-row-group" onmousedown="QdbdJS.onRowMouseDown()" onmousemove="QdbdJS.onRowMouseMove()" onmouseup="QdbdJS.onRowMouseUp(25)">
          <rect x="0" y="88" class="joint-table-row" width="104" height="31" stroke="none"></rect>
          
          
          <text x="0" y="110" class="joint-field-text" id="v-9318" pointer-events="none" fill="#333" font-size="12px">
            <tspan x="14" y="110" text-anchor="start" class="joint-field-name ">
              desc
            </tspan>
            <tspan x="90" y="110" text-anchor="end" class="joint-field-type" fill="#adb1b5">
              string
            </tspan>
          </text>
          
          
        <rect x="0" y="119" class="joint-table-row" width="104" height="6" stroke="none"></rect>
        
        </g>
          </g>
        </g></g><g id="j_724" model-id="0f4b8cdb-b514-40ad-9b43-d8e2a9f4f07a" class="element basic newt joint-theme-default" magnet="false" fill="#ffffff" stroke="none" transform="translate(346,656)" font-family="Roboto,'Helvetica Neue', sans-serif"><g class="joint-table" onmousedown="QdbdJS.onTableMouseDown(this)" onmouseup="QdbdJS.onTableMouseUp(this)" id="v-9320">
          <rect x="0" y="0" width="216" height="38" class="joint-table-title" onmousedown="QdbdJS.onRowMouseDown()" onmousemove="QdbdJS.onRowMouseMove()" onmouseup="QdbdJS.onRowMouseUp(29)" fill="#005aa0" stroke="#005aa0"></rect>
          <text x="14" y="24" text-anchor="start" class="joint-table-title-text" id="v-9329" pointer-events="none" font-size="14px">Project_members</text>
          <g class="joint-table-rows">
            
        <g class="joint-table-row-group" onmousedown="QdbdJS.onRowMouseDown()" onmousemove="QdbdJS.onRowMouseMove()" onmouseup="QdbdJS.onRowMouseUp(31)">
          <rect x="0" y="38" class="joint-table-row" width="216" height="25" stroke="none"></rect>
          
          
          <text x="0" y="60" class="joint-field-text" id="v-9330" pointer-events="none" fill="#333" font-size="12px">
            <tspan x="14" y="60" text-anchor="start" class="joint-field-name pk" fill="#005aa0" font-weight="bold">
              id
            </tspan>
            <tspan x="202" y="60" text-anchor="end" class="joint-field-type" fill="#adb1b5">
              int
            </tspan>
          </text>
          <path class="pk-key" transform="matrix(0.7, 0, 0, 0.7, 165, 47)" d="M22.208,2.205l0.167,0.006l0.167,0.011l0.166,0.015l0.165,0.019l0.164,0.023l0.163,0.028l0.161,0.031l0.16,0.035l0.158,0.039l0.157,0.043l0.156,0.047l0.153,0.051l0.152,0.054l0.151,0.058l0.148,0.061l0.146,0.065l0.145,0.068l0.142,0.072l0.141,0.075l0.138,0.078l0.136,0.082l0.134,0.085l0.132,0.087l0.129,0.091l0.127,0.094l0.125,0.097l0.122,0.099l0.12,0.103l0.117,0.105l0.114,0.108l0.112,0.11l0.11,0.114l0.106,0.116l0.104,0.118l0.101,0.121l0.098,0.123l0.096,0.126l0.092,0.128l0.089,0.13l0.087,0.133l0.083,0.135l0.08,0.137l0.077,0.139l0.074,0.141l0.07,0.144l0.067,0.145l0.064,0.147l0.06,0.149l0.056,0.151l0.053,0.152l0.05,0.154l0.046,0.156l0.042,0.157l0.038,0.159l0.035,0.16l0.03,0.162l0.027,0.162l0.023,0.164l0.018,0.165l0.015,0.167l0.01,0.167l0.007,0.168l0.002,0.168l-0.002,0.169l-0.007,0.168l-0.01,0.167l-0.015,0.166l-0.018,0.166l-0.023,0.163l-0.027,0.163l-0.03,0.162l-0.035,0.16l-0.038,0.159l-0.042,0.157l-0.046,0.156l-0.05,0.154l-0.053,0.152l-0.056,0.151l-0.06,0.149l-0.064,0.147l-0.067,0.145l-0.07,0.143l-0.074,0.142l-0.077,0.139l-0.08,0.137l-0.083,0.135l-0.087,0.132l-0.089,0.131l-0.092,0.128l-0.096,0.125l-0.098,0.124l-0.101,0.121l-0.104,0.118l-0.106,0.116l-0.11,0.113l-0.112,0.111l-0.114,0.108l-0.117,0.105l-0.12,0.103l-0.122,0.099l-0.125,0.097l-0.127,0.094l-0.129,0.09l-0.132,0.088l-0.134,0.085l-0.136,0.081l-0.138,0.078l-0.141,0.076l-0.142,0.071l-0.145,0.069l-0.146,0.064l-0.148,0.062l-0.151,0.058l-0.152,0.054l-0.153,0.05l-0.156,0.047l-0.157,0.043l-0.158,0.039l-0.16,0.036l-0.161,0.031l-0.163,0.027l-0.164,0.024l-0.165,0.019l-0.166,0.015l-0.167,0.01l-0.167,0.007l-0.169,0.002l-0.168,-0.002l-0.168,-0.007l-0.167,-0.01l-0.166,-0.015l-0.165,-0.019l-0.164,-0.024l-0.163,-0.027l-0.161,-0.031l-0.16,-0.036l-0.158,-0.039l-0.157,-0.043l-0.156,-0.047l-0.153,-0.05l-0.152,-0.054l-0.15,-0.058l-0.149,-0.062l-0.146,-0.064l-0.145,-0.069l-0.142,-0.071l-0.141,-0.076l-0.138,-0.078l-0.136,-0.081l-0.134,-0.085l-0.132,-0.088l-0.129,-0.09l-0.127,-0.094l-0.125,-0.097l-0.122,-0.099l-0.12,-0.103l-0.117,-0.105l-0.114,-0.108l-0.112,-0.111l-0.11,-0.113l-0.106,-0.116l-0.104,-0.118l-0.101,-0.121l-0.098,-0.123l-0.096,-0.126l-0.092,-0.128l-0.089,-0.131l-0.087,-0.132l-0.083,-0.135l-0.08,-0.137l-0.077,-0.139l-0.073,-0.142l-0.071,-0.143l-0.067,-0.145l-0.063,-0.147l-0.061,-0.149l-0.056,-0.151l-0.053,-0.152l-0.05,-0.154l-0.046,-0.156l-0.042,-0.157l-0.038,-0.159l-0.035,-0.16l-0.03,-0.162l-0.027,-0.163l-0.023,-0.164l-0.018,-0.165l-0.015,-0.166l-0.01,-0.167l-0.007,-0.168l-0.002,-0.169l0.002,-0.168l0.007,-0.168l0.01,-0.167l0.015,-0.167l0.018,-0.165l0.023,-0.164l0.027,-0.162l0.03,-0.162l0.035,-0.16l0.038,-0.159l0.042,-0.157l0.046,-0.156l0.05,-0.154l0.053,-0.152l0.056,-0.151l0.061,-0.149l0.063,-0.147l0.067,-0.145l0.071,-0.144l0.073,-0.141l0.077,-0.139l0.08,-0.137l0.083,-0.135l0.087,-0.133l0.089,-0.13l0.092,-0.128l0.096,-0.126l0.098,-0.123l0.101,-0.121l0.104,-0.118l0.106,-0.116l0.11,-0.114l0.112,-0.11l0.114,-0.108l0.117,-0.105l0.12,-0.103l0.122,-0.099l0.125,-0.097l0.127,-0.094l0.129,-0.091l0.132,-0.087l0.134,-0.085l0.136,-0.081l0.138,-0.079l0.141,-0.075l0.142,-0.072l0.145,-0.068l0.146,-0.065l0.149,-0.061l0.15,-0.058l0.152,-0.054l0.153,-0.051l0.156,-0.047l0.157,-0.043l0.158,-0.039l0.16,-0.035l0.161,-0.031l0.163,-0.028l0.164,-0.023l0.165,-0.019l0.166,-0.015l0.167,-0.011l0.167,-0.006l0.169,-0.002l0.169,0.002Zm-0.232,4.128l-0.062,0.002l-0.061,0.004l-0.061,0.006l-0.06,0.007l-0.059,0.008l-0.059,0.01l-0.059,0.011l-0.058,0.013l-0.057,0.014l-0.057,0.016l-0.056,0.017l-0.055,0.018l-0.056,0.02l-0.054,0.021l-0.054,0.022l-0.053,0.024l-0.053,0.025l-0.052,0.026l-0.052,0.027l-0.05,0.029l-0.051,0.03l-0.049,0.031l-0.049,0.033l-0.048,0.033l-0.047,0.035l-0.046,0.036l-0.046,0.037l-0.044,0.039l-0.044,0.039l-0.043,0.04l-0.042,0.042l-0.041,0.042l-0.04,0.044l-0.039,0.044l-0.038,0.046l-0.037,0.046l-0.036,0.048l-0.035,0.048l-0.033,0.049l-0.033,0.05l-0.031,0.05l-0.03,0.052l-0.029,0.052l-0.028,0.053l-0.026,0.054l-0.025,0.054l-0.024,0.055l-0.023,0.056l-0.021,0.056l-0.02,0.057l-0.018,0.058l-0.017,0.059l-0.016,0.059l-0.014,0.059l-0.013,0.06l-0.012,0.061l-0.01,0.062l-0.009,0.062l-0.007,0.062l-0.005,0.064l-0.004,0.063l-0.003,0.065l0,0.065l0,0.066l0.003,0.064l0.004,0.064l0.005,0.063l0.007,0.063l0.009,0.062l0.01,0.062l0.012,0.06l0.013,0.061l0.014,0.059l0.016,0.059l0.017,0.058l0.018,0.058l0.02,0.057l0.021,0.057l0.023,0.055l0.024,0.056l0.025,0.054l0.026,0.054l0.028,0.053l0.029,0.052l0.03,0.051l0.031,0.051l0.033,0.05l0.033,0.049l0.035,0.048l0.036,0.047l0.037,0.047l0.038,0.045l0.039,0.045l0.04,0.043l0.041,0.043l0.042,0.041l0.043,0.041l0.044,0.039l0.044,0.038l0.046,0.037l0.046,0.036l0.047,0.035l0.048,0.034l0.049,0.032l0.049,0.032l0.051,0.03l0.05,0.028l0.052,0.028l0.052,0.026l0.053,0.025l0.053,0.024l0.054,0.022l0.054,0.021l0.056,0.02l0.055,0.018l0.056,0.017l0.057,0.015l0.057,0.015l0.058,0.012l0.059,0.012l0.059,0.01l0.059,0.008l0.06,0.007l0.061,0.005l0.061,0.004l0.062,0.003l0.063,0.001l0.063,-0.001l0.062,-0.003l0.061,-0.004l0.061,-0.005l0.06,-0.007l0.059,-0.008l0.059,-0.01l0.059,-0.012l0.058,-0.012l0.057,-0.015l0.057,-0.015l0.056,-0.017l0.056,-0.018l0.055,-0.02l0.054,-0.021l0.054,-0.022l0.053,-0.024l0.053,-0.025l0.052,-0.026l0.052,-0.028l0.051,-0.028l0.05,-0.031l0.049,-0.031l0.049,-0.032l0.048,-0.034l0.047,-0.035l0.046,-0.036l0.046,-0.037l0.045,-0.038l0.043,-0.039l0.043,-0.041l0.042,-0.041l0.041,-0.043l0.04,-0.043l0.039,-0.045l0.038,-0.045l0.037,-0.046l0.036,-0.048l0.035,-0.048l0.033,-0.049l0.033,-0.05l0.031,-0.05l0.03,-0.052l0.029,-0.052l0.028,-0.053l0.026,-0.054l0.025,-0.054l0.024,-0.055l0.023,-0.056l0.021,-0.057l0.02,-0.057l0.018,-0.058l0.017,-0.058l0.016,-0.059l0.014,-0.059l0.013,-0.061l0.012,-0.06l0.01,-0.062l0.009,-0.062l0.007,-0.063l0.005,-0.063l0.004,-0.064l0.003,-0.064l0.001,-0.066l-0.001,-0.065l-0.003,-0.064l-0.004,-0.064l-0.005,-0.064l-0.007,-0.062l-0.009,-0.062l-0.01,-0.062l-0.012,-0.061l-0.013,-0.06l-0.014,-0.059l-0.016,-0.059l-0.017,-0.059l-0.018,-0.058l-0.02,-0.057l-0.021,-0.056l-0.023,-0.056l-0.024,-0.055l-0.025,-0.054l-0.026,-0.054l-0.028,-0.053l-0.029,-0.052l-0.03,-0.052l-0.031,-0.05l-0.033,-0.05l-0.033,-0.049l-0.035,-0.048l-0.036,-0.048l-0.037,-0.046l-0.038,-0.046l-0.039,-0.044l-0.04,-0.044l-0.041,-0.042l-0.042,-0.042l-0.043,-0.04l-0.043,-0.039l-0.045,-0.039l-0.046,-0.037l-0.046,-0.036l-0.047,-0.035l-0.048,-0.033l-0.049,-0.033l-0.049,-0.031l-0.05,-0.03l-0.051,-0.029l-0.052,-0.027l-0.052,-0.026l-0.053,-0.025l-0.053,-0.024l-0.054,-0.022l-0.054,-0.021l-0.055,-0.02l-0.056,-0.018l-0.056,-0.017l-0.057,-0.016l-0.057,-0.014l-0.058,-0.013l-0.059,-0.011l-0.059,-0.01l-0.059,-0.008l-0.06,-0.007l-0.061,-0.006l-0.061,-0.004l-0.062,-0.002l-0.063,-0.001l-0.063,0.001Z" fill="rgba(173,177,181,0.7)"></path>
                <rect class="pk-key" x="166" y="51.5" width="10.2" height="3" fill="rgba(173,177,181,0.7)"></rect>
                <rect class="pk-key" x="167.2" y="54.5" width="2" height="3" fill="rgba(173,177,181,0.7)"></rect>
                <rect class="pk-key" x="171" y="54.5" width="2" height="3" fill="rgba(173,177,181,0.7)"></rect>
          
        </g>
        <g class="joint-table-row-group" onmousedown="QdbdJS.onRowMouseDown()" onmousemove="QdbdJS.onRowMouseMove()" onmouseup="QdbdJS.onRowMouseUp(32)">
          <rect x="0" y="63" class="joint-table-row" width="216" height="25" stroke="none"></rect>
          
          
          <text x="0" y="85" class="joint-field-text" id="v-9331" pointer-events="none" fill="#333" font-size="12px">
            <tspan x="14" y="85" text-anchor="start" class="joint-field-name fk" fill="#222" font-weight="bold">
              role_id
            </tspan>
            <tspan x="202" y="85" text-anchor="end" class="joint-field-type" fill="#adb1b5">
              int
            </tspan>
          </text>
          
          
        </g>
        <g class="joint-table-row-group" onmousedown="QdbdJS.onRowMouseDown()" onmousemove="QdbdJS.onRowMouseMove()" onmouseup="QdbdJS.onRowMouseUp(33)">
          <rect x="0" y="88" class="joint-table-row" width="216" height="25" stroke="none"></rect>
          
          
          <text x="0" y="110" class="joint-field-text" id="v-9332" pointer-events="none" fill="#333" font-size="12px">
            <tspan x="14" y="110" text-anchor="start" class="joint-field-name fk" fill="#222" font-weight="bold">
              Classroom_project_id
            </tspan>
            <tspan x="202" y="110" text-anchor="end" class="joint-field-type" fill="#adb1b5">
              int
            </tspan>
          </text>
          
          
        </g>
        <g class="joint-table-row-group" onmousedown="QdbdJS.onRowMouseDown()" onmousemove="QdbdJS.onRowMouseMove()" onmouseup="QdbdJS.onRowMouseUp(34)">
          <rect x="0" y="113" class="joint-table-row" width="216" height="31" stroke="none"></rect>
          
          
          <text x="0" y="135" class="joint-field-text" id="v-9333" pointer-events="none" fill="#333" font-size="12px">
            <tspan x="14" y="135" text-anchor="start" class="joint-field-name fk" fill="#222" font-weight="bold">
              classroom_member_id
            </tspan>
            <tspan x="202" y="135" text-anchor="end" class="joint-field-type" fill="#adb1b5">
              int
            </tspan>
          </text>
          
          
        <rect x="0" y="144" class="joint-table-row" width="216" height="6" stroke="none"></rect>
        
        </g>
          </g>
        </g></g><g id="j_725" model-id="8ec34917-4b58-4973-9ed4-3790c9ca17cb" class="element basic newt joint-theme-default" magnet="false" fill="#ffffff" stroke="none" transform="translate(620,217)" font-family="Roboto,'Helvetica Neue', sans-serif"><g class="joint-table" onmousedown="QdbdJS.onTableMouseDown(this)" onmouseup="QdbdJS.onTableMouseUp(this)" id="v-9335">
          <rect x="0" y="0" width="135" height="38" class="joint-table-title" onmousedown="QdbdJS.onRowMouseDown()" onmousemove="QdbdJS.onRowMouseMove()" onmouseup="QdbdJS.onRowMouseUp(37)" fill="#005aa0" stroke="#005aa0"></rect>
          <text x="14" y="24" text-anchor="start" class="joint-table-title-text" id="v-9342" pointer-events="none" font-size="14px">Classrooms</text>
          <g class="joint-table-rows">
            
        <g class="joint-table-row-group" onmousedown="QdbdJS.onRowMouseDown()" onmousemove="QdbdJS.onRowMouseMove()" onmouseup="QdbdJS.onRowMouseUp(39)">
          <rect x="0" y="38" class="joint-table-row" width="135" height="25" stroke="none"></rect>
          
          
          <text x="0" y="60" class="joint-field-text" id="v-9343" pointer-events="none" fill="#333" font-size="12px">
            <tspan x="14" y="60" text-anchor="start" class="joint-field-name pk" fill="#005aa0" font-weight="bold">
              id
            </tspan>
            <tspan x="121" y="60" text-anchor="end" class="joint-field-type" fill="#adb1b5">
              int
            </tspan>
          </text>
          <path class="pk-key" transform="matrix(0.7, 0, 0, 0.7, 84, 47)" d="M22.208,2.205l0.167,0.006l0.167,0.011l0.166,0.015l0.165,0.019l0.164,0.023l0.163,0.028l0.161,0.031l0.16,0.035l0.158,0.039l0.157,0.043l0.156,0.047l0.153,0.051l0.152,0.054l0.151,0.058l0.148,0.061l0.146,0.065l0.145,0.068l0.142,0.072l0.141,0.075l0.138,0.078l0.136,0.082l0.134,0.085l0.132,0.087l0.129,0.091l0.127,0.094l0.125,0.097l0.122,0.099l0.12,0.103l0.117,0.105l0.114,0.108l0.112,0.11l0.11,0.114l0.106,0.116l0.104,0.118l0.101,0.121l0.098,0.123l0.096,0.126l0.092,0.128l0.089,0.13l0.087,0.133l0.083,0.135l0.08,0.137l0.077,0.139l0.074,0.141l0.07,0.144l0.067,0.145l0.064,0.147l0.06,0.149l0.056,0.151l0.053,0.152l0.05,0.154l0.046,0.156l0.042,0.157l0.038,0.159l0.035,0.16l0.03,0.162l0.027,0.162l0.023,0.164l0.018,0.165l0.015,0.167l0.01,0.167l0.007,0.168l0.002,0.168l-0.002,0.169l-0.007,0.168l-0.01,0.167l-0.015,0.166l-0.018,0.166l-0.023,0.163l-0.027,0.163l-0.03,0.162l-0.035,0.16l-0.038,0.159l-0.042,0.157l-0.046,0.156l-0.05,0.154l-0.053,0.152l-0.056,0.151l-0.06,0.149l-0.064,0.147l-0.067,0.145l-0.07,0.143l-0.074,0.142l-0.077,0.139l-0.08,0.137l-0.083,0.135l-0.087,0.132l-0.089,0.131l-0.092,0.128l-0.096,0.125l-0.098,0.124l-0.101,0.121l-0.104,0.118l-0.106,0.116l-0.11,0.113l-0.112,0.111l-0.114,0.108l-0.117,0.105l-0.12,0.103l-0.122,0.099l-0.125,0.097l-0.127,0.094l-0.129,0.09l-0.132,0.088l-0.134,0.085l-0.136,0.081l-0.138,0.078l-0.141,0.076l-0.142,0.071l-0.145,0.069l-0.146,0.064l-0.148,0.062l-0.151,0.058l-0.152,0.054l-0.153,0.05l-0.156,0.047l-0.157,0.043l-0.158,0.039l-0.16,0.036l-0.161,0.031l-0.163,0.027l-0.164,0.024l-0.165,0.019l-0.166,0.015l-0.167,0.01l-0.167,0.007l-0.169,0.002l-0.168,-0.002l-0.168,-0.007l-0.167,-0.01l-0.166,-0.015l-0.165,-0.019l-0.164,-0.024l-0.163,-0.027l-0.161,-0.031l-0.16,-0.036l-0.158,-0.039l-0.157,-0.043l-0.156,-0.047l-0.153,-0.05l-0.152,-0.054l-0.15,-0.058l-0.149,-0.062l-0.146,-0.064l-0.145,-0.069l-0.142,-0.071l-0.141,-0.076l-0.138,-0.078l-0.136,-0.081l-0.134,-0.085l-0.132,-0.088l-0.129,-0.09l-0.127,-0.094l-0.125,-0.097l-0.122,-0.099l-0.12,-0.103l-0.117,-0.105l-0.114,-0.108l-0.112,-0.111l-0.11,-0.113l-0.106,-0.116l-0.104,-0.118l-0.101,-0.121l-0.098,-0.123l-0.096,-0.126l-0.092,-0.128l-0.089,-0.131l-0.087,-0.132l-0.083,-0.135l-0.08,-0.137l-0.077,-0.139l-0.073,-0.142l-0.071,-0.143l-0.067,-0.145l-0.063,-0.147l-0.061,-0.149l-0.056,-0.151l-0.053,-0.152l-0.05,-0.154l-0.046,-0.156l-0.042,-0.157l-0.038,-0.159l-0.035,-0.16l-0.03,-0.162l-0.027,-0.163l-0.023,-0.164l-0.018,-0.165l-0.015,-0.166l-0.01,-0.167l-0.007,-0.168l-0.002,-0.169l0.002,-0.168l0.007,-0.168l0.01,-0.167l0.015,-0.167l0.018,-0.165l0.023,-0.164l0.027,-0.162l0.03,-0.162l0.035,-0.16l0.038,-0.159l0.042,-0.157l0.046,-0.156l0.05,-0.154l0.053,-0.152l0.056,-0.151l0.061,-0.149l0.063,-0.147l0.067,-0.145l0.071,-0.144l0.073,-0.141l0.077,-0.139l0.08,-0.137l0.083,-0.135l0.087,-0.133l0.089,-0.13l0.092,-0.128l0.096,-0.126l0.098,-0.123l0.101,-0.121l0.104,-0.118l0.106,-0.116l0.11,-0.114l0.112,-0.11l0.114,-0.108l0.117,-0.105l0.12,-0.103l0.122,-0.099l0.125,-0.097l0.127,-0.094l0.129,-0.091l0.132,-0.087l0.134,-0.085l0.136,-0.081l0.138,-0.079l0.141,-0.075l0.142,-0.072l0.145,-0.068l0.146,-0.065l0.149,-0.061l0.15,-0.058l0.152,-0.054l0.153,-0.051l0.156,-0.047l0.157,-0.043l0.158,-0.039l0.16,-0.035l0.161,-0.031l0.163,-0.028l0.164,-0.023l0.165,-0.019l0.166,-0.015l0.167,-0.011l0.167,-0.006l0.169,-0.002l0.169,0.002Zm-0.232,4.128l-0.062,0.002l-0.061,0.004l-0.061,0.006l-0.06,0.007l-0.059,0.008l-0.059,0.01l-0.059,0.011l-0.058,0.013l-0.057,0.014l-0.057,0.016l-0.056,0.017l-0.055,0.018l-0.056,0.02l-0.054,0.021l-0.054,0.022l-0.053,0.024l-0.053,0.025l-0.052,0.026l-0.052,0.027l-0.05,0.029l-0.051,0.03l-0.049,0.031l-0.049,0.033l-0.048,0.033l-0.047,0.035l-0.046,0.036l-0.046,0.037l-0.044,0.039l-0.044,0.039l-0.043,0.04l-0.042,0.042l-0.041,0.042l-0.04,0.044l-0.039,0.044l-0.038,0.046l-0.037,0.046l-0.036,0.048l-0.035,0.048l-0.033,0.049l-0.033,0.05l-0.031,0.05l-0.03,0.052l-0.029,0.052l-0.028,0.053l-0.026,0.054l-0.025,0.054l-0.024,0.055l-0.023,0.056l-0.021,0.056l-0.02,0.057l-0.018,0.058l-0.017,0.059l-0.016,0.059l-0.014,0.059l-0.013,0.06l-0.012,0.061l-0.01,0.062l-0.009,0.062l-0.007,0.062l-0.005,0.064l-0.004,0.063l-0.003,0.065l0,0.065l0,0.066l0.003,0.064l0.004,0.064l0.005,0.063l0.007,0.063l0.009,0.062l0.01,0.062l0.012,0.06l0.013,0.061l0.014,0.059l0.016,0.059l0.017,0.058l0.018,0.058l0.02,0.057l0.021,0.057l0.023,0.055l0.024,0.056l0.025,0.054l0.026,0.054l0.028,0.053l0.029,0.052l0.03,0.051l0.031,0.051l0.033,0.05l0.033,0.049l0.035,0.048l0.036,0.047l0.037,0.047l0.038,0.045l0.039,0.045l0.04,0.043l0.041,0.043l0.042,0.041l0.043,0.041l0.044,0.039l0.044,0.038l0.046,0.037l0.046,0.036l0.047,0.035l0.048,0.034l0.049,0.032l0.049,0.032l0.051,0.03l0.05,0.028l0.052,0.028l0.052,0.026l0.053,0.025l0.053,0.024l0.054,0.022l0.054,0.021l0.056,0.02l0.055,0.018l0.056,0.017l0.057,0.015l0.057,0.015l0.058,0.012l0.059,0.012l0.059,0.01l0.059,0.008l0.06,0.007l0.061,0.005l0.061,0.004l0.062,0.003l0.063,0.001l0.063,-0.001l0.062,-0.003l0.061,-0.004l0.061,-0.005l0.06,-0.007l0.059,-0.008l0.059,-0.01l0.059,-0.012l0.058,-0.012l0.057,-0.015l0.057,-0.015l0.056,-0.017l0.056,-0.018l0.055,-0.02l0.054,-0.021l0.054,-0.022l0.053,-0.024l0.053,-0.025l0.052,-0.026l0.052,-0.028l0.051,-0.028l0.05,-0.031l0.049,-0.031l0.049,-0.032l0.048,-0.034l0.047,-0.035l0.046,-0.036l0.046,-0.037l0.045,-0.038l0.043,-0.039l0.043,-0.041l0.042,-0.041l0.041,-0.043l0.04,-0.043l0.039,-0.045l0.038,-0.045l0.037,-0.046l0.036,-0.048l0.035,-0.048l0.033,-0.049l0.033,-0.05l0.031,-0.05l0.03,-0.052l0.029,-0.052l0.028,-0.053l0.026,-0.054l0.025,-0.054l0.024,-0.055l0.023,-0.056l0.021,-0.057l0.02,-0.057l0.018,-0.058l0.017,-0.058l0.016,-0.059l0.014,-0.059l0.013,-0.061l0.012,-0.06l0.01,-0.062l0.009,-0.062l0.007,-0.063l0.005,-0.063l0.004,-0.064l0.003,-0.064l0.001,-0.066l-0.001,-0.065l-0.003,-0.064l-0.004,-0.064l-0.005,-0.064l-0.007,-0.062l-0.009,-0.062l-0.01,-0.062l-0.012,-0.061l-0.013,-0.06l-0.014,-0.059l-0.016,-0.059l-0.017,-0.059l-0.018,-0.058l-0.02,-0.057l-0.021,-0.056l-0.023,-0.056l-0.024,-0.055l-0.025,-0.054l-0.026,-0.054l-0.028,-0.053l-0.029,-0.052l-0.03,-0.052l-0.031,-0.05l-0.033,-0.05l-0.033,-0.049l-0.035,-0.048l-0.036,-0.048l-0.037,-0.046l-0.038,-0.046l-0.039,-0.044l-0.04,-0.044l-0.041,-0.042l-0.042,-0.042l-0.043,-0.04l-0.043,-0.039l-0.045,-0.039l-0.046,-0.037l-0.046,-0.036l-0.047,-0.035l-0.048,-0.033l-0.049,-0.033l-0.049,-0.031l-0.05,-0.03l-0.051,-0.029l-0.052,-0.027l-0.052,-0.026l-0.053,-0.025l-0.053,-0.024l-0.054,-0.022l-0.054,-0.021l-0.055,-0.02l-0.056,-0.018l-0.056,-0.017l-0.057,-0.016l-0.057,-0.014l-0.058,-0.013l-0.059,-0.011l-0.059,-0.01l-0.059,-0.008l-0.06,-0.007l-0.061,-0.006l-0.061,-0.004l-0.062,-0.002l-0.063,-0.001l-0.063,0.001Z" fill="rgba(173,177,181,0.7)"></path>
                <rect class="pk-key" x="85" y="51.5" width="10.2" height="3" fill="rgba(173,177,181,0.7)"></rect>
                <rect class="pk-key" x="86.2" y="54.5" width="2" height="3" fill="rgba(173,177,181,0.7)"></rect>
                <rect class="pk-key" x="90" y="54.5" width="2" height="3" fill="rgba(173,177,181,0.7)"></rect>
          
        </g>
        <g class="joint-table-row-group" onmousedown="QdbdJS.onRowMouseDown()" onmousemove="QdbdJS.onRowMouseMove()" onmouseup="QdbdJS.onRowMouseUp(40)">
          <rect x="0" y="63" class="joint-table-row" width="135" height="25" stroke="none"></rect>
          
          
          <text x="0" y="85" class="joint-field-text" id="v-9344" pointer-events="none" fill="#333" font-size="12px">
            <tspan x="14" y="85" text-anchor="start" class="joint-field-name ">
              name
            </tspan>
            <tspan x="121" y="85" text-anchor="end" class="joint-field-type" fill="#adb1b5">
              string
            </tspan>
          </text>
          
          
        </g>
        <g class="joint-table-row-group" onmousedown="QdbdJS.onRowMouseDown()" onmousemove="QdbdJS.onRowMouseMove()" onmouseup="QdbdJS.onRowMouseUp(41)">
          <rect x="0" y="88" class="joint-table-row" width="135" height="31" stroke="none"></rect>
          
          
          <text x="0" y="110" class="joint-field-text" id="v-9345" pointer-events="none" fill="#333" font-size="12px">
            <tspan x="14" y="110" text-anchor="start" class="joint-field-name ">
              password
            </tspan>
            <tspan x="121" y="110" text-anchor="end" class="joint-field-type" fill="#adb1b5">
              string
            </tspan>
          </text>
          
          
        <rect x="0" y="119" class="joint-table-row" width="135" height="6" stroke="none"></rect>
        
        </g>
          </g>
        </g></g><g id="j_726" model-id="ba2f7e1a-7cb7-4827-a15a-37c44185d2bf" class="element basic newt joint-theme-default" magnet="false" fill="#ffffff" stroke="none" transform="translate(1136,440)" font-family="Roboto,'Helvetica Neue', sans-serif"><g class="joint-table" onmousedown="QdbdJS.onTableMouseDown(this)" onmouseup="QdbdJS.onTableMouseUp(this)" id="v-9347">
          <rect x="0" y="0" width="234" height="38" class="joint-table-title" onmousedown="QdbdJS.onRowMouseDown()" onmousemove="QdbdJS.onRowMouseMove()" onmouseup="QdbdJS.onRowMouseUp(43)" fill="#005aa0" stroke="#005aa0"></rect>
          <text x="14" y="24" text-anchor="start" class="joint-table-title-text" id="v-9354" pointer-events="none" font-size="14px">Classroom_projects</text>
          <g class="joint-table-rows">
            
        <g class="joint-table-row-group" onmousedown="QdbdJS.onRowMouseDown()" onmousemove="QdbdJS.onRowMouseMove()" onmouseup="QdbdJS.onRowMouseUp(45)">
          <rect x="0" y="38" class="joint-table-row" width="234" height="25" stroke="none"></rect>
          
          
          <text x="0" y="60" class="joint-field-text" id="v-9355" pointer-events="none" fill="#333" font-size="12px">
            <tspan x="14" y="60" text-anchor="start" class="joint-field-name pk" fill="#005aa0" font-weight="bold">
              id
            </tspan>
            <tspan x="220" y="60" text-anchor="end" class="joint-field-type" fill="#adb1b5">
              int
            </tspan>
          </text>
          <path class="pk-key" transform="matrix(0.7, 0, 0, 0.7, 183, 47)" d="M22.208,2.205l0.167,0.006l0.167,0.011l0.166,0.015l0.165,0.019l0.164,0.023l0.163,0.028l0.161,0.031l0.16,0.035l0.158,0.039l0.157,0.043l0.156,0.047l0.153,0.051l0.152,0.054l0.151,0.058l0.148,0.061l0.146,0.065l0.145,0.068l0.142,0.072l0.141,0.075l0.138,0.078l0.136,0.082l0.134,0.085l0.132,0.087l0.129,0.091l0.127,0.094l0.125,0.097l0.122,0.099l0.12,0.103l0.117,0.105l0.114,0.108l0.112,0.11l0.11,0.114l0.106,0.116l0.104,0.118l0.101,0.121l0.098,0.123l0.096,0.126l0.092,0.128l0.089,0.13l0.087,0.133l0.083,0.135l0.08,0.137l0.077,0.139l0.074,0.141l0.07,0.144l0.067,0.145l0.064,0.147l0.06,0.149l0.056,0.151l0.053,0.152l0.05,0.154l0.046,0.156l0.042,0.157l0.038,0.159l0.035,0.16l0.03,0.162l0.027,0.162l0.023,0.164l0.018,0.165l0.015,0.167l0.01,0.167l0.007,0.168l0.002,0.168l-0.002,0.169l-0.007,0.168l-0.01,0.167l-0.015,0.166l-0.018,0.166l-0.023,0.163l-0.027,0.163l-0.03,0.162l-0.035,0.16l-0.038,0.159l-0.042,0.157l-0.046,0.156l-0.05,0.154l-0.053,0.152l-0.056,0.151l-0.06,0.149l-0.064,0.147l-0.067,0.145l-0.07,0.143l-0.074,0.142l-0.077,0.139l-0.08,0.137l-0.083,0.135l-0.087,0.132l-0.089,0.131l-0.092,0.128l-0.096,0.125l-0.098,0.124l-0.101,0.121l-0.104,0.118l-0.106,0.116l-0.11,0.113l-0.112,0.111l-0.114,0.108l-0.117,0.105l-0.12,0.103l-0.122,0.099l-0.125,0.097l-0.127,0.094l-0.129,0.09l-0.132,0.088l-0.134,0.085l-0.136,0.081l-0.138,0.078l-0.141,0.076l-0.142,0.071l-0.145,0.069l-0.146,0.064l-0.148,0.062l-0.151,0.058l-0.152,0.054l-0.153,0.05l-0.156,0.047l-0.157,0.043l-0.158,0.039l-0.16,0.036l-0.161,0.031l-0.163,0.027l-0.164,0.024l-0.165,0.019l-0.166,0.015l-0.167,0.01l-0.167,0.007l-0.169,0.002l-0.168,-0.002l-0.168,-0.007l-0.167,-0.01l-0.166,-0.015l-0.165,-0.019l-0.164,-0.024l-0.163,-0.027l-0.161,-0.031l-0.16,-0.036l-0.158,-0.039l-0.157,-0.043l-0.156,-0.047l-0.153,-0.05l-0.152,-0.054l-0.15,-0.058l-0.149,-0.062l-0.146,-0.064l-0.145,-0.069l-0.142,-0.071l-0.141,-0.076l-0.138,-0.078l-0.136,-0.081l-0.134,-0.085l-0.132,-0.088l-0.129,-0.09l-0.127,-0.094l-0.125,-0.097l-0.122,-0.099l-0.12,-0.103l-0.117,-0.105l-0.114,-0.108l-0.112,-0.111l-0.11,-0.113l-0.106,-0.116l-0.104,-0.118l-0.101,-0.121l-0.098,-0.123l-0.096,-0.126l-0.092,-0.128l-0.089,-0.131l-0.087,-0.132l-0.083,-0.135l-0.08,-0.137l-0.077,-0.139l-0.073,-0.142l-0.071,-0.143l-0.067,-0.145l-0.063,-0.147l-0.061,-0.149l-0.056,-0.151l-0.053,-0.152l-0.05,-0.154l-0.046,-0.156l-0.042,-0.157l-0.038,-0.159l-0.035,-0.16l-0.03,-0.162l-0.027,-0.163l-0.023,-0.164l-0.018,-0.165l-0.015,-0.166l-0.01,-0.167l-0.007,-0.168l-0.002,-0.169l0.002,-0.168l0.007,-0.168l0.01,-0.167l0.015,-0.167l0.018,-0.165l0.023,-0.164l0.027,-0.162l0.03,-0.162l0.035,-0.16l0.038,-0.159l0.042,-0.157l0.046,-0.156l0.05,-0.154l0.053,-0.152l0.056,-0.151l0.061,-0.149l0.063,-0.147l0.067,-0.145l0.071,-0.144l0.073,-0.141l0.077,-0.139l0.08,-0.137l0.083,-0.135l0.087,-0.133l0.089,-0.13l0.092,-0.128l0.096,-0.126l0.098,-0.123l0.101,-0.121l0.104,-0.118l0.106,-0.116l0.11,-0.114l0.112,-0.11l0.114,-0.108l0.117,-0.105l0.12,-0.103l0.122,-0.099l0.125,-0.097l0.127,-0.094l0.129,-0.091l0.132,-0.087l0.134,-0.085l0.136,-0.081l0.138,-0.079l0.141,-0.075l0.142,-0.072l0.145,-0.068l0.146,-0.065l0.149,-0.061l0.15,-0.058l0.152,-0.054l0.153,-0.051l0.156,-0.047l0.157,-0.043l0.158,-0.039l0.16,-0.035l0.161,-0.031l0.163,-0.028l0.164,-0.023l0.165,-0.019l0.166,-0.015l0.167,-0.011l0.167,-0.006l0.169,-0.002l0.169,0.002Zm-0.232,4.128l-0.062,0.002l-0.061,0.004l-0.061,0.006l-0.06,0.007l-0.059,0.008l-0.059,0.01l-0.059,0.011l-0.058,0.013l-0.057,0.014l-0.057,0.016l-0.056,0.017l-0.055,0.018l-0.056,0.02l-0.054,0.021l-0.054,0.022l-0.053,0.024l-0.053,0.025l-0.052,0.026l-0.052,0.027l-0.05,0.029l-0.051,0.03l-0.049,0.031l-0.049,0.033l-0.048,0.033l-0.047,0.035l-0.046,0.036l-0.046,0.037l-0.044,0.039l-0.044,0.039l-0.043,0.04l-0.042,0.042l-0.041,0.042l-0.04,0.044l-0.039,0.044l-0.038,0.046l-0.037,0.046l-0.036,0.048l-0.035,0.048l-0.033,0.049l-0.033,0.05l-0.031,0.05l-0.03,0.052l-0.029,0.052l-0.028,0.053l-0.026,0.054l-0.025,0.054l-0.024,0.055l-0.023,0.056l-0.021,0.056l-0.02,0.057l-0.018,0.058l-0.017,0.059l-0.016,0.059l-0.014,0.059l-0.013,0.06l-0.012,0.061l-0.01,0.062l-0.009,0.062l-0.007,0.062l-0.005,0.064l-0.004,0.063l-0.003,0.065l0,0.065l0,0.066l0.003,0.064l0.004,0.064l0.005,0.063l0.007,0.063l0.009,0.062l0.01,0.062l0.012,0.06l0.013,0.061l0.014,0.059l0.016,0.059l0.017,0.058l0.018,0.058l0.02,0.057l0.021,0.057l0.023,0.055l0.024,0.056l0.025,0.054l0.026,0.054l0.028,0.053l0.029,0.052l0.03,0.051l0.031,0.051l0.033,0.05l0.033,0.049l0.035,0.048l0.036,0.047l0.037,0.047l0.038,0.045l0.039,0.045l0.04,0.043l0.041,0.043l0.042,0.041l0.043,0.041l0.044,0.039l0.044,0.038l0.046,0.037l0.046,0.036l0.047,0.035l0.048,0.034l0.049,0.032l0.049,0.032l0.051,0.03l0.05,0.028l0.052,0.028l0.052,0.026l0.053,0.025l0.053,0.024l0.054,0.022l0.054,0.021l0.056,0.02l0.055,0.018l0.056,0.017l0.057,0.015l0.057,0.015l0.058,0.012l0.059,0.012l0.059,0.01l0.059,0.008l0.06,0.007l0.061,0.005l0.061,0.004l0.062,0.003l0.063,0.001l0.063,-0.001l0.062,-0.003l0.061,-0.004l0.061,-0.005l0.06,-0.007l0.059,-0.008l0.059,-0.01l0.059,-0.012l0.058,-0.012l0.057,-0.015l0.057,-0.015l0.056,-0.017l0.056,-0.018l0.055,-0.02l0.054,-0.021l0.054,-0.022l0.053,-0.024l0.053,-0.025l0.052,-0.026l0.052,-0.028l0.051,-0.028l0.05,-0.031l0.049,-0.031l0.049,-0.032l0.048,-0.034l0.047,-0.035l0.046,-0.036l0.046,-0.037l0.045,-0.038l0.043,-0.039l0.043,-0.041l0.042,-0.041l0.041,-0.043l0.04,-0.043l0.039,-0.045l0.038,-0.045l0.037,-0.046l0.036,-0.048l0.035,-0.048l0.033,-0.049l0.033,-0.05l0.031,-0.05l0.03,-0.052l0.029,-0.052l0.028,-0.053l0.026,-0.054l0.025,-0.054l0.024,-0.055l0.023,-0.056l0.021,-0.057l0.02,-0.057l0.018,-0.058l0.017,-0.058l0.016,-0.059l0.014,-0.059l0.013,-0.061l0.012,-0.06l0.01,-0.062l0.009,-0.062l0.007,-0.063l0.005,-0.063l0.004,-0.064l0.003,-0.064l0.001,-0.066l-0.001,-0.065l-0.003,-0.064l-0.004,-0.064l-0.005,-0.064l-0.007,-0.062l-0.009,-0.062l-0.01,-0.062l-0.012,-0.061l-0.013,-0.06l-0.014,-0.059l-0.016,-0.059l-0.017,-0.059l-0.018,-0.058l-0.02,-0.057l-0.021,-0.056l-0.023,-0.056l-0.024,-0.055l-0.025,-0.054l-0.026,-0.054l-0.028,-0.053l-0.029,-0.052l-0.03,-0.052l-0.031,-0.05l-0.033,-0.05l-0.033,-0.049l-0.035,-0.048l-0.036,-0.048l-0.037,-0.046l-0.038,-0.046l-0.039,-0.044l-0.04,-0.044l-0.041,-0.042l-0.042,-0.042l-0.043,-0.04l-0.043,-0.039l-0.045,-0.039l-0.046,-0.037l-0.046,-0.036l-0.047,-0.035l-0.048,-0.033l-0.049,-0.033l-0.049,-0.031l-0.05,-0.03l-0.051,-0.029l-0.052,-0.027l-0.052,-0.026l-0.053,-0.025l-0.053,-0.024l-0.054,-0.022l-0.054,-0.021l-0.055,-0.02l-0.056,-0.018l-0.056,-0.017l-0.057,-0.016l-0.057,-0.014l-0.058,-0.013l-0.059,-0.011l-0.059,-0.01l-0.059,-0.008l-0.06,-0.007l-0.061,-0.006l-0.061,-0.004l-0.062,-0.002l-0.063,-0.001l-0.063,0.001Z" fill="rgba(173,177,181,0.7)"></path>
                <rect class="pk-key" x="184" y="51.5" width="10.2" height="3" fill="rgba(173,177,181,0.7)"></rect>
                <rect class="pk-key" x="185.2" y="54.5" width="2" height="3" fill="rgba(173,177,181,0.7)"></rect>
                <rect class="pk-key" x="189" y="54.5" width="2" height="3" fill="rgba(173,177,181,0.7)"></rect>
          
        </g>
        <g class="joint-table-row-group" onmousedown="QdbdJS.onRowMouseDown()" onmousemove="QdbdJS.onRowMouseMove()" onmouseup="QdbdJS.onRowMouseUp(46)">
          <rect x="0" y="63" class="joint-table-row" width="234" height="25" stroke="none"></rect>
          
          
          <text x="0" y="85" class="joint-field-text" id="v-9356" pointer-events="none" fill="#333" font-size="12px">
            <tspan x="14" y="85" text-anchor="start" class="joint-field-name fk" fill="#222" font-weight="bold">
              project_id
            </tspan>
            <tspan x="220" y="85" text-anchor="end" class="joint-field-type" fill="#adb1b5">
              int
            </tspan>
          </text>
          
          
        </g>
        <g class="joint-table-row-group" onmousedown="QdbdJS.onRowMouseDown()" onmousemove="QdbdJS.onRowMouseMove()" onmouseup="QdbdJS.onRowMouseUp(47)">
          <rect x="0" y="88" class="joint-table-row" width="234" height="31" stroke="none"></rect>
          
          
          <text x="0" y="110" class="joint-field-text" id="v-9357" pointer-events="none" fill="#333" font-size="12px">
            <tspan x="14" y="110" text-anchor="start" class="joint-field-name fk" fill="#222" font-weight="bold">
              classroom_id
            </tspan>
            <tspan x="220" y="110" text-anchor="end" class="joint-field-type" fill="#adb1b5">
              int
            </tspan>
          </text>
          
          
        <rect x="0" y="119" class="joint-table-row" width="234" height="6" stroke="none"></rect>
        
        </g>
          </g>
        </g></g><g id="j_727" model-id="6f17bac1-8bb4-40cc-8392-0e93cc64c076" class="element basic newt joint-theme-default" magnet="false" fill="#ffffff" stroke="none" transform="translate(890,64)" font-family="Roboto,'Helvetica Neue', sans-serif"><g class="joint-table" onmousedown="QdbdJS.onTableMouseDown(this)" onmouseup="QdbdJS.onTableMouseUp(this)" id="v-9359">
          <rect x="0" y="0" width="208" height="38" class="joint-table-title" onmousedown="QdbdJS.onRowMouseDown()" onmousemove="QdbdJS.onRowMouseMove()" onmouseup="QdbdJS.onRowMouseUp(49)" fill="#005aa0" stroke="#005aa0"></rect>
          <text x="14" y="24" text-anchor="start" class="joint-table-title-text" id="v-9366" pointer-events="none" font-size="14px">Classroom_admins</text>
          <g class="joint-table-rows">
            
        <g class="joint-table-row-group" onmousedown="QdbdJS.onRowMouseDown()" onmousemove="QdbdJS.onRowMouseMove()" onmouseup="QdbdJS.onRowMouseUp(51)">
          <rect x="0" y="38" class="joint-table-row" width="208" height="25" stroke="none"></rect>
          
          
          <text x="0" y="60" class="joint-field-text" id="v-9367" pointer-events="none" fill="#333" font-size="12px">
            <tspan x="14" y="60" text-anchor="start" class="joint-field-name pk" fill="#005aa0" font-weight="bold">
              id
            </tspan>
            <tspan x="194" y="60" text-anchor="end" class="joint-field-type" fill="#adb1b5">
              int
            </tspan>
          </text>
          <path class="pk-key" transform="matrix(0.7, 0, 0, 0.7, 157, 47)" d="M22.208,2.205l0.167,0.006l0.167,0.011l0.166,0.015l0.165,0.019l0.164,0.023l0.163,0.028l0.161,0.031l0.16,0.035l0.158,0.039l0.157,0.043l0.156,0.047l0.153,0.051l0.152,0.054l0.151,0.058l0.148,0.061l0.146,0.065l0.145,0.068l0.142,0.072l0.141,0.075l0.138,0.078l0.136,0.082l0.134,0.085l0.132,0.087l0.129,0.091l0.127,0.094l0.125,0.097l0.122,0.099l0.12,0.103l0.117,0.105l0.114,0.108l0.112,0.11l0.11,0.114l0.106,0.116l0.104,0.118l0.101,0.121l0.098,0.123l0.096,0.126l0.092,0.128l0.089,0.13l0.087,0.133l0.083,0.135l0.08,0.137l0.077,0.139l0.074,0.141l0.07,0.144l0.067,0.145l0.064,0.147l0.06,0.149l0.056,0.151l0.053,0.152l0.05,0.154l0.046,0.156l0.042,0.157l0.038,0.159l0.035,0.16l0.03,0.162l0.027,0.162l0.023,0.164l0.018,0.165l0.015,0.167l0.01,0.167l0.007,0.168l0.002,0.168l-0.002,0.169l-0.007,0.168l-0.01,0.167l-0.015,0.166l-0.018,0.166l-0.023,0.163l-0.027,0.163l-0.03,0.162l-0.035,0.16l-0.038,0.159l-0.042,0.157l-0.046,0.156l-0.05,0.154l-0.053,0.152l-0.056,0.151l-0.06,0.149l-0.064,0.147l-0.067,0.145l-0.07,0.143l-0.074,0.142l-0.077,0.139l-0.08,0.137l-0.083,0.135l-0.087,0.132l-0.089,0.131l-0.092,0.128l-0.096,0.125l-0.098,0.124l-0.101,0.121l-0.104,0.118l-0.106,0.116l-0.11,0.113l-0.112,0.111l-0.114,0.108l-0.117,0.105l-0.12,0.103l-0.122,0.099l-0.125,0.097l-0.127,0.094l-0.129,0.09l-0.132,0.088l-0.134,0.085l-0.136,0.081l-0.138,0.078l-0.141,0.076l-0.142,0.071l-0.145,0.069l-0.146,0.064l-0.148,0.062l-0.151,0.058l-0.152,0.054l-0.153,0.05l-0.156,0.047l-0.157,0.043l-0.158,0.039l-0.16,0.036l-0.161,0.031l-0.163,0.027l-0.164,0.024l-0.165,0.019l-0.166,0.015l-0.167,0.01l-0.167,0.007l-0.169,0.002l-0.168,-0.002l-0.168,-0.007l-0.167,-0.01l-0.166,-0.015l-0.165,-0.019l-0.164,-0.024l-0.163,-0.027l-0.161,-0.031l-0.16,-0.036l-0.158,-0.039l-0.157,-0.043l-0.156,-0.047l-0.153,-0.05l-0.152,-0.054l-0.15,-0.058l-0.149,-0.062l-0.146,-0.064l-0.145,-0.069l-0.142,-0.071l-0.141,-0.076l-0.138,-0.078l-0.136,-0.081l-0.134,-0.085l-0.132,-0.088l-0.129,-0.09l-0.127,-0.094l-0.125,-0.097l-0.122,-0.099l-0.12,-0.103l-0.117,-0.105l-0.114,-0.108l-0.112,-0.111l-0.11,-0.113l-0.106,-0.116l-0.104,-0.118l-0.101,-0.121l-0.098,-0.123l-0.096,-0.126l-0.092,-0.128l-0.089,-0.131l-0.087,-0.132l-0.083,-0.135l-0.08,-0.137l-0.077,-0.139l-0.073,-0.142l-0.071,-0.143l-0.067,-0.145l-0.063,-0.147l-0.061,-0.149l-0.056,-0.151l-0.053,-0.152l-0.05,-0.154l-0.046,-0.156l-0.042,-0.157l-0.038,-0.159l-0.035,-0.16l-0.03,-0.162l-0.027,-0.163l-0.023,-0.164l-0.018,-0.165l-0.015,-0.166l-0.01,-0.167l-0.007,-0.168l-0.002,-0.169l0.002,-0.168l0.007,-0.168l0.01,-0.167l0.015,-0.167l0.018,-0.165l0.023,-0.164l0.027,-0.162l0.03,-0.162l0.035,-0.16l0.038,-0.159l0.042,-0.157l0.046,-0.156l0.05,-0.154l0.053,-0.152l0.056,-0.151l0.061,-0.149l0.063,-0.147l0.067,-0.145l0.071,-0.144l0.073,-0.141l0.077,-0.139l0.08,-0.137l0.083,-0.135l0.087,-0.133l0.089,-0.13l0.092,-0.128l0.096,-0.126l0.098,-0.123l0.101,-0.121l0.104,-0.118l0.106,-0.116l0.11,-0.114l0.112,-0.11l0.114,-0.108l0.117,-0.105l0.12,-0.103l0.122,-0.099l0.125,-0.097l0.127,-0.094l0.129,-0.091l0.132,-0.087l0.134,-0.085l0.136,-0.081l0.138,-0.079l0.141,-0.075l0.142,-0.072l0.145,-0.068l0.146,-0.065l0.149,-0.061l0.15,-0.058l0.152,-0.054l0.153,-0.051l0.156,-0.047l0.157,-0.043l0.158,-0.039l0.16,-0.035l0.161,-0.031l0.163,-0.028l0.164,-0.023l0.165,-0.019l0.166,-0.015l0.167,-0.011l0.167,-0.006l0.169,-0.002l0.169,0.002Zm-0.232,4.128l-0.062,0.002l-0.061,0.004l-0.061,0.006l-0.06,0.007l-0.059,0.008l-0.059,0.01l-0.059,0.011l-0.058,0.013l-0.057,0.014l-0.057,0.016l-0.056,0.017l-0.055,0.018l-0.056,0.02l-0.054,0.021l-0.054,0.022l-0.053,0.024l-0.053,0.025l-0.052,0.026l-0.052,0.027l-0.05,0.029l-0.051,0.03l-0.049,0.031l-0.049,0.033l-0.048,0.033l-0.047,0.035l-0.046,0.036l-0.046,0.037l-0.044,0.039l-0.044,0.039l-0.043,0.04l-0.042,0.042l-0.041,0.042l-0.04,0.044l-0.039,0.044l-0.038,0.046l-0.037,0.046l-0.036,0.048l-0.035,0.048l-0.033,0.049l-0.033,0.05l-0.031,0.05l-0.03,0.052l-0.029,0.052l-0.028,0.053l-0.026,0.054l-0.025,0.054l-0.024,0.055l-0.023,0.056l-0.021,0.056l-0.02,0.057l-0.018,0.058l-0.017,0.059l-0.016,0.059l-0.014,0.059l-0.013,0.06l-0.012,0.061l-0.01,0.062l-0.009,0.062l-0.007,0.062l-0.005,0.064l-0.004,0.063l-0.003,0.065l0,0.065l0,0.066l0.003,0.064l0.004,0.064l0.005,0.063l0.007,0.063l0.009,0.062l0.01,0.062l0.012,0.06l0.013,0.061l0.014,0.059l0.016,0.059l0.017,0.058l0.018,0.058l0.02,0.057l0.021,0.057l0.023,0.055l0.024,0.056l0.025,0.054l0.026,0.054l0.028,0.053l0.029,0.052l0.03,0.051l0.031,0.051l0.033,0.05l0.033,0.049l0.035,0.048l0.036,0.047l0.037,0.047l0.038,0.045l0.039,0.045l0.04,0.043l0.041,0.043l0.042,0.041l0.043,0.041l0.044,0.039l0.044,0.038l0.046,0.037l0.046,0.036l0.047,0.035l0.048,0.034l0.049,0.032l0.049,0.032l0.051,0.03l0.05,0.028l0.052,0.028l0.052,0.026l0.053,0.025l0.053,0.024l0.054,0.022l0.054,0.021l0.056,0.02l0.055,0.018l0.056,0.017l0.057,0.015l0.057,0.015l0.058,0.012l0.059,0.012l0.059,0.01l0.059,0.008l0.06,0.007l0.061,0.005l0.061,0.004l0.062,0.003l0.063,0.001l0.063,-0.001l0.062,-0.003l0.061,-0.004l0.061,-0.005l0.06,-0.007l0.059,-0.008l0.059,-0.01l0.059,-0.012l0.058,-0.012l0.057,-0.015l0.057,-0.015l0.056,-0.017l0.056,-0.018l0.055,-0.02l0.054,-0.021l0.054,-0.022l0.053,-0.024l0.053,-0.025l0.052,-0.026l0.052,-0.028l0.051,-0.028l0.05,-0.031l0.049,-0.031l0.049,-0.032l0.048,-0.034l0.047,-0.035l0.046,-0.036l0.046,-0.037l0.045,-0.038l0.043,-0.039l0.043,-0.041l0.042,-0.041l0.041,-0.043l0.04,-0.043l0.039,-0.045l0.038,-0.045l0.037,-0.046l0.036,-0.048l0.035,-0.048l0.033,-0.049l0.033,-0.05l0.031,-0.05l0.03,-0.052l0.029,-0.052l0.028,-0.053l0.026,-0.054l0.025,-0.054l0.024,-0.055l0.023,-0.056l0.021,-0.057l0.02,-0.057l0.018,-0.058l0.017,-0.058l0.016,-0.059l0.014,-0.059l0.013,-0.061l0.012,-0.06l0.01,-0.062l0.009,-0.062l0.007,-0.063l0.005,-0.063l0.004,-0.064l0.003,-0.064l0.001,-0.066l-0.001,-0.065l-0.003,-0.064l-0.004,-0.064l-0.005,-0.064l-0.007,-0.062l-0.009,-0.062l-0.01,-0.062l-0.012,-0.061l-0.013,-0.06l-0.014,-0.059l-0.016,-0.059l-0.017,-0.059l-0.018,-0.058l-0.02,-0.057l-0.021,-0.056l-0.023,-0.056l-0.024,-0.055l-0.025,-0.054l-0.026,-0.054l-0.028,-0.053l-0.029,-0.052l-0.03,-0.052l-0.031,-0.05l-0.033,-0.05l-0.033,-0.049l-0.035,-0.048l-0.036,-0.048l-0.037,-0.046l-0.038,-0.046l-0.039,-0.044l-0.04,-0.044l-0.041,-0.042l-0.042,-0.042l-0.043,-0.04l-0.043,-0.039l-0.045,-0.039l-0.046,-0.037l-0.046,-0.036l-0.047,-0.035l-0.048,-0.033l-0.049,-0.033l-0.049,-0.031l-0.05,-0.03l-0.051,-0.029l-0.052,-0.027l-0.052,-0.026l-0.053,-0.025l-0.053,-0.024l-0.054,-0.022l-0.054,-0.021l-0.055,-0.02l-0.056,-0.018l-0.056,-0.017l-0.057,-0.016l-0.057,-0.014l-0.058,-0.013l-0.059,-0.011l-0.059,-0.01l-0.059,-0.008l-0.06,-0.007l-0.061,-0.006l-0.061,-0.004l-0.062,-0.002l-0.063,-0.001l-0.063,0.001Z" fill="rgba(173,177,181,0.7)"></path>
                <rect class="pk-key" x="158" y="51.5" width="10.2" height="3" fill="rgba(173,177,181,0.7)"></rect>
                <rect class="pk-key" x="159.2" y="54.5" width="2" height="3" fill="rgba(173,177,181,0.7)"></rect>
                <rect class="pk-key" x="163" y="54.5" width="2" height="3" fill="rgba(173,177,181,0.7)"></rect>
          
        </g>
        <g class="joint-table-row-group" onmousedown="QdbdJS.onRowMouseDown()" onmousemove="QdbdJS.onRowMouseMove()" onmouseup="QdbdJS.onRowMouseUp(52)">
          <rect x="0" y="63" class="joint-table-row" width="208" height="25" stroke="none"></rect>
          
          
          <text x="0" y="85" class="joint-field-text" id="v-9368" pointer-events="none" fill="#333" font-size="12px">
            <tspan x="14" y="85" text-anchor="start" class="joint-field-name fk" fill="#222" font-weight="bold">
              user_id
            </tspan>
            <tspan x="194" y="85" text-anchor="end" class="joint-field-type" fill="#adb1b5">
              int
            </tspan>
          </text>
          
          
        </g>
        <g class="joint-table-row-group" onmousedown="QdbdJS.onRowMouseDown()" onmousemove="QdbdJS.onRowMouseMove()" onmouseup="QdbdJS.onRowMouseUp(53)">
          <rect x="0" y="88" class="joint-table-row" width="208" height="31" stroke="none"></rect>
          
          
          <text x="0" y="110" class="joint-field-text" id="v-9369" pointer-events="none" fill="#333" font-size="12px">
            <tspan x="14" y="110" text-anchor="start" class="joint-field-name fk" fill="#222" font-weight="bold">
              classroom_id
            </tspan>
            <tspan x="194" y="110" text-anchor="end" class="joint-field-type" fill="#adb1b5">
              int
            </tspan>
          </text>
          
          
        <rect x="0" y="119" class="joint-table-row" width="208" height="6" stroke="none"></rect>
        
        </g>
          </g>
        </g></g><g id="j_728" model-id="a38873ec-7b39-4cc7-bb50-834472f5ed45" class="element basic newt joint-theme-default" magnet="false" fill="#ffffff" stroke="none" transform="translate(432,410)" font-family="Roboto,'Helvetica Neue', sans-serif"><g class="joint-table" onmousedown="QdbdJS.onTableMouseDown(this)" onmouseup="QdbdJS.onTableMouseUp(this)" id="v-9371">
          <rect x="0" y="0" width="333" height="38" class="joint-table-title" onmousedown="QdbdJS.onRowMouseDown()" onmousemove="QdbdJS.onRowMouseMove()" onmouseup="QdbdJS.onRowMouseUp(55)" fill="#005aa0" stroke="#005aa0"></rect>
          <text x="14" y="24" text-anchor="start" class="joint-table-title-text" id="v-9380" pointer-events="none" font-size="14px">Classroom_members</text>
          <g class="joint-table-rows">
            
        <g class="joint-table-row-group" onmousedown="QdbdJS.onRowMouseDown()" onmousemove="QdbdJS.onRowMouseMove()" onmouseup="QdbdJS.onRowMouseUp(57)">
          <rect x="0" y="38" class="joint-table-row" width="333" height="25" stroke="none"></rect>
          
          
          <text x="0" y="60" class="joint-field-text" id="v-9381" pointer-events="none" fill="#333" font-size="12px">
            <tspan x="14" y="60" text-anchor="start" class="joint-field-name pk" fill="#005aa0" font-weight="bold">
              id
            </tspan>
            <tspan x="319" y="60" text-anchor="end" class="joint-field-type" fill="#adb1b5">
              int
            </tspan>
          </text>
          <path class="pk-key" transform="matrix(0.7, 0, 0, 0.7, 282, 47)" d="M22.208,2.205l0.167,0.006l0.167,0.011l0.166,0.015l0.165,0.019l0.164,0.023l0.163,0.028l0.161,0.031l0.16,0.035l0.158,0.039l0.157,0.043l0.156,0.047l0.153,0.051l0.152,0.054l0.151,0.058l0.148,0.061l0.146,0.065l0.145,0.068l0.142,0.072l0.141,0.075l0.138,0.078l0.136,0.082l0.134,0.085l0.132,0.087l0.129,0.091l0.127,0.094l0.125,0.097l0.122,0.099l0.12,0.103l0.117,0.105l0.114,0.108l0.112,0.11l0.11,0.114l0.106,0.116l0.104,0.118l0.101,0.121l0.098,0.123l0.096,0.126l0.092,0.128l0.089,0.13l0.087,0.133l0.083,0.135l0.08,0.137l0.077,0.139l0.074,0.141l0.07,0.144l0.067,0.145l0.064,0.147l0.06,0.149l0.056,0.151l0.053,0.152l0.05,0.154l0.046,0.156l0.042,0.157l0.038,0.159l0.035,0.16l0.03,0.162l0.027,0.162l0.023,0.164l0.018,0.165l0.015,0.167l0.01,0.167l0.007,0.168l0.002,0.168l-0.002,0.169l-0.007,0.168l-0.01,0.167l-0.015,0.166l-0.018,0.166l-0.023,0.163l-0.027,0.163l-0.03,0.162l-0.035,0.16l-0.038,0.159l-0.042,0.157l-0.046,0.156l-0.05,0.154l-0.053,0.152l-0.056,0.151l-0.06,0.149l-0.064,0.147l-0.067,0.145l-0.07,0.143l-0.074,0.142l-0.077,0.139l-0.08,0.137l-0.083,0.135l-0.087,0.132l-0.089,0.131l-0.092,0.128l-0.096,0.125l-0.098,0.124l-0.101,0.121l-0.104,0.118l-0.106,0.116l-0.11,0.113l-0.112,0.111l-0.114,0.108l-0.117,0.105l-0.12,0.103l-0.122,0.099l-0.125,0.097l-0.127,0.094l-0.129,0.09l-0.132,0.088l-0.134,0.085l-0.136,0.081l-0.138,0.078l-0.141,0.076l-0.142,0.071l-0.145,0.069l-0.146,0.064l-0.148,0.062l-0.151,0.058l-0.152,0.054l-0.153,0.05l-0.156,0.047l-0.157,0.043l-0.158,0.039l-0.16,0.036l-0.161,0.031l-0.163,0.027l-0.164,0.024l-0.165,0.019l-0.166,0.015l-0.167,0.01l-0.167,0.007l-0.169,0.002l-0.168,-0.002l-0.168,-0.007l-0.167,-0.01l-0.166,-0.015l-0.165,-0.019l-0.164,-0.024l-0.163,-0.027l-0.161,-0.031l-0.16,-0.036l-0.158,-0.039l-0.157,-0.043l-0.156,-0.047l-0.153,-0.05l-0.152,-0.054l-0.15,-0.058l-0.149,-0.062l-0.146,-0.064l-0.145,-0.069l-0.142,-0.071l-0.141,-0.076l-0.138,-0.078l-0.136,-0.081l-0.134,-0.085l-0.132,-0.088l-0.129,-0.09l-0.127,-0.094l-0.125,-0.097l-0.122,-0.099l-0.12,-0.103l-0.117,-0.105l-0.114,-0.108l-0.112,-0.111l-0.11,-0.113l-0.106,-0.116l-0.104,-0.118l-0.101,-0.121l-0.098,-0.123l-0.096,-0.126l-0.092,-0.128l-0.089,-0.131l-0.087,-0.132l-0.083,-0.135l-0.08,-0.137l-0.077,-0.139l-0.073,-0.142l-0.071,-0.143l-0.067,-0.145l-0.063,-0.147l-0.061,-0.149l-0.056,-0.151l-0.053,-0.152l-0.05,-0.154l-0.046,-0.156l-0.042,-0.157l-0.038,-0.159l-0.035,-0.16l-0.03,-0.162l-0.027,-0.163l-0.023,-0.164l-0.018,-0.165l-0.015,-0.166l-0.01,-0.167l-0.007,-0.168l-0.002,-0.169l0.002,-0.168l0.007,-0.168l0.01,-0.167l0.015,-0.167l0.018,-0.165l0.023,-0.164l0.027,-0.162l0.03,-0.162l0.035,-0.16l0.038,-0.159l0.042,-0.157l0.046,-0.156l0.05,-0.154l0.053,-0.152l0.056,-0.151l0.061,-0.149l0.063,-0.147l0.067,-0.145l0.071,-0.144l0.073,-0.141l0.077,-0.139l0.08,-0.137l0.083,-0.135l0.087,-0.133l0.089,-0.13l0.092,-0.128l0.096,-0.126l0.098,-0.123l0.101,-0.121l0.104,-0.118l0.106,-0.116l0.11,-0.114l0.112,-0.11l0.114,-0.108l0.117,-0.105l0.12,-0.103l0.122,-0.099l0.125,-0.097l0.127,-0.094l0.129,-0.091l0.132,-0.087l0.134,-0.085l0.136,-0.081l0.138,-0.079l0.141,-0.075l0.142,-0.072l0.145,-0.068l0.146,-0.065l0.149,-0.061l0.15,-0.058l0.152,-0.054l0.153,-0.051l0.156,-0.047l0.157,-0.043l0.158,-0.039l0.16,-0.035l0.161,-0.031l0.163,-0.028l0.164,-0.023l0.165,-0.019l0.166,-0.015l0.167,-0.011l0.167,-0.006l0.169,-0.002l0.169,0.002Zm-0.232,4.128l-0.062,0.002l-0.061,0.004l-0.061,0.006l-0.06,0.007l-0.059,0.008l-0.059,0.01l-0.059,0.011l-0.058,0.013l-0.057,0.014l-0.057,0.016l-0.056,0.017l-0.055,0.018l-0.056,0.02l-0.054,0.021l-0.054,0.022l-0.053,0.024l-0.053,0.025l-0.052,0.026l-0.052,0.027l-0.05,0.029l-0.051,0.03l-0.049,0.031l-0.049,0.033l-0.048,0.033l-0.047,0.035l-0.046,0.036l-0.046,0.037l-0.044,0.039l-0.044,0.039l-0.043,0.04l-0.042,0.042l-0.041,0.042l-0.04,0.044l-0.039,0.044l-0.038,0.046l-0.037,0.046l-0.036,0.048l-0.035,0.048l-0.033,0.049l-0.033,0.05l-0.031,0.05l-0.03,0.052l-0.029,0.052l-0.028,0.053l-0.026,0.054l-0.025,0.054l-0.024,0.055l-0.023,0.056l-0.021,0.056l-0.02,0.057l-0.018,0.058l-0.017,0.059l-0.016,0.059l-0.014,0.059l-0.013,0.06l-0.012,0.061l-0.01,0.062l-0.009,0.062l-0.007,0.062l-0.005,0.064l-0.004,0.063l-0.003,0.065l0,0.065l0,0.066l0.003,0.064l0.004,0.064l0.005,0.063l0.007,0.063l0.009,0.062l0.01,0.062l0.012,0.06l0.013,0.061l0.014,0.059l0.016,0.059l0.017,0.058l0.018,0.058l0.02,0.057l0.021,0.057l0.023,0.055l0.024,0.056l0.025,0.054l0.026,0.054l0.028,0.053l0.029,0.052l0.03,0.051l0.031,0.051l0.033,0.05l0.033,0.049l0.035,0.048l0.036,0.047l0.037,0.047l0.038,0.045l0.039,0.045l0.04,0.043l0.041,0.043l0.042,0.041l0.043,0.041l0.044,0.039l0.044,0.038l0.046,0.037l0.046,0.036l0.047,0.035l0.048,0.034l0.049,0.032l0.049,0.032l0.051,0.03l0.05,0.028l0.052,0.028l0.052,0.026l0.053,0.025l0.053,0.024l0.054,0.022l0.054,0.021l0.056,0.02l0.055,0.018l0.056,0.017l0.057,0.015l0.057,0.015l0.058,0.012l0.059,0.012l0.059,0.01l0.059,0.008l0.06,0.007l0.061,0.005l0.061,0.004l0.062,0.003l0.063,0.001l0.063,-0.001l0.062,-0.003l0.061,-0.004l0.061,-0.005l0.06,-0.007l0.059,-0.008l0.059,-0.01l0.059,-0.012l0.058,-0.012l0.057,-0.015l0.057,-0.015l0.056,-0.017l0.056,-0.018l0.055,-0.02l0.054,-0.021l0.054,-0.022l0.053,-0.024l0.053,-0.025l0.052,-0.026l0.052,-0.028l0.051,-0.028l0.05,-0.031l0.049,-0.031l0.049,-0.032l0.048,-0.034l0.047,-0.035l0.046,-0.036l0.046,-0.037l0.045,-0.038l0.043,-0.039l0.043,-0.041l0.042,-0.041l0.041,-0.043l0.04,-0.043l0.039,-0.045l0.038,-0.045l0.037,-0.046l0.036,-0.048l0.035,-0.048l0.033,-0.049l0.033,-0.05l0.031,-0.05l0.03,-0.052l0.029,-0.052l0.028,-0.053l0.026,-0.054l0.025,-0.054l0.024,-0.055l0.023,-0.056l0.021,-0.057l0.02,-0.057l0.018,-0.058l0.017,-0.058l0.016,-0.059l0.014,-0.059l0.013,-0.061l0.012,-0.06l0.01,-0.062l0.009,-0.062l0.007,-0.063l0.005,-0.063l0.004,-0.064l0.003,-0.064l0.001,-0.066l-0.001,-0.065l-0.003,-0.064l-0.004,-0.064l-0.005,-0.064l-0.007,-0.062l-0.009,-0.062l-0.01,-0.062l-0.012,-0.061l-0.013,-0.06l-0.014,-0.059l-0.016,-0.059l-0.017,-0.059l-0.018,-0.058l-0.02,-0.057l-0.021,-0.056l-0.023,-0.056l-0.024,-0.055l-0.025,-0.054l-0.026,-0.054l-0.028,-0.053l-0.029,-0.052l-0.03,-0.052l-0.031,-0.05l-0.033,-0.05l-0.033,-0.049l-0.035,-0.048l-0.036,-0.048l-0.037,-0.046l-0.038,-0.046l-0.039,-0.044l-0.04,-0.044l-0.041,-0.042l-0.042,-0.042l-0.043,-0.04l-0.043,-0.039l-0.045,-0.039l-0.046,-0.037l-0.046,-0.036l-0.047,-0.035l-0.048,-0.033l-0.049,-0.033l-0.049,-0.031l-0.05,-0.03l-0.051,-0.029l-0.052,-0.027l-0.052,-0.026l-0.053,-0.025l-0.053,-0.024l-0.054,-0.022l-0.054,-0.021l-0.055,-0.02l-0.056,-0.018l-0.056,-0.017l-0.057,-0.016l-0.057,-0.014l-0.058,-0.013l-0.059,-0.011l-0.059,-0.01l-0.059,-0.008l-0.06,-0.007l-0.061,-0.006l-0.061,-0.004l-0.062,-0.002l-0.063,-0.001l-0.063,0.001Z" fill="rgba(173,177,181,0.7)"></path>
                <rect class="pk-key" x="283" y="51.5" width="10.2" height="3" fill="rgba(173,177,181,0.7)"></rect>
                <rect class="pk-key" x="284.2" y="54.5" width="2" height="3" fill="rgba(173,177,181,0.7)"></rect>
                <rect class="pk-key" x="288" y="54.5" width="2" height="3" fill="rgba(173,177,181,0.7)"></rect>
          
        </g>
        <g class="joint-table-row-group" onmousedown="QdbdJS.onRowMouseDown()" onmousemove="QdbdJS.onRowMouseMove()" onmouseup="QdbdJS.onRowMouseUp(58)">
          <rect x="0" y="63" class="joint-table-row" width="333" height="25" stroke="none"></rect>
          
          
          <text x="0" y="85" class="joint-field-text" id="v-9382" pointer-events="none" fill="#333" font-size="12px">
            <tspan x="14" y="85" text-anchor="start" class="joint-field-name fk" fill="#222" font-weight="bold">
              user_id
            </tspan>
            <tspan x="319" y="85" text-anchor="end" class="joint-field-type" fill="#adb1b5">
              int
            </tspan>
          </text>
          
          
        </g>
        <g class="joint-table-row-group" onmousedown="QdbdJS.onRowMouseDown()" onmousemove="QdbdJS.onRowMouseMove()" onmouseup="QdbdJS.onRowMouseUp(59)">
          <rect x="0" y="88" class="joint-table-row" width="333" height="25" stroke="none"></rect>
          
          
          <text x="0" y="110" class="joint-field-text" id="v-9383" pointer-events="none" fill="#333" font-size="12px">
            <tspan x="14" y="110" text-anchor="start" class="joint-field-name fk" fill="#222" font-weight="bold">
              classroom_id
            </tspan>
            <tspan x="319" y="110" text-anchor="end" class="joint-field-type" fill="#adb1b5">
              int
            </tspan>
          </text>
          
          
        </g>
        <g class="joint-table-row-group" onmousedown="QdbdJS.onRowMouseDown()" onmousemove="QdbdJS.onRowMouseMove()" onmouseup="QdbdJS.onRowMouseUp(60)">
          <rect x="0" y="113" class="joint-table-row" width="333" height="31" stroke="none"></rect>
          
          
          <text x="0" y="135" class="joint-field-text" id="v-9384" pointer-events="none" fill="#333" font-size="12px">
            <tspan x="14" y="135" text-anchor="start" class="joint-field-name ">
              user_idWithClassroom_id
            </tspan>
            <tspan x="319" y="135" text-anchor="end" class="joint-field-type" fill="#adb1b5">
              unqiue_string
            </tspan>
          </text>
          
          
        <rect x="0" y="144" class="joint-table-row" width="333" height="6" stroke="none"></rect>
        
        </g>
          </g>
        </g></g></g><defs id="v-4"></defs><text class="qdbd-link" x="10" y="20" font-family="Roboto,'Helvetica Neue', sans-serif">www.quickdatabasediagrams.com</text></svg>